<?xml version="1.0" encoding="UTF-8"?>
<svg xmlns="http://www.w3.org/2000/svg" width="242" height="85.734" viewBox="0 0 242 85.734">
  <g id="Group_35704" data-name="Group 35704" transform="translate(-3557 249.88)">
    <g id="Group_35704-2" data-name="Group 35704" transform="translate(3658.819 -221.484)">
      <path id="Path_37747" data-name="Path 37747" d="M856.78,552.828h-7.113v-28.2h7.113Z" transform="translate(-849.667 -524.258)" fill="#fff"></path>
      <path id="Path_37748" data-name="Path 37748" d="M893.279,559.407a3.663,3.663,0,0,1-3.638-3.6,3.618,3.618,0,0,1,3.556-3.6,3.6,3.6,0,0,1,.082,7.194Z" transform="translate(-874.72 -541.545)" fill="#ff2915"></path>
      <path id="Path_37749" data-name="Path 37749" d="M940.05,524.63a16.809,16.809,0,0,1,5.5.537,7.016,7.016,0,0,1,5.375,6.492,6.4,6.4,0,0,1-3.8,5.664c4.012,1.24,5.954,3.6,5.954,7.318a7.725,7.725,0,0,1-5.54,7.567,15.683,15.683,0,0,1-5.292.662l-12.942-.042v-28.2Zm-3.6,11.2H939.1c3.433,0,4.756-.868,4.756-3.1,0-2.15-1.366-3.06-4.632-3.06h-2.77Zm0,11.866h3.473c4.424,0,5.912-.867,5.912-3.39,0-2.6-1.488-3.39-6.243-3.39h-3.142Z" transform="translate(-899.577 -524.258)" fill="#fff"></path>
      <path id="Path_37750" data-name="Path 37750" d="M1013.927,559.407a3.663,3.663,0,0,1-3.638-3.6,3.619,3.619,0,0,1,3.556-3.6,3.6,3.6,0,0,1,.082,7.194Z" transform="translate(-950.336 -541.545)" fill="#ff2915"></path>
      <path id="Path_37751" data-name="Path 37751" d="M1069.762,552.828h-7.567l-2.315-5.581h-12.611l-2.108,5.581h-7.442l11.371-28.2h8.145Zm-20.633-10.5h8.682l-4.548-10.915Z" transform="translate(-967.527 -524.258)" fill="#fff"></path>
      <path id="Path_37752" data-name="Path 37752" d="M1134.622,559.407a3.663,3.663,0,0,1-3.638-3.6,3.618,3.618,0,0,1,3.556-3.6,3.6,3.6,0,0,1,.082,7.194Z" transform="translate(-1025.981 -541.545)" fill="#ff2915"></path>
      <path id="Path_37753" data-name="Path 37753" d="M1187.845,531.613l-.5-.248a19.406,19.406,0,0,0-8.6-2.481c-2.563,0-4.217.91-4.217,2.274,0,1.2,1.447,2.233,4.59,3.35l2.232.827c5.417,1.943,7.774,4.631,7.774,8.889,0,5-4.425,8.353-11.04,8.353a20.132,20.132,0,0,1-7.442-1.53,10.225,10.225,0,0,1-2.521-1.2v-6.078a25.474,25.474,0,0,0,4.548,2.44,13.222,13.222,0,0,0,5.21,1.073c2.77,0,4.258-.867,4.258-2.563,0-1.406-.951-2.191-3.8-3.183l-1.53-.537a27.849,27.849,0,0,1-4.672-2.026,9.628,9.628,0,0,1-2.645-2.067,8.118,8.118,0,0,1-1.862-5.251c0-4.837,4.218-8.021,10.668-8.021a22.577,22.577,0,0,1,9.551,2.191Z" transform="translate(-1048.946 -523.633)" fill="#fff"></path>
    </g>
    <rect id="Rectangle_1328" data-name="Rectangle 1328" width="60.623" height="60.623" transform="translate(3557 -207.013) rotate(-45)" fill="#f9fbff"></rect>
    <g id="Group_35705" data-name="Group 35705" transform="translate(3573.797 -223.611)">
      <path id="np_wifi_1560049_000000" d="M16.6,0A28.575,28.575,0,0,0,0,5.3L2.718,8.83a24.318,24.318,0,0,1,27.761,0L33.2,5.3A28.576,28.576,0,0,0,16.6,0Zm0,7.465A21.148,21.148,0,0,0,4.549,11.221l2.729,3.534a16.855,16.855,0,0,1,18.64,0l2.729-3.534A21.148,21.148,0,0,0,16.6,7.465Zm0,7.465a13.71,13.71,0,0,0-7.477,2.216l2.718,3.546a9.467,9.467,0,0,1,9.518,0l2.718-3.546A13.711,13.711,0,0,0,16.6,14.93Z" transform="translate(31.727 33.197) rotate(-90)" fill="#00abe5"></path>
      <path id="np_wifi_1560049_000000-2" data-name="np_wifi_1560049_000000" d="M16.6,0A28.575,28.575,0,0,0,0,5.3L2.718,8.83a24.318,24.318,0,0,1,27.761,0L33.2,5.3A28.576,28.576,0,0,0,16.6,0Zm0,7.465A21.148,21.148,0,0,0,4.549,11.221l2.729,3.534a16.855,16.855,0,0,1,18.64,0l2.729-3.534A21.148,21.148,0,0,0,16.6,7.465Zm0,7.465a13.71,13.71,0,0,0-7.477,2.216l2.718,3.546a9.467,9.467,0,0,1,9.518,0l2.718-3.546A13.711,13.711,0,0,0,16.6,14.93Z" transform="translate(20.692 0) rotate(90)" fill="#00abe5"></path>
    </g>
  </g>
</svg>
