<svg xmlns="http://www.w3.org/2000/svg" width="130" height="108">
  <path fill="none" d="M0 0h130v108H0z" />
  <g fill="#fff">
    <path
      d="m9.773 80.608-.765 1.578a5.892 5.892 0 0 0-2.545-.83c-.516 0-.867.194-.867.581 0 1.374 4.2.59 4.2 3.467 0 1.586-1.4 2.425-3.181 2.425a5.929 5.929 0 0 1-3.637-1.274l.784-1.549a5 5 0 0 0 2.876 1.134c.636 0 1.014-.221 1.014-.673 0-1.411-4.2-.572-4.2-3.384.015-1.475 1.278-2.397 3.186-2.397a5.975 5.975 0 0 1 3.135.922ZM16.653 85.218h-4.3a1.411 1.411 0 0 0 1.438 1.134 2.065 2.065 0 0 0 1.466-.618l1.033 1.005a3.522 3.522 0 0 1-2.665 1.079 3.144 3.144 0 1 1-.061-6.288c2.153 0 3.227 1.429 3.089 3.688Zm-1.844-1.051a1.143 1.143 0 0 0-1.18-1.236 1.319 1.319 0 0 0-1.272 1.236ZM19.686 82.636a2.268 2.268 0 0 1 1.992-1.106v1.78a1.63 1.63 0 0 0-1.992 1.291v3.144h-1.964v-6.141h1.964ZM24.25 87.724l-2.305-6.12h2.028l1.31 4.32L26.62 81.6h1.945l-2.305 6.124ZM31.331 79.843a1.033 1.033 0 1 1-1.033-1.033 1.005 1.005 0 0 1 1.033 1.033Zm-2.019 7.883v-6.122h1.955v6.122ZM38.274 86.371a2.766 2.766 0 0 1-2.158 1.374l-.286.562a.922.922 0 0 1 .775.922c0 .719-.59 1.171-1.42 1.171a1.973 1.973 0 0 1-1.079-.35l.36-.8a.922.922 0 0 0 .562.221.424.424 0 0 0 .47-.415c0-.231-.175-.415-.516-.415a3.568 3.568 0 0 0-.415 0l.443-.922a2.914 2.914 0 0 1-2.674-3.08 3 3 0 0 1 3.182-3.108 3.052 3.052 0 0 1 2.766 1.374l-1.411.848a1.457 1.457 0 0 0-1.236-.636c-.756 0-1.282.627-1.282 1.549s.526 1.549 1.282 1.549a1.346 1.346 0 0 0 1.254-.692ZM45.235 84.656a3.061 3.061 0 0 1-3.338 3.135 3.135 3.135 0 1 1 0-6.251 3.052 3.052 0 0 1 3.338 3.117Zm-4.712 0a1.383 1.383 0 1 0 1.374-1.586 1.411 1.411 0 0 0-1.374 1.614ZM55.093 87.726h-1.964v-.8a2.222 2.222 0 0 1-1.844.922 2.858 2.858 0 0 1-2.868-3.172 2.827 2.827 0 0 1 2.831-3.144 2.259 2.259 0 0 1 1.844.922v-3.155h1.964Zm-1.964-3.043a1.411 1.411 0 0 0-1.365-1.586 1.429 1.429 0 0 0-1.374 1.586 1.448 1.448 0 0 0 1.374 1.6 1.429 1.429 0 0 0 1.365-1.6ZM62.487 85.218h-4.3a1.4 1.4 0 0 0 1.438 1.134 2.084 2.084 0 0 0 1.5-.645l1.033 1.005a3.531 3.531 0 0 1-2.674 1.079 3.131 3.131 0 0 1-.086-6.261c2.158 0 3.227 1.429 3.089 3.688Zm-1.848-1.051a1.143 1.143 0 0 0-1.18-1.236 1.309 1.309 0 0 0-1.272 1.236ZM69.817 85.486h-1.6v2.241h-2.014v-7.948h3.559c2.1 0 3.3 1 3.3 2.766a2.637 2.637 0 0 1-1.438 2.554l1.669 2.628h-2.3Zm-.055-1.586c.922 0 1.383-.443 1.383-1.282s-.507-1.254-1.383-1.254h-1.54V83.9ZM80.19 85.218h-4.306a1.411 1.411 0 0 0 1.438 1.134 2.065 2.065 0 0 0 1.466-.618l1.033 1.005a3.5 3.5 0 0 1-2.665 1.079 3.144 3.144 0 0 1-.055-6.288c2.158 0 3.218 1.429 3.089 3.688Zm-1.845-1.051a1.143 1.143 0 0 0-1.18-1.236 1.318 1.318 0 0 0-1.282 1.208ZM87.106 87.173c0 1.733-1.337 2.831-3.319 2.831a4.915 4.915 0 0 1-2.72-.8l.682-1.328a3.365 3.365 0 0 0 1.844.609c.922 0 1.512-.5 1.512-1.254v-.645a2.121 2.121 0 0 1-1.761.811 2.674 2.674 0 0 1-2.637-2.96 2.609 2.609 0 0 1 2.637-2.906 2.13 2.13 0 0 1 1.844.821v-.756h1.955Zm-1.955-2.683a1.3 1.3 0 1 0-1.273 1.485 1.328 1.328 0 0 0 1.272-1.484ZM94.565 87.724h-1.964v-1.012a2.25 2.25 0 0 1-4.177-1.245v-3.863h1.964v3.31a1.023 1.023 0 0 0 1.023 1.162c.747 0 1.189-.618 1.189-1.448v-3.024h1.964ZM96.169 87.726v-8.427h1.964v8.427ZM105.196 83.73v4h-1.918v-.664a2.25 2.25 0 0 1-1.844.793 1.89 1.89 0 0 1-2.1-1.918c0-1.162.83-1.844 2.351-1.844h1.614v-.092c0-.6-.4-.922-1.189-.922a4.315 4.315 0 0 0-1.844.516l-.553-1.291a6.362 6.362 0 0 1 2.818-.778c1.679 0 2.656.811 2.665 2.2Zm-1.927 1.918v-.553h-1.236c-.59 0-.922.212-.922.664s.313.728.857.728a1.245 1.245 0 0 0 1.3-.839ZM112.031 86.371a2.766 2.766 0 0 1-2.158 1.374l-.286.562a.922.922 0 0 1 .775.922c0 .719-.59 1.171-1.42 1.171a1.973 1.973 0 0 1-1.079-.35l.36-.8a.922.922 0 0 0 .562.221.424.424 0 0 0 .47-.415c0-.231-.175-.415-.516-.415a3.568 3.568 0 0 0-.415 0l.443-.922a2.914 2.914 0 0 1-2.674-3.08 3 3 0 0 1 3.169-3.108 3.052 3.052 0 0 1 2.766 1.374l-1.411.848a1.457 1.457 0 0 0-1.236-.636c-.756 0-1.282.627-1.282 1.549s.526 1.549 1.282 1.549a1.346 1.346 0 0 0 1.254-.692ZM118.295 83.734v3.992h-1.936v-.663a2.25 2.25 0 0 1-1.844.793 1.9 1.9 0 0 1-2.1-1.918c0-1.162.83-1.844 2.351-1.844h1.614v-.092c0-.6-.4-.922-1.189-.922a4.242 4.242 0 0 0-1.844.516l-.562-1.291a6.362 6.362 0 0 1 2.84-.7c1.67-.074 2.67.737 2.67 2.129Zm-3.614-3.061h-1.206c0-1.189.4-1.77 1.189-1.77s1 .535 1.309.535.35-.157.35-.479h1.2c0 1.2-.387 1.761-1.189 1.761s-.987-.535-1.309-.535-.36.166-.36.489Zm1.687 4.979v-.553h-1.233c-.59 0-.922.212-.922.664s.313.728.858.728a1.236 1.236 0 0 0 1.282-.839ZM125.859 84.656a3.347 3.347 0 1 1-3.335-3.125 3.061 3.061 0 0 1 3.338 3.126Zm-4.712 0a1.383 1.383 0 1 0 1.374-1.586 1.411 1.411 0 0 0-1.374 1.614ZM9.341 98.828H5.035a1.429 1.429 0 0 0 1.448 1.143 2.093 2.093 0 0 0 1.466-.627l1.033 1.014a3.531 3.531 0 0 1-2.674 1.079 3.135 3.135 0 1 1-.059-6.26c2.161-.009 3.249 1.41 3.092 3.651Zm-1.844-1.06a1.143 1.143 0 0 0-1.18-1.236 1.309 1.309 0 0 0-1.268 1.236ZM13.056 101.354v-7.948h2.019v7.948ZM22.903 97.5v3.854h-1.955v-3.31a1.042 1.042 0 0 0-1.079-1.162 1.245 1.245 0 0 0-1.245 1.245v3.236h-1.963V95.25h1.964v1.033a2.25 2.25 0 0 1 2.038-1.088 2.148 2.148 0 0 1 2.241 2.305ZM29.017 95.841l-.673 1.272a4.435 4.435 0 0 0-1.927-.618c-.35 0-.609.138-.609.424 0 .839 3.227.433 3.218 2.563 0 1.263-1.106 1.955-2.582 1.955a4.518 4.518 0 0 1-2.766-.867l.627-1.245a3.9 3.9 0 0 0 2.167.756c.387 0 .673-.129.673-.415 0-.922-3.163-.433-3.153-2.582 0-1.254 1.06-1.936 2.48-1.936a5.026 5.026 0 0 1 2.546.692ZM36.854 98.321a2.766 2.766 0 0 1-2.831 3.107 2.277 2.277 0 0 1-1.844-.922v3.015h-1.991v-8.3h1.96v.8a2.231 2.231 0 0 1 1.844-.876 2.858 2.858 0 0 1 2.858 3.172Zm-1.973-.055a1.383 1.383 0 1 0-1.383 1.6 1.429 1.429 0 0 0 1.383-1.6ZM43.677 98.828h-4.306a1.429 1.429 0 0 0 1.475 1.143 2.093 2.093 0 0 0 1.466-.627l1.033 1.014a3.531 3.531 0 0 1-2.674 1.079 3.135 3.135 0 1 1-.055-6.261c2.127-.008 3.2 1.411 3.061 3.652Zm-1.844-1.06a1.143 1.143 0 0 0-1.18-1.236 1.309 1.309 0 0 0-1.272 1.236ZM50.177 99.972a2.821 2.821 0 0 1-2.158 1.374l-.286.553a.922.922 0 0 1 .775.922c0 .71-.59 1.171-1.42 1.171a1.982 1.982 0 0 1-1.079-.332l.36-.8a.922.922 0 0 0 .562.23.433.433 0 0 0 .47-.424c0-.231-.175-.406-.516-.406a2.286 2.286 0 0 0-.415.046l.443-.922a2.914 2.914 0 0 1-2.674-3.08 3 3 0 0 1 3.181-3.144 3.052 3.052 0 0 1 2.72 1.374l-1.41.845a1.448 1.448 0 0 0-1.236-.627c-.756 0-1.282.618-1.282 1.54s.526 1.558 1.282 1.558a1.355 1.355 0 0 0 1.254-.692ZM56.438 97.362v3.992h-1.915v-.7a2.25 2.25 0 0 1-1.844.793 1.89 1.89 0 0 1-2.093-1.918c0-1.162.821-1.844 2.351-1.844h1.6v-.092c0-.6-.4-.922-1.189-.922a4.389 4.389 0 0 0-1.844.507l-.562-1.291a6.454 6.454 0 0 1 2.84-.692c1.669-.046 2.641.784 2.656 2.167Zm-3.605-3.052h-1.227c0-1.2.4-1.77 1.2-1.77s.987.526 1.3.526.35-.157.35-.47h1.2c0 1.189-.387 1.761-1.18 1.761s-1-.535-1.319-.535-.324.156-.324.488Zm1.687 4.97v-.544h-1.254c-.59 0-.922.2-.922.655s.323.728.867.728a1.236 1.236 0 0 0 1.291-.839ZM64.009 98.293a3.347 3.347 0 1 1-3.338-3.126 3.061 3.061 0 0 1 3.338 3.126Zm-4.712 0a1.383 1.383 0 1 0 1.374-1.586 1.42 1.42 0 0 0-1.383 1.6ZM73.874 101.354H71.91v-.8a2.241 2.241 0 0 1-1.844.922 2.856 2.856 0 0 1-2.858-3.172c0-1.9 1.125-3.107 2.766-3.107a2.268 2.268 0 0 1 1.844.922V93.01h1.964Zm-1.964-3.043a1.383 1.383 0 1 0-1.383 1.383 1.383 1.383 0 0 0 1.383-1.383ZM81.267 98.828h-4.3a1.42 1.42 0 0 0 1.438 1.143 2.075 2.075 0 0 0 1.466-.627l1.033 1.014a3.5 3.5 0 0 1-2.665 1.079 3.135 3.135 0 1 1-.055-6.261c2.154-.008 3.232 1.411 3.083 3.652Zm-1.844-1.06a1.134 1.134 0 0 0-1.18-1.236 1.319 1.319 0 0 0-1.272 1.236ZM89.613 98.781a2.489 2.489 0 0 1-2.766 2.665 3.5 3.5 0 0 1-2.766-1.272l.922-1.346a2.573 2.573 0 0 0 1.669.922c.535 0 .857-.332.857-.977v-3.688h-2.766v-1.633h4.758ZM97.238 98.293a3.356 3.356 0 1 1-3.338-3.126 3.07 3.07 0 0 1 3.338 3.126Zm-4.712 0a1.383 1.383 0 1 0 1.374-1.586 1.411 1.411 0 0 0-1.374 1.6ZM104.145 100.801c0 1.733-1.346 2.84-3.319 2.84a4.9 4.9 0 0 1-2.766-.811l.673-1.328a3.421 3.421 0 0 0 1.9.618c.922 0 1.512-.5 1.512-1.263v-.645a2.121 2.121 0 0 1-1.761.821 2.683 2.683 0 0 1-2.637-2.969 2.619 2.619 0 0 1 2.591-2.9 2.13 2.13 0 0 1 1.844.821v-.747h1.955Zm-1.955-2.674a1.3 1.3 0 1 0-.569 1.306 1.3 1.3 0 0 0 .569-1.306ZM111.843 98.293a3.356 3.356 0 1 1-3.347-3.126 3.07 3.07 0 0 1 3.347 3.126Zm-4.721 0a1.383 1.383 0 1 0 1.374-1.586 1.42 1.42 0 0 0-1.392 1.6ZM117.588 95.841l-.664 1.272a4.426 4.426 0 0 0-1.936-.618c-.35 0-.6.138-.6.424 0 .839 3.227.433 3.218 2.563 0 1.263-1.106 1.955-2.582 1.955a4.5 4.5 0 0 1-2.766-.867l.627-1.245a3.9 3.9 0 0 0 2.167.756c.387 0 .673-.129.673-.415 0-.922-3.172-.433-3.163-2.582 0-1.254 1.07-1.936 2.489-1.936a4.988 4.988 0 0 1 2.537.693ZM81.5 36.397q0 11.784-9.331 15.214l12.42 17.519H71.118L60.21 53.51h-7.541v15.675h-10.9V20.123h18.542q11.433 0 16.311 3.854t4.878 12.42Zm-13.186 5.818q2.028-1.844 2.028-5.79c0-2.637-.7-4.453-2.1-5.431s-3.855-1.471-7.373-1.471h-8.211v14.518h7.994c3.753 0 6.3-.609 7.662-1.826ZM84.607 20.123v49.025h10.94V35.41ZM101.535 29.436v-9.313h25.31v31.709q0 8.695-4.481 13.01a15.914 15.914 0 0 1-11.507 4.306 20.681 20.681 0 0 1-15.306-6.74l5.634-7.791q4.38 4.73 9.22 4.73a5.136 5.136 0 0 0 3.891-1.789 7.613 7.613 0 0 0 1.632-5.32v-22.8ZM91.356 23.221c-.055 2.591 4.389 4.029 5.652.839 3.024-7.681 5.025-21.825 5.025-21.825S91.559 12.488 91.356 23.221Z" />
    <path
      d="M94.915 21.995 84.634 14.48l7.247 10.235s3.716-2.508 3.034-2.72ZM17.796 29.325a4.214 4.214 0 0 0-1.586 3.443 3.873 3.873 0 0 0 1.936 3.4q1.909 1.263 8.87 2.951t10.848 5.161q3.9 3.467 3.9 10.06a13.25 13.25 0 0 1-4.979 10.7q-4.933 4.1-13.019 4.1-11.645 0-20.976-8.63l6.519-8q7.939 6.961 14.67 6.952a7.7 7.7 0 0 0 4.739-1.3 4.177 4.177 0 0 0 1.724-3.5 4.094 4.094 0 0 0-1.844-3.513c-1.217-.867-3.633-1.743-7.229-2.628q-8.557-2.028-12.512-5.3t-3.97-10.245q0-6.989 5.016-10.779a20.148 20.148 0 0 1 12.5-3.79 30.049 30.049 0 0 1 9.82 1.687 26.343 26.343 0 0 1 8.621 4.767l-5.53 8.007a21.913 21.913 0 0 0-13.222-4.813 6.583 6.583 0 0 0-4.296 1.27Z" />
  </g>
</svg>
