<svg xmlns="http://www.w3.org/2000/svg" width="107" height="44" fill="none"><path fill="#fff" d="M35 1h4.812c1.955 0 3.439.377 4.431 1.121.993.744 1.494 1.753 1.494 3.027a3.26 3.26 0 0 1-.752 2.12c-.501.611-1.233 1.08-2.206 1.406 1.153.346 2.015.846 2.577 1.508q.842.994.842 2.354Q46.196 17 39.561 17h-.982c-.441 0-.902 0-1.373-.01-.482 0-.923-.01-1.334-.01H35V1m3.82 6.675h1.062c.481 0 .903-.153 1.283-.448q.572-.444.572-1.62c0-.663-.15-1.173-.451-1.54-.301-.366-.802-.55-1.494-.55h-.571c-.18 0-.311 0-.401.02zm0 6.706h1.132q.466 0 .873-.092c.27-.061.5-.173.701-.316.2-.153.361-.356.471-.611.12-.255.17-.581.17-.979q0-.442-.12-.856-.12-.413-.39-.733c-.18-.214-.431-.377-.732-.51-.3-.122-.672-.183-1.103-.183-.22 0-.411 0-.591.01-.18 0-.321.02-.431.03v4.23h.02zM48.283 1h9.965v2.843h-6.155v3.414h5.112l-.44 2.803h-4.672v4.025h6.476v2.844H48.273V1zM70.99 1l-.481 2.843h-3.61v8.683a22 22 0 0 0-1.884 1.886 23 23 0 0 0-1.935 2.507V3.843h-3.72V1H71z"/><path fill="#13F2E3" d="M11.328 20.8a8.2 8.2 0 0 1 3.197-2.68l.07-.03c.43-.2.892.22.721.66-2.495 6.54-4.51 17.201-3.918 20.341.44 2.38 1.323 2.81-.441 3.31-6.935 1.96-4.77-11-.591-20.21.01-.03.03-.06.05-.09l.912-1.29zM30.69 42.612c-3.358.12-8.379-4.28-11.706-9.27 10.703-4.11 18.22-25.84-.3-23.16C6.377 11.95-.618 22.11.043 27.22c.431 3.36 4.97 3.9 6.655.74.922-1.72-.401-.52-1.233-.8-1.313-.44-.752-2.96 1.343-6.1 2.134-3.2 6.013-5.93 8.498-6.78.602-.21 1.012-.3 1.253-.38 11.525-3.03 9.821 12.77 1.333 17.23-1.533.81-3.688 2.12-3.688 2.12s3.237 8.53 11.755 10.5c1.945.44 4.981.43 4.74-1.15zm21.747-19.17c.45-1.78-.992-2.45-.992-2.45l-4.11 8.33s-1.543 2.9-3.717 5.82c-1.834 2.46-1.834-5.06 0-11.4.25-.87.611-1.46.621-1.67.03-1.2-4.75-.6-5.161.75-.441 1.43-1.584 5.68-1.163 10.39.2 2.22.882 5.51 3.087 6.65 1.243.64 2.586.08 3.598-.72 1.573-1.25 2.736-3.03 3.718-4.77.12-.22.24-.43.36-.65 1.715-3.21 2.877-6.77 3.759-10.28m7.396 8.42c-1.032 1.98-2.215 3.71-3.017 3.19-.29-.18-.741-1.85-.59-4.12.15-2.19 1.102-5.25 2.224-7.06 0-.59-3.548-.73-4.56.6-1.593 1.44-3.317 13.08.561 13.77 1.824.32 4.21-.45 5.673-3.6.821-1.76.04-2.32-.281-2.77h-.01zm-23.772 2.35c-1.032 1.98-2.215 3.71-3.016 3.19-.29-.18-.742-1.85-.592-4.12.15-2.19 1.103-5.25 2.225-7.06 0-.59-3.547-.73-4.56.6-1.593 1.44-3.317 13.08.562 13.77 1.824.32 4.209-.45 5.672-3.6.822-1.76.04-2.32-.28-2.77h-.01zm37.903-4.17c-.23.01-2.496 2.18-3.378 2.73-2.315 1.45-4.89 1.69-4.82-1.97 3.858-1.23 7.526-3.77 8.108-7.6.29-1.93-.592-3.47-2.175-4.11-2.796-1.14-5.693.64-7.306 2.68-.792 1.01-1.423 2.16-1.924 3.28-.331.74-.582 1.47-.742 2.11-1.022 4.26-.25 9.32 3.768 10.31 3.167.78 6.204-1.32 7.988-4.27.741-1.22.681-2.58.46-3.16zm-7.507-3.05c3.959-11.2 7.968-1.76-.52 1.92.13-.68.31-1.34.52-1.92m39.616.97c-1.362 3.77-3.126 5.39-3.337 3.92-.26-1.48 1.584-10.28 1.564-10.29-.712-.39-3.227-.64-4.38 1.74-1.563 3.24-2.746 5.37-3.598 6.65-2.425 3.65-2.585.3-1.934-2.21.912-3.52 3.287-8.21 4.72-8.32 1.574-.12 1.253 1.2 1.253 1.2s-.02.48.471.11c1.433-1.07-.02-3.32-1.433-3.71-5.522-1.49-9.651 8.41-9.19 14.41.31 4 3.397 6.07 6.183 2.7 2.005-2.43 3.278-6.49 3.278-6.49s-.08.69-.23 2.06c-.402 3.62.901 5.3 2.294 5.55 2.165.38 4.52-.75 5.191-4.71.301-1.79-.37-2.65-.872-2.61zm-9.62-19.62c-4.57.48-6.685 2.97-8.058 5.11-.13.2-.07.47.13.6.902.58 3.789.48 7.527.28.24-1.5-.15-3.6-.15-3.6.981.52 1.743 2.35 2.124 3.42.952-.1 1.764-.19 2.475-.25.02-.36.01-.78-.05-1.25-.1-.75-.31-1.37-.5-1.83.38.22 1.051.7 1.573 1.55.32.53.481 1.04.551 1.4 1.463-.18 2.044-.11 2.305-.11h.842c.511 0-4.27-5.79-8.76-5.32zm-11.375 5.5c-1.243-1.63-4.43-3.58-7.537-3.96-4.229-.52-9.82 6.75-9.82 6.75s1.192-.19 3.196-.5c.07-.35.22-.86.551-1.4.441-.73.982-1.17 1.313-1.4-.17.38-.35.91-.42 1.56-.04.38-.04.73-.02 1.02l1.623-.25c.55-.09 1.092-.17 1.633-.25.23-.86.762-2.54 1.584-3.25 0 0-.13 1.76.11 2.99 1.022-.16 6.384-.48 7.526-.65.351-.05.491-.36.27-.65h-.01zm5.02 11.91s-1.723-3.83-2.364-9.64c-1.383-2.03-6.374 7.14-8.258 10.68.16-.62 1.363-5.86 1.573-6.69.14-.58 0-1.2-.41-1.64-.111-.12-.241-.23-.392-.31-.771.72-4.109 7.26-4.86 11.64-.31 1.8-.822 4.06.03 5.59.22.4.711.9 1.323 1.25.832.47 1.824.69 2.014.22.05-.11.08-.29.11-.51.1-.93 0-1.7.1-2.43.522-4.18 2.476-8.14 5.132-11.47.04-.06.19-1.86.19-1.86s.21 1.37.24 1.33c.482 1.24 1.103 2.12 1.755 2.73.831-.65 1.423-1.43 1.603-1.74v-.1c.08-.07.07-.03 0 .1l-.08.89c-.05.57-.2 1.12-.441 1.64 1.683.89 3.197.41 2.726.32zM75.599 0s.68 1.09 1.833 2.7c1.173-.15 2.816-.23 4.21.19 0 0-1.905.56-3.218 1.16.582.77 1.243 1.6 1.975 2.46 1.393-.12 3.648-.15 5.462.54 0 0-2.396.53-3.99 1.14 1.254 1.37 2.647 2.74 4.11 3.93.3.24.751.09.832-.28.17-.77.43-1.99.58-3.23C88.346 1.21 75.588 0 75.588 0zM59.571 20.34c.321-.76-.42-1.53-1.433-1.48-.862-.02-1.413.13-2.255.34l-.37.09-.882 1.32c-.16.39-.23.8 0 1.1.22.28.44.36.861.35.883-.11 2.316-.38 3.338-.35h.18l.571-1.36zm-23.771 2.24c.32-.76-.421-1.53-1.433-1.48-.862-.02-1.413.13-2.255.34l-.371.09-.882 1.32c-.16.39-.23.8 0 1.1.22.28.441.36.862.35.882-.11 2.315-.38 3.337-.35h.18l.572-1.36h-.01z"/></svg>