<svg width="96" height="60" viewBox="0 0 96 60" fill="none" xmlns="http://www.w3.org/2000/svg">
<path d="M26.747 39.0057C25.5387 40.2325 24.9337 42.0242 24.9337 44.3793C24.9337 46.3197 25.3289 47.8541 26.1175 48.9824C26.906 50.1106 27.9726 50.6739 29.3154 50.6739C30.104 50.6739 30.8088 50.4665 31.4312 50.052C32.0693 49.6372 32.6061 49.0393 33.0432 48.26H33.1446L33.0695 50.3007H36.4441V37.7374C34.7323 37.3399 33.2374 37.1395 31.9628 37.1395C29.6932 37.1395 27.9569 37.7616 26.747 39.0057ZM33.0171 44.604C32.58 45.5162 32.1112 46.2455 31.6077 46.7932C31.1041 47.3409 30.5919 47.6138 30.0726 47.6138C29.5357 47.6138 29.1161 47.3149 28.8136 46.7189C28.5111 46.1054 28.3608 45.2761 28.3608 44.2308C28.3608 42.9038 28.6125 41.8998 29.1161 41.2207C29.6373 40.5401 30.3995 40.2013 31.4066 40.2013C31.9434 40.2013 32.4803 40.2756 33.0188 40.426V44.604H33.0171Z" fill="#4C4C68"/>
<path d="M53.213 32.1393H52.3934C51.5006 32.1393 50.7767 32.8634 50.7767 33.7566C50.7767 34.6498 51.5006 35.3739 52.3934 35.3739H53.213C54.1059 35.3739 54.8297 34.6498 54.8297 33.7566C54.8297 32.8634 54.1059 32.1393 53.213 32.1393Z" fill="#4C4C68"/>
<path d="M20.0849 47.6398C18.8925 47.6398 17.9693 47.3253 17.3154 46.6947C16.677 46.0641 16.3588 45.169 16.3588 44.0078C16.3588 42.8639 16.6701 41.943 17.2908 41.2467C17.929 40.5503 18.7682 40.2013 19.8087 40.2013C20.2109 40.2013 20.6391 40.26 21.092 40.3758C21.5625 40.476 21.9907 40.6161 22.3754 40.7992L23.0556 37.8376C22.6867 37.6545 22.1569 37.4971 21.4697 37.3642C20.7983 37.2155 20.1513 37.1395 19.5306 37.1395C18.2053 37.1395 17.0373 37.4384 16.0302 38.0346C15.023 38.6152 14.2432 39.4445 13.689 40.5228C13.1347 41.5837 12.8584 42.8122 12.8584 44.2048C12.8584 46.2609 13.4459 47.8541 14.6208 48.9824C15.8134 50.1106 17.4832 50.6739 19.632 50.6739C20.8909 50.6739 22.066 50.4579 23.157 50.0277L22.6289 47.1906C21.7215 47.4895 20.8752 47.6398 20.0849 47.6398Z" fill="#4C4C68"/>
<path d="M64.7012 37.1395C63.7605 37.1395 62.9388 37.3469 62.234 37.7616C61.5294 38.1762 60.9087 38.8226 60.3702 39.7019V37.4886H56.8959V50.3024H60.4453V42.8622C60.7635 42.0985 61.2252 41.4696 61.8301 40.972C62.4351 40.4743 63.0715 40.2255 63.7431 40.2255C64.3131 40.2255 64.7676 40.4156 65.1033 40.7975C65.439 41.162 65.6069 41.677 65.6069 42.3405V50.3024H69.1563V41.7926C69.1563 40.3327 68.7612 39.1975 67.9727 38.3836C67.1859 37.5542 66.0947 37.1395 64.7012 37.1395Z" fill="#4C4C68"/>
<path d="M84.1691 40.3237C83.6323 39.311 82.8595 38.5319 81.8524 37.9841C80.8626 37.4208 79.7123 37.1374 78.4025 37.1374C77.0929 37.1374 75.9355 37.4191 74.9284 37.9841C73.9386 38.5473 73.1658 39.3439 72.6116 40.372C72.0748 41.3846 71.8055 42.5612 71.8055 43.9055C71.8055 45.2498 72.0817 46.4352 72.636 47.4632C73.1904 48.4757 73.9614 49.2637 74.9528 49.8269C75.9599 50.3902 77.1173 50.6736 78.4271 50.6736C79.7192 50.6736 80.8609 50.3919 81.8507 49.8269C82.8578 49.2464 83.6306 48.4411 84.1673 47.413C84.7216 46.3677 84.9979 45.1738 84.9979 43.8295C85.0014 42.506 84.7233 41.3362 84.1691 40.3237ZM80.569 46.6183C80.0322 47.299 79.3101 47.6377 78.4042 47.6377C77.4986 47.6377 76.7678 47.2974 76.2134 46.6183C75.6766 45.922 75.4074 45.0097 75.4074 43.8813C75.4074 42.753 75.6766 41.8581 76.2134 41.1946C76.7678 40.5138 77.4968 40.175 78.4042 40.175C79.3101 40.175 80.0322 40.5155 80.569 41.1946C81.1232 41.8581 81.3996 42.753 81.3996 43.8813C81.3996 45.0097 81.1232 45.922 80.569 46.6183Z" fill="#4C4C68"/>
<path d="M46.9823 43.4099C46.5119 43.1439 45.9245 42.8709 45.2199 42.5892C45.1359 42.5563 44.8421 42.4475 44.3386 42.2661C43.7004 42.0502 43.2475 41.8601 42.9783 41.6941C42.7089 41.5283 42.576 41.2796 42.576 40.9477C42.576 40.5987 42.7352 40.3344 43.0551 40.1513C43.3908 39.9681 43.835 39.8781 44.3893 39.8781C44.926 39.8781 45.4978 39.9699 46.101 40.1513C46.7217 40.3171 47.2761 40.5418 47.7622 40.8234L48.2411 37.8618C46.8651 37.3815 45.5556 37.1395 44.314 37.1395C42.7369 37.1395 41.4517 37.504 40.4621 38.2351C39.4883 38.9486 39.0022 39.9526 39.0022 41.2449C39.0022 42.0571 39.1875 42.7137 39.5564 43.2112C39.9254 43.7089 40.3363 44.0821 40.7909 44.331C41.2437 44.5624 41.8312 44.8113 42.5533 45.0774L43.2335 45.3261C43.9889 45.5922 44.5012 45.8151 44.7687 45.9983C45.038 46.1641 45.1709 46.4044 45.1709 46.7206C45.1709 47.1179 44.9785 47.4255 44.5921 47.6415C44.2057 47.8403 43.7283 47.9405 43.1565 47.9405C42.5516 47.9405 41.9063 47.8333 41.2175 47.6173C40.5286 47.4013 39.8991 47.1196 39.3291 46.7707L39.0022 49.7565C39.539 50.0381 40.186 50.2626 40.9413 50.4286C41.7141 50.5945 42.5114 50.6774 43.3332 50.6774C44.961 50.6774 46.2707 50.3371 47.2603 49.658C48.25 48.9772 48.7466 47.9578 48.7466 46.5979C48.7466 45.7857 48.5699 45.1222 48.2185 44.6074C47.8636 44.0734 47.4526 43.6744 46.9823 43.4099Z" fill="#4C4C68"/>
<path d="M54.3606 37.4888H50.806V40.4987H50.8095V47.291V50.3026H54.3606V47.291V37.4888Z" fill="#4C4C68"/>
<path d="M58.3794 12.4517C57.2281 12.4517 56.2086 12.6934 55.3228 13.1745C54.437 13.6349 53.6503 14.3666 52.9653 15.3742V8.16845C52.9653 6.8898 51.9158 5.85479 50.6239 5.85479C49.332 5.85479 48.2826 6.89209 48.2826 8.16845V29.8174H52.9653V19.5755C53.4312 18.6568 54.0286 17.9228 54.7598 17.3756C55.512 16.8058 56.2985 16.5231 57.1174 16.5231C57.8694 16.5231 58.4693 16.7739 58.9122 17.2777C59.3551 17.7586 59.5765 18.438 59.5765 19.1333V29.8174H64.2592V18.5906C64.2592 16.6645 63.738 15.1668 62.6974 14.093C61.6571 12.9989 60.2178 12.4517 58.3794 12.4517Z" fill="#F98323"/>
<path d="M18.3345 12.4519C17.5456 12.4519 16.8075 12.5727 16.1224 12.8144C16.5767 12.0167 16.526 11.3258 16.6598 10.4573C16.8166 9.44521 15.6932 8.53105 15.112 8.20288C15.2159 8.31227 15.4558 8.66784 15.5873 9.2036C15.7186 9.73935 15.3864 10.0175 15.202 10.0904C15.1536 9.85331 14.7867 8.92544 13.7142 7.11333C12.3739 4.84738 9.95405 2.97132 7.49047 1.77911C5.52047 0.821695 2.48709 0.306516 1.21606 0.167461C1.58975 0.393136 2.61397 1.07016 3.7166 1.97515C5.09373 3.10809 6.05796 4.96592 6.67155 6.92401C7.1629 8.49245 6.91608 10.3594 6.73155 11.0956L10.2609 13.7902C9.95862 13.8288 8.76841 13.7902 8.24015 13.6305C7.472 13.4004 6.77766 12.7984 6.51009 12.7187C6.69925 13.0994 6.7223 14.85 8.00949 15.7962C9.29658 16.7421 10.5099 17.1639 11.4327 17.7337C11.8941 18.1897 12.5077 18.9874 12.5077 21.0391C12.5077 22.5596 12.1616 26.0541 12.0717 27.0799C13.1996 23.7745 13.3428 21.096 13.4304 19.2153C13.5412 16.8652 12.8467 14.5856 11.4327 11.0888C10.3024 8.29172 7.99104 4.50318 6.97835 2.95764C7.71422 3.78511 9.04752 5.3808 10.8953 8.2006C12.7431 11.0228 13.0866 12.2628 13.7788 14.3143C13.7857 14.2983 13.7948 14.2962 13.8064 14.3029L14.6853 17.6926C14.8445 17.5263 15.0104 17.3758 15.1812 17.2436C15.8017 16.7398 16.466 16.4891 17.1741 16.4891C18.0371 16.4891 18.7014 16.8834 19.1673 17.67C19.6541 18.4585 19.8986 19.562 19.8986 20.9843C19.8986 22.7124 19.534 24.0253 18.8028 24.9234C18.0946 25.8216 17.0543 26.2683 15.6795 26.2683C15.5387 26.2683 15.4026 26.2637 15.2643 26.2569C15.0497 26.1977 14.8214 26.1658 14.586 26.1658C13.3126 26.1658 12.2794 27.0845 12.2794 28.2174C12.2794 29.3253 13.2665 30.2234 14.4984 30.2643C14.4776 30.2963 14.5906 30.3054 15.1789 30.3054C18.2124 30.3054 20.5375 29.4849 22.1545 27.8436C23.7717 26.2023 24.5789 23.827 24.5789 20.7198C24.5789 18.1166 24.0253 16.0924 22.9181 14.6472C21.8109 13.1859 20.2837 12.4519 18.3345 12.4519Z" fill="url(#paint0_linear_5633_35846)"/>
<path d="M44.0606 16.901C43.3525 15.5651 42.3329 14.5372 41.0043 13.8144C39.6987 13.0713 38.1808 12.6974 36.4529 12.6974C34.7252 12.6974 33.1982 13.069 31.8695 13.8144C30.5637 14.5575 29.5442 15.6085 28.813 16.9647C28.7737 17.0401 28.7392 17.1175 28.7022 17.1949L28.7139 17.2018C28.5038 17.5485 28.3817 17.954 28.3817 18.3873C28.3817 19.6661 29.4312 20.7032 30.7253 20.7032C31.7819 20.7032 32.6767 20.0103 32.9674 19.0598C33.1267 18.6883 33.3228 18.3484 33.565 18.05C34.2962 17.1518 35.258 16.7049 36.4554 16.7049C37.6502 16.7049 38.6029 17.1541 39.311 18.05C39.6179 18.4169 39.8555 18.8385 40.0331 19.3128H40.0493C40.4114 20.1311 41.2348 20.7032 42.1969 20.7032C43.491 20.7032 44.5405 19.6661 44.5405 18.3873C44.5405 17.9723 44.4297 17.5848 44.2359 17.2498C44.1807 17.1335 44.1229 17.015 44.0606 16.901Z" fill="#F98323"/>
<path d="M83.1972 16.901C82.489 15.5651 81.4695 14.5372 80.1409 13.8144C78.8353 13.0713 77.3174 12.6974 75.5895 12.6974C73.8618 12.6974 72.3348 13.069 71.0061 13.8144C69.7003 14.5575 68.6808 15.6085 67.9496 16.9647C67.9103 17.0401 67.8758 17.1175 67.8388 17.1949L67.8505 17.2018C67.6404 17.5485 67.5183 17.954 67.5183 18.3873C67.5183 19.6661 68.5678 20.7032 69.8619 20.7032C70.9184 20.7032 71.8133 20.0103 72.104 19.0598C72.2633 18.6883 72.4594 18.3484 72.7016 18.05C73.4328 17.1518 74.3946 16.7049 75.592 16.7049C76.7868 16.7049 77.7395 17.1541 78.4476 18.05C78.7545 18.4169 78.9921 18.8385 79.1697 19.3128H79.1859C79.548 20.1311 80.3714 20.7032 81.3334 20.7032C82.6276 20.7032 83.6771 19.6661 83.6771 18.3873C83.6771 17.9723 83.5663 17.5848 83.3725 17.2498C83.3173 17.1335 83.2595 17.015 83.1972 16.901Z" fill="#F98323"/>
<path d="M42.1599 22.5706C41.2163 22.5706 40.4046 23.1289 40.0423 23.9269L40.0286 23.92C39.851 24.3964 39.6156 24.8273 39.3133 25.2057C38.6052 26.1039 37.6525 26.5506 36.4577 26.5506C35.2628 26.5506 34.2985 26.1016 33.5673 25.2057C33.3134 24.8773 33.1105 24.5103 32.9468 24.1091C32.6352 23.1906 31.7611 22.5295 30.7253 22.5295C29.4312 22.5295 28.3817 23.5667 28.3817 24.8456C28.3817 25.2535 28.4899 25.6364 28.6769 25.9694L28.6723 25.9717C28.7299 26.0902 28.7853 26.2087 28.8454 26.3227C29.5766 27.6584 30.5938 28.698 31.9017 29.4411C33.2303 30.1842 34.7576 30.558 36.4853 30.558C38.1899 30.558 39.6964 30.1865 41.002 29.4411C42.3306 28.6751 43.3502 27.613 44.0583 26.2565C44.1161 26.1493 44.1645 26.04 44.2174 25.9306L44.2152 25.9283C44.3836 25.609 44.4804 25.2489 44.4804 24.8659C44.4829 23.5985 43.4424 22.5706 42.1599 22.5706Z" fill="#F98323"/>
<path d="M81.2965 22.5706C80.3529 22.5706 79.5412 23.1289 79.1789 23.9269L79.1652 23.92C78.9876 24.3964 78.7522 24.8273 78.4499 25.2057C77.7418 26.1039 76.7891 26.5506 75.5943 26.5506C74.3994 26.5506 73.4351 26.1016 72.7039 25.2057C72.45 24.8773 72.2471 24.5103 72.0834 24.1091C71.7718 23.1906 70.8977 22.5295 69.8619 22.5295C68.5678 22.5295 67.5183 23.5667 67.5183 24.8456C67.5183 25.2535 67.6265 25.6364 67.8135 25.9694L67.8089 25.9717C67.8665 26.0902 67.9219 26.2087 67.982 26.3227C68.7132 27.6584 69.7304 28.698 71.0383 29.4411C72.3669 30.1842 73.8942 30.558 75.6219 30.558C77.3265 30.558 78.833 30.1865 80.1386 29.4411C81.4672 28.6751 82.4868 27.613 83.1949 26.2565C83.2527 26.1493 83.3011 26.04 83.354 25.9306L83.3518 25.9283C83.5202 25.609 83.617 25.2489 83.617 24.8659C83.6195 23.5985 82.579 22.5706 81.2965 22.5706Z" fill="#F98323"/>
<defs>
<linearGradient id="paint0_linear_5633_35846" x1="1.20644" y1="3.91304" x2="29.717" y2="14.0169" gradientUnits="userSpaceOnUse">
<stop stop-color="#FF2828"/>
<stop offset="1" stop-color="#FF8704"/>
</linearGradient>
</defs>
</svg>
