<svg width="138" height="62" viewBox="0 0 138 62" fill="none" xmlns="http://www.w3.org/2000/svg">
<g id="Group 48096683">
<g id="Group 48096679">
<g id="Ex-Union-35:230684">
<g id="Union">
<path d="M137.952 4.3926H132.915V20.1593L114.737 3.12109V29.8228H119.774V14.0561L137.952 31.0943V4.3926Z" fill="#9C9C9C"/>
<path fill-rule="evenodd" clip-rule="evenodd" d="M49.2763 11.8036C48.5949 13.4021 48.2542 15.1701 48.2542 17.1076C48.2542 19.021 48.5827 20.8011 49.2398 22.448C49.8968 24.0707 50.8337 25.4875 52.0505 26.6985C52.5396 27.1852 53.062 27.6289 53.6179 28.0295C54.4451 28.6257 55.3462 29.1265 56.3213 29.5321C57.9761 30.186 59.7891 30.513 61.7603 30.513C63.7314 30.513 65.5323 30.186 67.1627 29.5321C68.8175 28.854 70.2411 27.9094 71.4336 26.6985C72.6503 25.4875 73.5873 24.0707 74.2443 22.448C74.9257 20.8011 75.2664 19.021 75.2664 17.1076C75.2664 15.1701 74.9257 13.4021 74.2443 11.8036C73.5873 10.1809 72.6382 8.7762 71.3971 7.58946C70.9571 7.16033 70.4901 6.76761 69.996 6.41132C69.1237 5.7823 68.1671 5.26679 67.1262 4.86479C65.4958 4.21087 63.7071 3.88391 61.7603 3.88391C59.8378 3.88391 58.0491 4.21087 56.3943 4.86479C54.7639 5.49449 53.3403 6.40272 52.1235 7.58946C50.9067 8.7762 49.9577 10.1809 49.2763 11.8036ZM57.0768 24.0627C56.1297 23.3775 55.3668 22.5002 54.7882 21.4308C54.1068 20.1714 53.7661 18.7303 53.7661 17.1076C53.7661 15.4849 54.1068 14.0439 54.7882 12.7845C55.4696 11.5251 56.4065 10.5321 57.5989 9.80552C58.7914 9.07895 60.1785 8.71566 61.7603 8.71566C63.3664 8.71566 64.7657 9.07895 65.9581 9.80552C66.1346 9.91303 66.3051 10.0264 66.4698 10.1455C67.4184 10.8318 68.1725 11.7114 68.7324 12.7845C69.3894 14.0439 69.7179 15.4849 69.7179 17.1076C69.7179 18.7303 69.3772 20.1714 68.6959 21.4308C68.0388 22.6902 67.1141 23.6832 65.9216 24.4097C64.7292 25.1363 63.3421 25.4996 61.7603 25.4996C60.1785 25.4996 58.7914 25.1363 57.5989 24.4097C57.4191 24.3001 57.245 24.1845 57.0768 24.0627Z" fill="#9C9C9C"/>
<path fill-rule="evenodd" clip-rule="evenodd" d="M33.028 20.5951H35.305L41.2776 29.8227H47.4467L40.533 19.9846C40.8819 19.8662 41.2152 19.7307 41.5332 19.5779C42.9446 18.8998 44.0275 17.9552 44.7819 16.7443C45.5363 15.5091 45.9135 14.0923 45.9135 12.4938C45.9135 10.8711 45.5363 9.45429 44.7819 8.24332C44.2835 7.44321 43.6416 6.7594 42.8563 6.19189C42.4531 5.90048 42.012 5.63974 41.5332 5.40967C40.1217 4.73153 38.4061 4.39246 36.3862 4.39246H27.808V29.8227H33.028V20.5951ZM33.028 16.4537V8.82459H36.0577C36.9825 8.82459 37.7734 8.98201 38.4304 9.29686C38.6958 9.41006 38.9372 9.5453 39.1546 9.70259C39.4954 9.94913 39.7772 10.2498 40 10.6047C40.3651 11.1617 40.5476 11.8399 40.5476 12.6391C40.5476 13.4384 40.3651 14.1286 40 14.7099C39.635 15.2669 39.1118 15.7029 38.4304 16.0177C37.7734 16.3083 36.9825 16.4537 36.0577 16.4537H33.028Z" fill="#9C9C9C"/>
<path d="M10.6043 23.8208C9.75521 23.2064 9.03735 22.434 8.45069 21.5034C7.69629 20.244 7.3191 18.7788 7.3191 17.1076C7.3191 15.4123 7.69629 13.947 8.45069 12.7118C9.22942 11.4767 10.2393 10.5321 11.4804 9.87818C12.7215 9.20004 14.0721 8.86097 15.5323 8.86097C16.749 8.86097 17.832 9.0184 18.781 9.33325C19.7301 9.6481 20.5818 10.0719 21.3362 10.6048C21.4944 10.713 21.648 10.8231 21.7971 10.9353C22.3822 11.3756 22.8978 11.8467 23.3439 12.3485V6.49959C23.1801 6.37071 23.014 6.24628 22.8454 6.12629C21.9371 5.47968 20.9595 4.9623 19.9126 4.57416C18.6959 4.114 17.1506 3.88391 15.2767 3.88391C13.3299 3.88391 11.5169 4.19876 9.8378 4.82846C8.183 5.45816 6.73505 6.36639 5.49395 7.55313C4.27718 8.73988 3.3281 10.1446 2.64671 11.7673C1.98966 13.3658 1.66113 15.1459 1.66113 17.1076C1.66113 19.0694 1.98966 20.8616 2.64671 22.4843C3.3281 24.0828 4.27718 25.4754 5.49395 26.6621C5.91792 27.0675 6.36603 27.4404 6.83827 27.7808C7.74845 28.4369 8.74829 28.9722 9.8378 29.3868C11.5169 30.0165 13.3299 30.3314 15.2767 30.3314C17.1506 30.3314 18.6959 30.1013 19.9126 29.6411C21.1537 29.1809 22.2975 28.5391 23.3439 27.7157V21.8667C22.7842 22.4964 22.115 23.0777 21.3362 23.6105C20.5818 24.1433 19.7301 24.5672 18.781 24.882C17.832 25.1969 16.749 25.3543 15.5323 25.3543C14.0721 25.3543 12.7215 25.0273 11.4804 24.3734C11.1743 24.2062 10.8823 24.0219 10.6043 23.8208Z" fill="#9C9C9C"/>
</g>
<path id="72 71" d="M3.87848 6.38477C2.66172 7.57151 1.71264 8.97623 1.03125 10.5989L2.64696 11.7672C3.32835 10.1445 4.27742 8.73979 5.49419 7.55305L3.87848 6.38477Z" fill="#9C9C9C"/>
<path id="71 70" d="M8.22179 3.66016C6.56698 4.28986 5.11903 5.19808 3.87793 6.38482L5.49364 7.5531C6.73474 6.36636 8.18269 5.45814 9.83749 4.82844L8.22179 3.66016Z" fill="#9C9C9C"/>
<path id="73 72" d="M1.03148 10.5996C0.374425 12.1981 0.0458984 13.9782 0.0458984 15.94L1.66161 17.1082C1.66161 15.1465 1.99013 13.3664 2.64719 11.7679L1.03148 10.5996Z" fill="#9C9C9C"/>
<path id="70 69" d="M13.6606 2.71582C11.7138 2.71582 9.90082 3.03067 8.22168 3.66037L9.83739 4.82866C11.5165 4.19895 13.3295 3.8841 15.2763 3.8841L13.6606 2.71582Z" fill="#9C9C9C"/>
<path id="74 73" d="M0.0458984 15.9395C0.0458984 17.9012 0.374425 19.6934 1.03148 21.3161L2.64719 22.4844C1.99013 20.8617 1.66161 19.0695 1.66161 17.1077L0.0458984 15.9395Z" fill="#9C9C9C"/>
<path id="62 61" d="M6.83496 11.5436C7.61369 10.3084 8.62361 9.36388 9.86471 8.70996L11.4804 9.87824C10.2393 10.5322 9.2294 11.4767 8.45067 12.7119L6.83496 11.5436Z" fill="#9C9C9C"/>
<path id="61 59" d="M5.7041 15.9397C5.7041 14.2444 6.0813 12.7791 6.83569 11.5439L8.4514 12.7122C7.69701 13.9474 7.31981 15.4127 7.31981 17.108L5.7041 15.9397Z" fill="#9C9C9C"/>
<path id="63 62" d="M9.86621 8.71057C11.1073 8.03243 12.4579 7.69336 13.918 7.69336L15.5337 8.86164C14.0736 8.86164 12.723 9.20071 11.4819 9.87885L9.86621 8.71057Z" fill="#9C9C9C"/>
<path id="69 68" d="M18.297 3.40607C17.0802 2.9459 15.535 2.71582 13.6611 2.71582L15.2768 3.8841C17.1507 3.8841 18.696 4.11419 19.9127 4.57435L18.297 3.40607Z" fill="#9C9C9C"/>
<path id="59 60" d="M6.83569 20.3352C6.0813 19.0758 5.7041 17.6106 5.7041 15.9395L7.31981 17.1077C7.31981 18.7789 7.69701 20.2441 8.4514 21.5035L6.83569 20.3352Z" fill="#9C9C9C"/>
<path id="75 74" d="M1.03125 21.3164C1.71264 22.9149 2.66172 24.3075 3.87848 25.4942L5.49419 26.6625C4.27742 25.4758 3.32835 24.0832 2.64696 22.4847L1.03125 21.3164Z" fill="#9C9C9C"/>
<path id="64 63" d="M13.916 7.69336C15.1328 7.69336 16.2157 7.85079 17.1648 8.16564L18.7805 9.33392C17.8314 9.01907 16.7485 8.86164 15.5317 8.86164L13.916 7.69336Z" fill="#9C9C9C"/>
<path id="68 92" d="M21.2297 4.95838C20.3213 4.31177 19.3437 3.79439 18.2969 3.40625L19.9126 4.57453C20.9594 4.96267 21.937 5.48005 22.8454 6.12666L21.2297 4.95838Z" fill="#9C9C9C"/>
<path id="93 75" d="M5.22226 26.6128C4.75001 26.2724 4.3019 25.8995 3.87793 25.4941L5.49364 26.6624C5.90848 27.0591 6.34644 27.4247 6.80751 27.7591L6.83797 27.7811C6.8278 27.7738 6.81765 27.7665 6.80751 27.7591L5.22226 26.6128Z" fill="#9C9C9C"/>
<path id="60 94" d="M8.98855 22.6533C8.13948 22.0389 7.42162 21.2665 6.83496 20.3359L8.45067 21.5042C9.03732 22.4347 9.75519 23.2072 10.6043 23.8216L8.98855 22.6533Z" fill="#9C9C9C"/>
<path id="65 64" d="M17.166 8.16504C18.1151 8.47989 18.9668 8.90373 19.7212 9.43655L21.3369 10.6048C20.5825 10.072 19.7308 9.64817 18.7817 9.33332L17.166 8.16504Z" fill="#9C9C9C"/>
<path id="92 67" d="M21.2305 4.95801C21.2821 4.99475 21.3335 5.03192 21.3847 5.0695L22.8462 6.12629C23.0147 6.24627 23.1809 6.37071 23.3447 6.49959L21.729 5.33131C21.6153 5.2419 21.5006 5.15463 21.3847 5.0695L21.2305 4.95801Z" fill="#9C9C9C"/>
<path id="94 84" d="M9.86444 23.2059C9.55995 23.0396 9.26938 22.8564 8.99272 22.6565L10.604 23.8216C10.882 24.0228 11.174 24.207 11.4801 24.3742L9.86444 23.2059Z" fill="#9C9C9C"/>
<path id="76 93" d="M5.22363 26.6133C6.13381 27.2693 7.13365 27.8047 8.22316 28.2192L9.83887 29.3875C8.74936 28.9729 7.74952 28.4376 6.83934 27.7816L5.22363 26.6133Z" fill="#9C9C9C"/>
<path id="91 65" d="M19.7207 9.43652C19.8788 9.54472 20.0324 9.65491 20.1815 9.7671L21.4155 10.6594C21.5459 10.75 21.6731 10.842 21.7972 10.9354L21.4155 10.6594C21.3893 10.6411 21.3629 10.6229 21.3364 10.6048L19.7207 9.43652Z" fill="#9C9C9C"/>
<path id="67 66" d="M21.7295 11.18V5.33105L23.3452 6.49934V12.3483L21.7295 11.18Z" fill="#9C9C9C"/>
<path id="66 91" d="M20.1807 9.76758C20.7658 10.2079 21.2814 10.679 21.7275 11.1808L23.3432 12.3491C22.8971 11.8472 22.3815 11.3762 21.7964 10.9359L20.1807 9.76758Z" fill="#9C9C9C"/>
<path id="84 83" d="M13.918 24.186C12.4579 24.186 11.1073 23.859 9.86621 23.2051L11.4819 24.3734C12.723 25.0273 14.0736 25.3542 15.5337 25.3542L13.918 24.186Z" fill="#9C9C9C"/>
<path id="77 76" d="M8.22168 28.2188C9.90082 28.8485 11.7138 29.1633 13.6606 29.1633L15.2763 30.3316C13.3295 30.3316 11.5165 30.0167 9.83739 29.387L8.22168 28.2188Z" fill="#9C9C9C"/>
<path id="47 46" d="M34.7696 3.22461H26.1914L27.8071 4.39289H36.3853L34.7696 3.22461Z" fill="#9C9C9C"/>
<path id="83 82" d="M17.1648 23.7139C16.2157 24.0287 15.1328 24.1861 13.916 24.1861L15.5317 25.3544C16.7485 25.3544 17.8314 25.197 18.7805 24.8821L17.1648 23.7139Z" fill="#9C9C9C"/>
<path id="82 81" d="M19.7212 22.4424C18.9668 22.9752 18.1151 23.399 17.166 23.7139L18.7817 24.8822C19.7308 24.5673 20.5825 24.1435 21.3369 23.6107L19.7212 22.4424Z" fill="#9C9C9C"/>
<path id="81 80" d="M21.7284 20.6992C21.1687 21.3289 20.4994 21.9102 19.7207 22.443L21.3364 23.6113C22.1151 23.0785 22.7844 22.4972 23.3441 21.8675L21.7284 20.6992Z" fill="#9C9C9C"/>
<path id="78 77" d="M13.6611 29.1639C15.535 29.1639 17.0802 28.9338 18.297 28.4736L19.9127 29.6419C18.696 30.1021 17.1507 30.3322 15.2768 30.3322L13.6611 29.1639Z" fill="#9C9C9C"/>
<path id="48 47" d="M26.1914 3.22461V28.6548L27.8071 29.8231V4.39289L26.1914 3.22461Z" fill="#9C9C9C"/>
<path id="52 50" d="M31.4131 7.65625H34.4428L36.0585 8.82453H33.0288L31.4131 7.65625Z" fill="#9C9C9C"/>
<path id="80 79" d="M21.7295 26.5482V20.6992L23.3452 21.8675V27.7165L21.7295 26.5482Z" fill="#9C9C9C"/>
<path id="50 51" d="M31.4131 15.2853V7.65625L33.0288 8.82453V16.4536L31.4131 15.2853Z" fill="#9C9C9C"/>
<path id="46 45" d="M39.9184 4.24182C38.507 3.56368 36.7913 3.22461 34.7715 3.22461L36.3872 4.39289C38.407 4.39289 40.1227 4.73196 41.5341 5.4101L39.9184 4.24182Z" fill="#9C9C9C"/>
<path id="79 78" d="M18.2969 28.4733C19.538 28.0131 20.6817 27.3713 21.7282 26.5479L23.3439 27.7161C22.2974 28.5396 21.1537 29.1814 19.9126 29.6416L18.2969 28.4733Z" fill="#9C9C9C"/>
<path id="53 52" d="M34.4414 7.65625C35.3661 7.65625 36.157 7.81368 36.8141 8.12853L38.4298 9.29681C37.7728 8.98196 36.9819 8.82453 36.0571 8.82453L34.4414 7.65625Z" fill="#9C9C9C"/>
<path id="90 53" d="M36.8154 8.12891C37.0808 8.2421 37.3222 8.37735 37.5396 8.53463L39.1539 9.70185C38.9368 9.54502 38.6959 9.41013 38.4311 9.29719L36.8154 8.12891Z" fill="#9C9C9C"/>
<path id="45 89" d="M41.2411 5.02343C40.8379 4.73203 40.3968 4.47129 39.918 4.24121L41.5337 5.40949C42.0125 5.63957 42.4536 5.90031 42.8568 6.19171L41.2411 5.02343Z" fill="#9C9C9C"/>
<path id="51 58" d="M34.4428 15.2861H31.4131L33.0288 16.4544H36.0585L34.4428 15.2861Z" fill="#9C9C9C"/>
<path id="54 90" d="M37.5391 8.53418C37.8798 8.78072 38.1616 9.08143 38.3845 9.43629L40.0002 10.6046C39.7774 10.2497 39.4955 9.949 39.1548 9.70246L37.5391 8.53418Z" fill="#9C9C9C"/>
<path id="55 54" d="M38.3848 9.43652C38.7498 9.99357 38.9323 10.6717 38.9323 11.4709L40.548 12.6392C40.548 11.84 40.3655 11.1618 40.0005 10.6048L38.3848 9.43652Z" fill="#9C9C9C"/>
<path id="89 44" d="M43.1658 7.07487C42.6681 6.27592 42.0274 5.59294 41.2437 5.02592L42.8559 6.19172C43.6412 6.75923 44.2831 7.44304 44.7816 8.24315L43.1658 7.07487Z" fill="#9C9C9C"/>
<path id="58 57" d="M36.8141 14.8496C36.157 15.1402 35.3661 15.2856 34.4414 15.2856L36.0571 16.4538C36.9819 16.4538 37.7728 16.3085 38.4298 16.0179L36.8141 14.8496Z" fill="#9C9C9C"/>
<path id="36 37" d="M31.4131 19.4268H33.6902L35.3059 20.595H33.0288L31.4131 19.4268Z" fill="#9C9C9C"/>
<path id="56 55" d="M38.9323 11.4707C38.9323 12.2699 38.7498 12.9602 38.3848 13.5415L40.0005 14.7097C40.3655 14.1285 40.548 13.4382 40.548 12.639L38.9323 11.4707Z" fill="#9C9C9C"/>
<path id="57 56" d="M38.3851 13.542C38.02 14.099 37.4968 14.535 36.8154 14.8498L38.4311 16.0181C39.1125 15.7033 39.6357 15.2673 40.0008 14.7103L38.3851 13.542Z" fill="#9C9C9C"/>
<path id="37 49" d="M31.4131 28.6543V19.4268L33.0288 20.595V29.8226L31.4131 28.6543Z" fill="#9C9C9C"/>
<path id="49 48" d="M26.1914 28.6543H31.4113L33.027 29.8226H27.8071L26.1914 28.6543Z" fill="#9C9C9C"/>
<path id="44 43" d="M44.2986 11.3257C44.2986 9.70299 43.9214 8.28616 43.167 7.0752L44.7827 8.24348C45.5371 9.45444 45.9143 10.8713 45.9143 12.494L44.2986 11.3257Z" fill="#9C9C9C"/>
<path id="41 40" d="M38.918 18.8168C39.2668 18.6985 39.6001 18.5629 39.9181 18.4102L41.5338 19.5784C41.2159 19.7312 40.8825 19.8667 40.5337 19.9851L38.918 18.8168Z" fill="#9C9C9C"/>
<path id="43 42" d="M43.167 15.5757C43.9214 14.3405 44.2986 12.9237 44.2986 11.3252L45.9143 12.4935C45.9143 14.0919 45.5371 15.5088 44.7827 16.744L43.167 15.5757Z" fill="#9C9C9C"/>
<path id="42 41" d="M39.918 18.4098C41.3294 17.7317 42.4123 16.7871 43.1667 15.5762L44.7824 16.7445C44.028 17.9554 42.9451 18.9 41.5337 19.5781L39.918 18.4098Z" fill="#9C9C9C"/>
<path id="38 36" d="M33.6885 19.4268L39.6611 28.6543L41.2768 29.8226L35.3042 20.595L33.6885 19.4268Z" fill="#9C9C9C"/>
<path id="21 35" d="M50.5084 6.4209C49.2916 7.60764 48.3425 9.01236 47.6611 10.6351L49.2768 11.8033C49.9582 10.1806 50.9073 8.77592 52.1241 7.58918L50.5084 6.4209Z" fill="#9C9C9C"/>
<path id="35 34" d="M54.7787 3.69727C53.1482 4.32697 51.7246 5.23519 50.5078 6.42193L52.1235 7.59021C53.3403 6.40347 54.7639 5.49525 56.3944 4.86555L54.7787 3.69727Z" fill="#9C9C9C"/>
<path id="20 21" d="M47.6608 10.6357C46.9794 12.2342 46.6387 14.0022 46.6387 15.9398L48.2544 17.108C48.2544 15.1705 48.5951 13.4025 49.2765 11.804L47.6608 10.6357Z" fill="#9C9C9C"/>
<path id="40 39" d="M45.8316 28.6545L38.918 18.8164L40.5337 19.9847L47.4473 29.8228L45.8316 28.6545Z" fill="#9C9C9C"/>
<path id="34 33" d="M60.1452 2.71582C58.2227 2.71582 56.4341 3.04278 54.7793 3.6967L56.395 4.86498C58.0498 4.21106 59.8385 3.8841 61.7609 3.8841L60.1452 2.71582Z" fill="#9C9C9C"/>
<path id="22 20" d="M46.6387 15.9395C46.6387 17.8528 46.9672 19.6329 47.6243 21.2798L49.24 22.4481C48.5829 20.8012 48.2544 19.0211 48.2544 17.1077L46.6387 15.9395Z" fill="#9C9C9C"/>
<path id="11 10" d="M53.1729 11.6167C53.8542 10.3573 54.7912 9.36427 55.9836 8.6377L57.5993 9.80598C56.4069 10.5326 55.4699 11.5255 54.7886 12.7849L53.1729 11.6167Z" fill="#9C9C9C"/>
<path id="10 8" d="M52.1504 15.9394C52.1504 14.3167 52.4911 12.8756 53.1725 11.6162L54.7882 12.7845C54.1068 14.0439 53.7661 15.4849 53.7661 17.1076L52.1504 15.9394Z" fill="#9C9C9C"/>
<path id="39 38" d="M39.6631 28.6543H45.8321L47.4478 29.8226H41.2788L39.6631 28.6543Z" fill="#9C9C9C"/>
<path id="12 11" d="M55.9824 8.63772C57.1749 7.91114 58.562 7.54785 60.1438 7.54785L61.7595 8.71613C60.1777 8.71613 58.7906 9.07942 57.5981 9.806L55.9824 8.63772Z" fill="#9C9C9C"/>
<path id="33 32" d="M65.5105 3.6967C63.88 3.04278 62.0914 2.71582 60.1445 2.71582L61.7602 3.8841C63.7071 3.8841 65.4957 4.21106 67.1262 4.86498L65.5105 3.6967Z" fill="#9C9C9C"/>
<path id="8 9" d="M53.1725 20.2626C52.4911 19.0032 52.1504 17.5621 52.1504 15.9395L53.7661 17.1077C53.7661 18.7304 54.1068 20.1715 54.7882 21.4309L53.1725 20.2626Z" fill="#9C9C9C"/>
<path id="23 22" d="M47.624 21.2803C48.2811 22.903 49.218 24.3198 50.4348 25.5308L52.0505 26.699C50.8337 25.4881 49.8968 24.0712 49.2397 22.4486L47.624 21.2803Z" fill="#9C9C9C"/>
<path id="13 12" d="M60.1445 7.54785C61.7507 7.54785 63.1499 7.91114 64.3424 8.63772L65.9581 9.806C64.7657 9.07942 63.3664 8.71613 61.7602 8.71613L60.1445 7.54785Z" fill="#9C9C9C"/>
<path id="9 86" d="M55.4614 22.8947C54.5143 22.2094 53.7514 21.3321 53.1729 20.2627L54.7886 21.431C55.3672 22.5004 56.13 23.3777 57.0771 24.0629L55.4614 22.8947Z" fill="#9C9C9C"/>
<path id="32 88" d="M68.3795 5.24379C67.5072 4.61477 66.5506 4.09926 65.5098 3.69727L67.1255 4.86555C68.1664 5.26754 69.1229 5.78305 69.9952 6.41207L68.3795 5.24379Z" fill="#9C9C9C"/>
<path id="87 23" d="M52.004 26.8613C51.4481 26.4607 50.9256 26.017 50.4365 25.5303L52.0522 26.6986C52.5318 27.1758 53.0435 27.6117 53.5873 28.0062L53.6197 28.0296C53.6089 28.0218 53.5981 28.014 53.5873 28.0062L52.004 26.8613Z" fill="#9C9C9C"/>
<path id="85 13" d="M64.3418 8.6377C64.5182 8.7452 64.6888 8.85853 64.8535 8.9777L66.4658 10.1435C66.3021 10.0252 66.1327 9.91274 65.9575 9.80597L64.3418 8.6377Z" fill="#9C9C9C"/>
<path id="86 19" d="M55.9841 23.2415C55.8055 23.1327 55.6326 23.0179 55.4655 22.8971L57.0776 24.0628C57.2459 24.1845 57.4199 24.3002 57.5998 24.4098L55.9841 23.2415Z" fill="#9C9C9C"/>
<path id="88 31" d="M68.3809 5.24316C68.3894 5.24932 68.3979 5.25548 68.4064 5.26165L69.9966 6.41144C70.4907 6.76774 70.9577 7.16045 71.3977 7.58958L69.782 6.4213C69.3496 5.99958 68.8911 5.61303 68.4064 5.26165L68.3809 5.24316Z" fill="#9C9C9C"/>
<path id="14 85" d="M64.8545 8.97754C65.803 9.66378 66.5572 10.5434 67.117 11.6165L68.7327 12.7848C68.1729 11.7117 67.4187 10.8321 66.4702 10.1458L64.8545 8.97754Z" fill="#9C9C9C"/>
<path id="24 87" d="M52.0029 26.8613C52.8301 27.4575 53.7312 27.9583 54.7063 28.3639L56.322 29.5322C55.3469 29.1266 54.4458 28.6258 53.6186 28.0296L52.0029 26.8613Z" fill="#9C9C9C"/>
<path id="19 18" d="M60.1438 24.3321C58.562 24.3321 57.1749 23.9688 55.9824 23.2422L57.5981 24.4105C58.7906 25.137 60.1777 25.5003 61.7595 25.5003L60.1438 24.3321Z" fill="#9C9C9C"/>
<path id="31 30" d="M72.6285 10.6351C71.9714 9.01236 71.0224 7.60764 69.7812 6.4209L71.397 7.58918C72.6381 8.77592 73.5871 10.1806 74.2442 11.8033L72.6285 10.6351Z" fill="#9C9C9C"/>
<path id="15 14" d="M67.1172 11.6162C67.7742 12.8756 68.1028 14.3167 68.1028 15.9394L69.7185 17.1076C69.7185 15.4849 69.3899 14.0439 68.7329 12.7845L67.1172 11.6162Z" fill="#9C9C9C"/>
<path id="25 24" d="M54.7051 28.3643C56.3599 29.0182 58.1729 29.3451 60.144 29.3451L61.7597 30.5134C59.7886 30.5134 57.9756 30.1865 56.3208 29.5325L54.7051 28.3643Z" fill="#9C9C9C"/>
<path id="18 17" d="M64.3059 23.2422C63.1134 23.9688 61.7263 24.3321 60.1445 24.3321L61.7602 25.5003C63.342 25.5003 64.7291 25.137 65.9216 24.4105L64.3059 23.2422Z" fill="#9C9C9C"/>
<path id="16 15" d="M68.1022 15.9395C68.1022 17.5621 67.7615 19.0032 67.0801 20.2626L68.6958 21.4309C69.3772 20.1715 69.7179 18.7304 69.7179 17.1077L68.1022 15.9395Z" fill="#9C9C9C"/>
<path id="17 16" d="M67.0809 20.2627C66.4238 21.5221 65.4991 22.5151 64.3066 23.2417L65.9223 24.4099C67.1148 23.6834 68.0395 22.6904 68.6966 21.431L67.0809 20.2627Z" fill="#9C9C9C"/>
<path id="30 29" d="M73.651 15.9398C73.651 14.0022 73.3103 12.2342 72.6289 10.6357L74.2446 11.804C74.926 13.4025 75.2667 15.1705 75.2667 17.108L73.651 15.9398Z" fill="#9C9C9C"/>
<path id="26 25" d="M60.1445 29.3451C62.1157 29.3451 63.9165 29.0182 65.547 28.3643L67.1627 29.5325C65.5322 30.1865 63.7314 30.5134 61.7602 30.5134L60.1445 29.3451Z" fill="#9C9C9C"/>
<path id="29 28" d="M72.6289 21.2798C73.3103 19.6329 73.651 17.8528 73.651 15.9395L75.2667 17.1077C75.2667 19.0211 74.926 20.8012 74.2446 22.4481L72.6289 21.2798Z" fill="#9C9C9C"/>
<path id="27 26" d="M65.5469 28.3639C67.2017 27.6858 68.6253 26.7412 69.8177 25.5303L71.4334 26.6986C70.241 27.9095 68.8174 28.8541 67.1626 29.5322L65.5469 28.3639Z" fill="#9C9C9C"/>
<path id="28 27" d="M69.8184 25.5308C71.0351 24.3198 71.972 22.903 72.6291 21.2803L74.2448 22.4486C73.5878 24.0712 72.6508 25.4881 71.4341 26.699L69.8184 25.5308Z" fill="#9C9C9C"/>
<path id="4 3" d="M113.121 1.95312V28.6549L114.737 29.8231V3.12141L113.121 1.95312Z" fill="#9C9C9C"/>
<path id="3 2" d="M131.3 18.9914L113.121 1.95312L114.737 3.12141L132.915 20.1597L131.3 18.9914Z" fill="#9C9C9C"/>
<path id="6 5" d="M118.159 28.6544V12.8877L119.775 14.056V29.8227L118.159 28.6544Z" fill="#9C9C9C"/>
<path id="0 1" d="M136.337 3.22461H131.3L132.916 4.39289H137.953L136.337 3.22461Z" fill="#9C9C9C"/>
<path id="5 4" d="M113.121 28.6543H118.159L119.774 29.8226H114.737L113.121 28.6543Z" fill="#9C9C9C"/>
<path id="2 0" d="M131.3 3.22461V18.9914L132.916 20.1596V4.39289L131.3 3.22461Z" fill="#9C9C9C"/>
<path id="7 6" d="M118.159 12.8877L136.338 29.926L137.953 31.0942L119.775 14.056L118.159 12.8877Z" fill="#9C9C9C"/>
<path id="1 7" d="M136.338 29.9264V3.22461L137.954 4.39289V31.0946L136.338 29.9264Z" fill="#9C9C9C"/>
</g>
<g id="Union_2">
<path fill-rule="evenodd" clip-rule="evenodd" d="M136.337 3.22464H131.3V18.9914L113.121 1.95312V28.6549H118.159V12.8881L136.337 29.9264V3.22464ZM53.173 20.2628C52.4916 19.0034 52.1509 17.5623 52.1509 15.9396C52.1509 14.317 52.4916 12.8759 53.173 11.6165C53.8543 10.3571 54.7913 9.36411 55.9837 8.63753C57.1761 7.91095 58.5632 7.54767 60.145 7.54767C61.7512 7.54767 63.1504 7.91095 64.3429 8.63753C65.5353 9.36411 66.46 10.3571 67.1171 11.6165C67.7741 12.8759 68.1027 14.317 68.1027 15.9396C68.1027 17.5623 67.762 19.0034 67.0806 20.2628C66.4235 21.5222 65.4988 22.5152 64.3064 23.2418C63.1139 23.9683 61.7268 24.3316 60.145 24.3316C58.5632 24.3316 57.1761 23.9683 55.9837 23.2418C54.7913 22.5152 53.8543 21.5222 53.173 20.2628ZM47.661 10.6356C46.9796 12.2341 46.6389 14.0021 46.6389 15.9396C46.6389 17.853 46.9674 19.6331 47.6245 21.28C48.2816 22.9027 49.2185 24.3195 50.4352 25.5305C51.652 26.7414 53.0756 27.686 54.7061 28.3641C56.3609 29.018 58.1739 29.345 60.145 29.345C62.1162 29.345 63.917 29.018 65.5475 28.3641C67.2023 27.686 68.6259 26.7414 69.8183 25.5305C71.0351 24.3195 71.972 22.9027 72.629 21.28C73.3104 19.6331 73.6511 17.853 73.6511 15.9396C73.6511 14.0021 73.3104 12.2341 72.629 10.6356C71.972 9.01293 71.0229 7.60821 69.7818 6.42147C68.565 5.23473 67.1414 4.3265 65.511 3.6968C63.8805 3.04288 62.0919 2.71592 60.145 2.71592C58.2225 2.71592 56.4339 3.04288 54.7791 3.6968C53.1486 4.3265 51.725 5.23473 50.5082 6.42147C49.2915 7.60821 48.3424 9.01293 47.661 10.6356ZM31.4128 19.4272H33.6898L39.6625 28.6547H45.8315L38.9179 18.8166C39.2667 18.6983 39.6 18.5627 39.918 18.41C41.3294 17.7318 42.4123 16.7873 43.1667 15.5763C43.9211 14.3412 44.2983 12.9243 44.2983 11.3259C44.2983 9.70316 43.9211 8.28633 43.1667 7.07537C42.4123 5.86441 41.3294 4.91986 39.918 4.24172C38.5065 3.56358 36.7909 3.22451 34.7711 3.22451H31.4128H29.3686H26.1929V28.6547H31.4128V19.4272ZM31.4128 15.2857V7.65664H34.4425C35.3673 7.65664 36.1582 7.81406 36.8152 8.12891C37.4966 8.41954 38.0198 8.85549 38.3849 9.43675C38.7499 9.99379 38.9324 10.6719 38.9324 11.4712C38.9324 12.2704 38.7499 12.9607 38.3849 13.5419C38.0198 14.099 37.4966 14.5349 36.8152 14.8498C36.1582 15.1404 35.3673 15.2857 34.4425 15.2857H31.4128ZM6.83545 20.3354C6.08106 19.076 5.70386 17.6108 5.70386 15.9396C5.70386 14.2443 6.08106 12.779 6.83545 11.5438C7.61418 10.3087 8.6241 9.36411 9.8652 8.71019C11.1063 8.03205 12.4569 7.69298 13.917 7.69298C15.1338 7.69298 16.2167 7.85041 17.1658 8.16526C18.1149 8.48011 18.9666 8.90394 19.721 9.43677C20.4997 9.96959 21.169 10.5509 21.7287 11.1806V5.3316C20.6823 4.50815 19.5385 3.86634 18.2974 3.40617C17.0806 2.946 15.5353 2.71592 13.6615 2.71592C11.7147 2.71592 9.9017 3.03077 8.22257 3.66047C6.56777 4.29017 5.11981 5.1984 3.87871 6.38514C2.66195 7.57189 1.71287 8.9766 1.03148 10.5993C0.374425 12.1978 0.0458984 13.9779 0.0458984 15.9396C0.0458984 17.9014 0.374425 19.6936 1.03148 21.3163C1.71287 22.9148 2.66195 24.3074 3.87871 25.4941C5.11981 26.6809 6.56777 27.5891 8.22257 28.2188C9.9017 28.8485 11.7147 29.1634 13.6615 29.1634C15.5353 29.1634 17.0806 28.9333 18.2974 28.4731C19.5385 28.0129 20.6823 27.3711 21.7287 26.5477V20.6987C21.169 21.3284 20.4997 21.9097 19.721 22.4425C18.9666 22.9753 18.1149 23.3992 17.1658 23.714C16.2167 24.0289 15.1338 24.1863 13.917 24.1863C12.4569 24.1863 11.1063 23.8593 9.8652 23.2054C8.6241 22.5273 7.61418 21.5706 6.83545 20.3354Z" fill="white"/>
<path fill-rule="evenodd" clip-rule="evenodd" d="M136.337 3.22464H131.3V18.9914L113.121 1.95312V28.6549H118.159V12.8881L136.337 29.9264V3.22464ZM53.173 20.2628C52.4916 19.0034 52.1509 17.5623 52.1509 15.9396C52.1509 14.317 52.4916 12.8759 53.173 11.6165C53.8543 10.3571 54.7913 9.36411 55.9837 8.63753C57.1761 7.91095 58.5632 7.54767 60.145 7.54767C61.7512 7.54767 63.1504 7.91095 64.3429 8.63753C65.5353 9.36411 66.46 10.3571 67.1171 11.6165C67.7741 12.8759 68.1027 14.317 68.1027 15.9396C68.1027 17.5623 67.762 19.0034 67.0806 20.2628C66.4235 21.5222 65.4988 22.5152 64.3064 23.2418C63.1139 23.9683 61.7268 24.3316 60.145 24.3316C58.5632 24.3316 57.1761 23.9683 55.9837 23.2418C54.7913 22.5152 53.8543 21.5222 53.173 20.2628ZM47.661 10.6356C46.9796 12.2341 46.6389 14.0021 46.6389 15.9396C46.6389 17.853 46.9674 19.6331 47.6245 21.28C48.2816 22.9027 49.2185 24.3195 50.4352 25.5305C51.652 26.7414 53.0756 27.686 54.7061 28.3641C56.3609 29.018 58.1739 29.345 60.145 29.345C62.1162 29.345 63.917 29.018 65.5475 28.3641C67.2023 27.686 68.6259 26.7414 69.8183 25.5305C71.0351 24.3195 71.972 22.9027 72.629 21.28C73.3104 19.6331 73.6511 17.853 73.6511 15.9396C73.6511 14.0021 73.3104 12.2341 72.629 10.6356C71.972 9.01293 71.0229 7.60821 69.7818 6.42147C68.565 5.23473 67.1414 4.3265 65.511 3.6968C63.8805 3.04288 62.0919 2.71592 60.145 2.71592C58.2225 2.71592 56.4339 3.04288 54.7791 3.6968C53.1486 4.3265 51.725 5.23473 50.5082 6.42147C49.2915 7.60821 48.3424 9.01293 47.661 10.6356ZM31.4128 19.4272H33.6898L39.6625 28.6547H45.8315L38.9179 18.8166C39.2667 18.6983 39.6 18.5627 39.918 18.41C41.3294 17.7318 42.4123 16.7873 43.1667 15.5763C43.9211 14.3412 44.2983 12.9243 44.2983 11.3259C44.2983 9.70316 43.9211 8.28633 43.1667 7.07537C42.4123 5.86441 41.3294 4.91986 39.918 4.24172C38.5065 3.56358 36.7909 3.22451 34.7711 3.22451H31.4128H29.3686H26.1929V28.6547H31.4128V19.4272ZM31.4128 15.2857V7.65664H34.4425C35.3673 7.65664 36.1582 7.81406 36.8152 8.12891C37.4966 8.41954 38.0198 8.85549 38.3849 9.43675C38.7499 9.99379 38.9324 10.6719 38.9324 11.4712C38.9324 12.2704 38.7499 12.9607 38.3849 13.5419C38.0198 14.099 37.4966 14.5349 36.8152 14.8498C36.1582 15.1404 35.3673 15.2857 34.4425 15.2857H31.4128ZM6.83545 20.3354C6.08106 19.076 5.70386 17.6108 5.70386 15.9396C5.70386 14.2443 6.08106 12.779 6.83545 11.5438C7.61418 10.3087 8.6241 9.36411 9.8652 8.71019C11.1063 8.03205 12.4569 7.69298 13.917 7.69298C15.1338 7.69298 16.2167 7.85041 17.1658 8.16526C18.1149 8.48011 18.9666 8.90394 19.721 9.43677C20.4997 9.96959 21.169 10.5509 21.7287 11.1806V5.3316C20.6823 4.50815 19.5385 3.86634 18.2974 3.40617C17.0806 2.946 15.5353 2.71592 13.6615 2.71592C11.7147 2.71592 9.9017 3.03077 8.22257 3.66047C6.56777 4.29017 5.11981 5.1984 3.87871 6.38514C2.66195 7.57189 1.71287 8.9766 1.03148 10.5993C0.374425 12.1978 0.0458984 13.9779 0.0458984 15.9396C0.0458984 17.9014 0.374425 19.6936 1.03148 21.3163C1.71287 22.9148 2.66195 24.3074 3.87871 25.4941C5.11981 26.6809 6.56777 27.5891 8.22257 28.2188C9.9017 28.8485 11.7147 29.1634 13.6615 29.1634C15.5353 29.1634 17.0806 28.9333 18.2974 28.4731C19.5385 28.0129 20.6823 27.3711 21.7287 26.5477V20.6987C21.169 21.3284 20.4997 21.9097 19.721 22.4425C18.9666 22.9753 18.1149 23.3992 17.1658 23.714C16.2167 24.0289 15.1338 24.1863 13.917 24.1863C12.4569 24.1863 11.1063 23.8593 9.8652 23.2054C8.6241 22.5273 7.61418 21.5706 6.83545 20.3354Z" fill="url(#paint0_linear_11157_46766)"/>
<path fill-rule="evenodd" clip-rule="evenodd" d="M136.337 3.22464H131.3V18.9914L113.121 1.95312V28.6549H118.159V12.8881L136.337 29.9264V3.22464ZM53.173 20.2628C52.4916 19.0034 52.1509 17.5623 52.1509 15.9396C52.1509 14.317 52.4916 12.8759 53.173 11.6165C53.8543 10.3571 54.7913 9.36411 55.9837 8.63753C57.1761 7.91095 58.5632 7.54767 60.145 7.54767C61.7512 7.54767 63.1504 7.91095 64.3429 8.63753C65.5353 9.36411 66.46 10.3571 67.1171 11.6165C67.7741 12.8759 68.1027 14.317 68.1027 15.9396C68.1027 17.5623 67.762 19.0034 67.0806 20.2628C66.4235 21.5222 65.4988 22.5152 64.3064 23.2418C63.1139 23.9683 61.7268 24.3316 60.145 24.3316C58.5632 24.3316 57.1761 23.9683 55.9837 23.2418C54.7913 22.5152 53.8543 21.5222 53.173 20.2628ZM47.661 10.6356C46.9796 12.2341 46.6389 14.0021 46.6389 15.9396C46.6389 17.853 46.9674 19.6331 47.6245 21.28C48.2816 22.9027 49.2185 24.3195 50.4352 25.5305C51.652 26.7414 53.0756 27.686 54.7061 28.3641C56.3609 29.018 58.1739 29.345 60.145 29.345C62.1162 29.345 63.917 29.018 65.5475 28.3641C67.2023 27.686 68.6259 26.7414 69.8183 25.5305C71.0351 24.3195 71.972 22.9027 72.629 21.28C73.3104 19.6331 73.6511 17.853 73.6511 15.9396C73.6511 14.0021 73.3104 12.2341 72.629 10.6356C71.972 9.01293 71.0229 7.60821 69.7818 6.42147C68.565 5.23473 67.1414 4.3265 65.511 3.6968C63.8805 3.04288 62.0919 2.71592 60.145 2.71592C58.2225 2.71592 56.4339 3.04288 54.7791 3.6968C53.1486 4.3265 51.725 5.23473 50.5082 6.42147C49.2915 7.60821 48.3424 9.01293 47.661 10.6356ZM31.4128 19.4272H33.6898L39.6625 28.6547H45.8315L38.9179 18.8166C39.2667 18.6983 39.6 18.5627 39.918 18.41C41.3294 17.7318 42.4123 16.7873 43.1667 15.5763C43.9211 14.3412 44.2983 12.9243 44.2983 11.3259C44.2983 9.70316 43.9211 8.28633 43.1667 7.07537C42.4123 5.86441 41.3294 4.91986 39.918 4.24172C38.5065 3.56358 36.7909 3.22451 34.7711 3.22451H31.4128H29.3686H26.1929V28.6547H31.4128V19.4272ZM31.4128 15.2857V7.65664H34.4425C35.3673 7.65664 36.1582 7.81406 36.8152 8.12891C37.4966 8.41954 38.0198 8.85549 38.3849 9.43675C38.7499 9.99379 38.9324 10.6719 38.9324 11.4712C38.9324 12.2704 38.7499 12.9607 38.3849 13.5419C38.0198 14.099 37.4966 14.5349 36.8152 14.8498C36.1582 15.1404 35.3673 15.2857 34.4425 15.2857H31.4128ZM6.83545 20.3354C6.08106 19.076 5.70386 17.6108 5.70386 15.9396C5.70386 14.2443 6.08106 12.779 6.83545 11.5438C7.61418 10.3087 8.6241 9.36411 9.8652 8.71019C11.1063 8.03205 12.4569 7.69298 13.917 7.69298C15.1338 7.69298 16.2167 7.85041 17.1658 8.16526C18.1149 8.48011 18.9666 8.90394 19.721 9.43677C20.4997 9.96959 21.169 10.5509 21.7287 11.1806V5.3316C20.6823 4.50815 19.5385 3.86634 18.2974 3.40617C17.0806 2.946 15.5353 2.71592 13.6615 2.71592C11.7147 2.71592 9.9017 3.03077 8.22257 3.66047C6.56777 4.29017 5.11981 5.1984 3.87871 6.38514C2.66195 7.57189 1.71287 8.9766 1.03148 10.5993C0.374425 12.1978 0.0458984 13.9779 0.0458984 15.9396C0.0458984 17.9014 0.374425 19.6936 1.03148 21.3163C1.71287 22.9148 2.66195 24.3074 3.87871 25.4941C5.11981 26.6809 6.56777 27.5891 8.22257 28.2188C9.9017 28.8485 11.7147 29.1634 13.6615 29.1634C15.5353 29.1634 17.0806 28.9333 18.2974 28.4731C19.5385 28.0129 20.6823 27.3711 21.7287 26.5477V20.6987C21.169 21.3284 20.4997 21.9097 19.721 22.4425C18.9666 22.9753 18.1149 23.3992 17.1658 23.714C16.2167 24.0289 15.1338 24.1863 13.917 24.1863C12.4569 24.1863 11.1063 23.8593 9.8652 23.2054C8.6241 22.5273 7.61418 21.5706 6.83545 20.3354Z" fill="url(#paint1_linear_11157_46766)"/>
</g>
<g id="Ex-Union-35:230798">
<g id="Union_3">
<path d="M123.49 34.8819H128.527V61.5836L110.348 44.5454V60.3121H105.311V33.6104L123.49 50.6486V34.8819Z" fill="#996A1A"/>
<path d="M89.6907 55.9161H100.897V60.3119H84.6533V34.8817H100.897V39.2775H89.6907V44.6542H100.167V48.9773H89.6907V55.9161Z" fill="#996A1A"/>
<path d="M80.2384 55.9161H69.032V48.9773H79.5084V44.6542H69.032V39.2775H80.2384V34.8817H63.9946V60.3119H80.2384V55.9161Z" fill="#996A1A"/>
<path fill-rule="evenodd" clip-rule="evenodd" d="M47.3086 51.0844H49.5856L55.5582 60.3119H61.7272L54.8136 50.4738C55.1624 50.3555 55.4958 50.22 55.8138 50.0672C57.2252 49.3891 58.3081 48.4445 59.0625 47.2335C59.8169 45.9984 60.1941 44.5815 60.1941 42.9831C60.1941 41.3604 59.8169 39.9435 59.0625 38.7326C58.5641 37.9325 57.9222 37.2487 57.1369 36.6811C56.7337 36.3897 56.2926 36.129 55.8138 35.8989C54.4023 35.2208 52.6867 34.8817 50.6668 34.8817H42.0886V60.3119H47.3086V51.0844ZM50.3383 39.3138H47.3086V46.9429H50.3383C51.2631 46.9429 52.0539 46.7976 52.711 46.507C53.3924 46.1921 53.9156 45.7562 54.2806 45.1991C54.6457 44.6179 54.8282 43.9276 54.8282 43.1284C54.8282 42.3291 54.6457 41.651 54.2806 41.094C54.0575 40.7386 53.7751 40.4375 53.4337 40.1908C53.2167 40.0339 52.9758 39.8991 52.711 39.7861C52.0539 39.4713 51.2631 39.3138 50.3383 39.3138Z" fill="#996A1A"/>
<path d="M25.9629 46.725V50.8665H33.3C33.081 51.6415 32.7647 52.356 32.351 53.0099C31.9373 53.6638 31.4262 54.2451 30.8178 54.7537C30.2338 55.2623 29.5281 55.6619 28.7007 55.9525C27.8733 56.219 26.9363 56.3522 25.8899 56.3522C24.3081 56.3522 22.8845 55.9889 21.6191 55.2623C21.3955 55.1314 21.1801 54.991 20.9731 54.8412C20.0311 54.1597 19.2609 53.2829 18.6623 52.2107C17.9323 50.8786 17.5672 49.3407 17.5672 47.5969C17.5672 45.8289 17.9323 44.3031 18.6623 43.0194C19.4167 41.7358 20.4266 40.7549 21.6921 40.0768C22.9575 39.3744 24.3568 39.0233 25.8899 39.0233C27.5204 39.0233 28.8953 39.3744 30.0148 40.0768C30.2271 40.2027 30.4306 40.3361 30.6253 40.477C31.4795 41.0951 32.1642 41.8579 32.6795 42.7651L37.1328 40.1858C36.3541 38.9991 35.4172 37.9818 34.3221 37.1342C34.1471 36.9916 33.9674 36.8542 33.7833 36.722C32.841 36.0457 31.7795 35.5049 30.5988 35.0997C29.2117 34.6154 27.6421 34.3732 25.8899 34.3732C23.9188 34.3732 22.0936 34.688 20.4145 35.3177C18.7353 35.9474 17.2752 36.8435 16.0341 38.0061C14.793 39.1686 13.8196 40.5733 13.1139 42.2202C12.4325 43.8429 12.0918 45.6351 12.0918 47.5969C12.0918 49.5587 12.4203 51.363 13.0774 53.0099C13.7588 54.6568 14.7078 56.0736 15.9246 57.2604C16.3617 57.6784 16.8245 58.0633 17.313 58.4152C18.2113 59.0624 19.1965 59.5978 20.2685 60.0214C21.9476 60.6753 23.7728 61.0023 25.7439 61.0023C27.8368 61.0023 29.6984 60.6269 31.3289 59.8761C32.9593 59.1253 34.3221 58.0959 35.4172 56.7881C36.5366 55.456 37.3519 53.9302 37.8629 52.2107C38.3983 50.4911 38.6295 48.6625 38.5565 46.725H25.9629Z" fill="#996A1A"/>
</g>
<path id="76 75" d="M14.4193 36.8379C13.1782 38.0004 12.2047 39.4051 11.499 41.052L13.1147 42.2203C13.8205 40.5734 14.7939 39.1687 16.035 38.0062L14.4193 36.8379Z" fill="#996A1A"/>
<path id="75 74_2" d="M18.7983 34.1494C17.1192 34.7791 15.6591 35.6752 14.418 36.8378L16.0337 38.006C17.2748 36.8435 18.7349 35.9474 20.414 35.3177L18.7983 34.1494Z" fill="#996A1A"/>
<path id="77 76_2" d="M11.4986 41.0527C10.8173 42.6754 10.4766 44.4677 10.4766 46.4294L12.0923 47.5977C12.0923 45.6359 12.433 43.8437 13.1144 42.221L11.4986 41.0527Z" fill="#996A1A"/>
<path id="74 73_2" d="M24.2743 33.2051C22.3031 33.2051 20.478 33.5199 18.7988 34.1496L20.4145 35.3179C22.0937 34.6882 23.9188 34.3734 25.89 34.3734L24.2743 33.2051Z" fill="#996A1A"/>
<path id="78 77_2" d="M10.4766 46.4287C10.4766 48.3905 10.8051 50.1948 11.4621 51.8417L13.0779 53.01C12.4208 51.3631 12.0923 49.5588 12.0923 47.597L10.4766 46.4287Z" fill="#996A1A"/>
<path id="66 65" d="M17.0469 41.8518C17.8013 40.5682 18.8112 39.5873 20.0766 38.9092L21.6923 40.0775C20.4269 40.7556 19.417 41.7365 18.6626 43.0201L17.0469 41.8518Z" fill="#996A1A"/>
<path id="65 64_2" d="M15.9512 46.429C15.9512 44.661 16.3162 43.1352 17.0463 41.8516L18.662 43.0198C17.9319 44.3035 17.5669 45.8293 17.5669 47.5973L15.9512 46.429Z" fill="#996A1A"/>
<path id="67 66_2" d="M20.0762 38.909C21.3416 38.2066 22.7409 37.8555 24.274 37.8555L25.8897 39.0238C24.3566 39.0238 22.9573 39.3749 21.6919 40.0773L20.0762 38.909Z" fill="#996A1A"/>
<path id="73 72_2" d="M28.9843 33.9317C27.5972 33.4473 26.0275 33.2051 24.2754 33.2051L25.8911 34.3734C27.6432 34.3734 29.2129 34.6156 30.6 35.0999L28.9843 33.9317Z" fill="#996A1A"/>
<path id="64 63_2" d="M17.0463 51.0425C16.3162 49.7104 15.9512 48.1725 15.9512 46.4287L17.5669 47.597C17.5669 49.3408 17.9319 50.8787 18.662 52.2108L17.0463 51.0425Z" fill="#996A1A"/>
<path id="79 78_2" d="M11.4619 51.8418C12.1433 53.4887 13.0924 54.9055 14.3091 56.0923L15.9249 57.2606C14.7081 56.0738 13.759 54.657 13.0776 53.0101L11.4619 51.8418Z" fill="#996A1A"/>
<path id="68 67" d="M24.2754 37.8555C25.9059 37.8555 27.2808 38.2066 28.4002 38.909L30.0159 40.0773C28.8965 39.3749 27.5216 39.0238 25.8911 39.0238L24.2754 37.8555Z" fill="#996A1A"/>
<path id="72 90" d="M32.1678 35.5539C31.2256 34.8776 30.1641 34.3368 28.9834 33.9316L30.5991 35.0999C31.7798 35.5051 32.8413 36.0459 33.7836 36.7222L32.1678 35.5539Z" fill="#996A1A"/>
<path id="91 79" d="M15.697 57.2476C15.2085 56.8957 14.7457 56.5108 14.3086 56.0928L15.9243 57.2611C16.3504 57.6685 16.8009 58.0445 17.2758 58.3892L17.3127 58.4159C17.3004 58.407 17.288 58.3981 17.2758 58.3892L15.697 57.2476Z" fill="#996A1A"/>
<path id="63 88" d="M19.3576 53.6735C18.4156 52.992 17.6454 52.1152 17.0469 51.043L18.6626 52.2113C19.2611 53.2834 20.0314 54.1603 20.9733 54.8418L19.3576 53.6735Z" fill="#996A1A"/>
<path id="89 68" d="M28.4004 38.9092C28.6127 39.0351 28.8162 39.1685 29.0109 39.3094L30.6217 40.4741C30.4285 40.3345 30.2266 40.2023 30.0161 40.0775L28.4004 38.9092Z" fill="#996A1A"/>
<path id="90 71" d="M32.168 35.5537C32.1892 35.569 32.2104 35.5843 32.2315 35.5997L33.7837 36.722C33.9678 36.8542 34.1475 36.9916 34.3225 37.1341L32.7068 35.9658C32.552 35.8397 32.3935 35.7177 32.2315 35.5997L32.168 35.5537Z" fill="#996A1A"/>
<path id="88 62" d="M20.0044 54.0949C19.782 53.9647 19.5678 53.8252 19.3619 53.6763L20.9741 54.8421C21.1811 54.9919 21.3965 55.1322 21.6201 55.2632L20.0044 54.0949Z" fill="#996A1A"/>
<path id="55 56" d="M24.3477 45.5576V49.6991L25.9634 50.8674V46.7259L24.3477 45.5576Z" fill="#996A1A"/>
<path id="80 91" d="M15.6973 57.2471C16.5956 57.8943 17.5808 58.4297 18.6527 58.8533L20.2685 60.0215C19.1965 59.5979 18.2113 59.0625 17.313 58.4154L15.6973 57.2471Z" fill="#996A1A"/>
<path id="69 89" d="M29.0107 39.3086C29.8649 39.9268 30.5497 40.6895 31.0649 41.5968L32.6806 42.765C32.1654 41.8578 31.4806 41.095 30.6264 40.4769L29.0107 39.3086Z" fill="#996A1A"/>
<path id="71 70_2" d="M35.5168 39.0184C34.7381 37.8317 33.8011 36.8145 32.7061 35.9668L34.3218 37.1351C35.4168 37.9827 36.3538 39 37.1325 40.1867L35.5168 39.0184Z" fill="#996A1A"/>
<path id="62 61_2" d="M24.2748 55.1846C22.693 55.1846 21.2693 54.8213 20.0039 54.0947L21.6196 55.263C22.8851 55.9896 24.3087 56.3529 25.8905 56.3529L24.2748 55.1846Z" fill="#996A1A"/>
<path id="70 69_2" d="M31.0645 41.5969L35.5178 39.0176L37.1335 40.1859L32.6802 42.7652L31.0645 41.5969Z" fill="#996A1A"/>
<path id="56 85" d="M36.9412 45.5576H24.3477L25.9634 46.7259H38.5569L36.9412 45.5576Z" fill="#996A1A"/>
<path id="57 55" d="M24.3477 49.6982H31.6848L33.3005 50.8665H25.9634L24.3477 49.6982Z" fill="#996A1A"/>
<path id="81 80_2" d="M18.6523 58.8535C20.3315 59.5074 22.1566 59.8344 24.1278 59.8344L25.7435 61.0027C23.7723 61.0027 21.9472 60.6757 20.2681 60.0218L18.6523 58.8535Z" fill="#996A1A"/>
<path id="61 60" d="M27.0861 54.7852C26.2587 55.0516 25.3218 55.1848 24.2754 55.1848L25.8911 56.3531C26.9375 56.3531 27.8744 56.2199 28.7018 55.9534L27.0861 54.7852Z" fill="#996A1A"/>
<path id="60 59" d="M29.2031 53.5859C28.6191 54.0945 27.9133 54.4942 27.0859 54.7848L28.7016 55.9531C29.529 55.6624 30.2348 55.2628 30.8188 54.7542L29.2031 53.5859Z" fill="#996A1A"/>
<path id="58 57_2" d="M31.6854 49.6982C31.4664 50.4733 31.15 51.1877 30.7363 51.8417L32.352 53.0099C32.7657 52.356 33.0821 51.6415 33.3011 50.8665L31.6854 49.6982Z" fill="#996A1A"/>
<path id="59 58" d="M30.7372 51.8418C30.3235 52.4957 29.8125 53.077 29.2041 53.5856L30.8198 54.7539C31.4282 54.2453 31.9392 53.664 32.3529 53.0101L30.7372 51.8418Z" fill="#996A1A"/>
<path id="43 42_2" d="M49.0509 33.7139H40.4727L42.0884 34.8821H50.6666L49.0509 33.7139Z" fill="#996A1A"/>
<path id="82 81_2" d="M24.1289 59.8342C26.2217 59.8342 28.0834 59.4588 29.7139 58.708L31.3296 59.8763C29.6991 60.6271 27.8375 61.0025 25.7446 61.0025L24.1289 59.8342Z" fill="#996A1A"/>
<path id="85 84" d="M36.248 51.0433C36.7834 49.3237 37.0146 47.4952 36.9416 45.5576L38.5573 46.7259C38.6303 48.6634 38.3991 50.492 37.8638 52.2116L36.248 51.0433Z" fill="#996A1A"/>
<path id="83 82_2" d="M29.7148 58.7081C31.3453 57.9573 32.7081 56.928 33.8032 55.6201L35.4189 56.7884C34.3238 58.0962 32.961 59.1256 31.3306 59.8764L29.7148 58.7081Z" fill="#996A1A"/>
<path id="84 83_2" d="M33.8027 55.6204C34.9222 54.2883 35.7374 52.7625 36.2484 51.043L37.8641 52.2112C37.3531 53.9308 36.5379 55.4566 35.4184 56.7887L33.8027 55.6204Z" fill="#996A1A"/>
<path id="44 43_2" d="M40.4727 33.7139V59.1441L42.0884 60.3124V34.8821L40.4727 33.7139Z" fill="#996A1A"/>
<path id="46 47" d="M48.7231 38.1455H45.6934L47.3091 39.3138H50.3388L48.7231 38.1455Z" fill="#996A1A"/>
<path id="48 46" d="M45.6934 38.1455V45.7746L47.3091 46.9429V39.3138L45.6934 38.1455Z" fill="#996A1A"/>
<path id="42 41_2" d="M54.1987 34.7311C52.7872 34.0529 51.0716 33.7139 49.0518 33.7139L50.6675 34.8822C52.6873 34.8822 54.4029 35.2212 55.8144 35.8994L54.1987 34.7311Z" fill="#996A1A"/>
<path id="47 54" d="M51.0954 38.6178C50.4383 38.3029 49.6474 38.1455 48.7227 38.1455L50.3384 39.3138C51.2631 39.3138 52.054 39.4712 52.7111 39.7861L51.0954 38.6178Z" fill="#996A1A"/>
<path id="54 87" d="M51.8184 39.0228C51.6014 38.866 51.3605 38.7311 51.0957 38.6182L52.7114 39.7864C52.9762 39.8994 53.2171 40.0343 53.4341 40.1911L51.8184 39.0228Z" fill="#996A1A"/>
<path id="41 86" d="M55.5224 35.5137C55.1191 35.2223 54.6781 34.9615 54.1992 34.7314L55.8149 35.8997C56.2938 36.1298 56.7348 36.3905 57.1381 36.6819L55.5224 35.5137Z" fill="#996A1A"/>
<path id="49 48_2" d="M45.6934 45.7754H48.7231L50.3388 46.9437H47.3091L45.6934 45.7754Z" fill="#996A1A"/>
<path id="87 53" d="M52.6663 39.9256C52.4434 39.5708 52.1616 39.2701 51.8208 39.0235L53.435 40.1907C53.7765 40.4375 54.0588 40.7385 54.282 41.0939L52.6663 39.9256Z" fill="#996A1A"/>
<path id="53 52_2" d="M53.2136 41.9602C53.2136 41.161 53.031 40.4828 52.666 39.9258L54.2817 41.0941C54.6467 41.6511 54.8293 42.3292 54.8293 43.1285L53.2136 41.9602Z" fill="#996A1A"/>
<path id="86 40" d="M57.4471 37.5651C56.9494 36.7662 56.3086 36.0832 55.5249 35.5162L57.1372 36.682C57.9225 37.2495 58.5644 37.9333 59.0628 38.7334L57.4471 37.5651Z" fill="#996A1A"/>
<path id="50 49" d="M48.7227 45.7748C49.6474 45.7748 50.4383 45.6295 51.0954 45.3389L52.7111 46.5071C52.054 46.7978 51.2631 46.9431 50.3384 46.9431L48.7227 45.7748Z" fill="#996A1A"/>
<path id="32 33" d="M45.6934 49.917H47.9704L49.5861 51.0853H47.3091L45.6934 49.917Z" fill="#996A1A"/>
<path id="52 51" d="M52.666 44.0317C53.031 43.4504 53.2136 42.7602 53.2136 41.9609L54.8293 43.1292C54.8293 43.9285 54.6467 44.6187 54.2817 45.2L52.666 44.0317Z" fill="#996A1A"/>
<path id="51 50" d="M51.0957 45.3391C51.7771 45.0242 52.3003 44.5883 52.6653 44.0312L54.281 45.1995C53.916 45.7566 53.3928 46.1925 52.7114 46.5074L51.0957 45.3391Z" fill="#996A1A"/>
<path id="33 45" d="M45.6934 59.1445V49.917L47.3091 51.0853V60.3128L45.6934 59.1445Z" fill="#996A1A"/>
<path id="45 44" d="M40.4727 59.1436H45.6926L47.3083 60.3118H42.0884L40.4727 59.1436Z" fill="#996A1A"/>
<path id="40 39_2" d="M58.5798 41.8149C58.5798 40.1922 58.2026 38.7754 57.4482 37.5645L59.064 38.7327C59.8183 39.9437 60.1955 41.3605 60.1955 42.9832L58.5798 41.8149Z" fill="#996A1A"/>
<path id="37 36" d="M53.1982 49.3061C53.5471 49.1877 53.8804 49.0522 54.1984 48.8994L55.8141 50.0677C55.4961 50.2204 55.1628 50.356 54.814 50.4743L53.1982 49.3061Z" fill="#996A1A"/>
<path id="39 38_2" d="M57.4482 46.0659C58.2026 44.8307 58.5798 43.4139 58.5798 41.8154L60.1955 42.9837C60.1955 44.5822 59.8183 45.999 59.064 47.2342L57.4482 46.0659Z" fill="#996A1A"/>
<path id="38 37" d="M54.1992 48.8991C55.6107 48.2209 56.6936 47.2764 57.448 46.0654L59.0637 47.2337C58.3093 48.4447 57.2264 49.3892 55.8149 50.0674L54.1992 48.8991Z" fill="#996A1A"/>
<path id="34 32" d="M47.9697 49.917L53.9423 59.1445L55.558 60.3128L49.5854 51.0853L47.9697 49.917Z" fill="#996A1A"/>
<path id="29 28_2" d="M78.6227 33.7139H62.3789L63.9946 34.8821H80.2384L78.6227 33.7139Z" fill="#996A1A"/>
<path id="36 35" d="M60.1118 59.1438L53.1982 49.3057L54.8139 50.4739L61.7276 60.312L60.1118 59.1438Z" fill="#996A1A"/>
<path id="30 29_2" d="M62.3789 33.7139V59.1441L63.9946 60.3124V34.8821L62.3789 33.7139Z" fill="#996A1A"/>
<path id="26 25_2" d="M67.416 43.4861V38.1094L69.0317 39.2777V44.6543L67.416 43.4861Z" fill="#996A1A"/>
<path id="35 34_2" d="M53.9434 59.1436H60.1124L61.7281 60.3118H55.5591L53.9434 59.1436Z" fill="#996A1A"/>
<path id="27 26_2" d="M67.416 38.1094H78.6224L80.2381 39.2777H69.0317L67.416 38.1094Z" fill="#996A1A"/>
<path id="25 24_2" d="M77.8924 43.4863H67.416L69.0317 44.6546H79.5081L77.8924 43.4863Z" fill="#996A1A"/>
<path id="28 27_2" d="M78.623 38.1097V33.7139L80.2387 34.8821V39.2779L78.623 38.1097Z" fill="#996A1A"/>
<path id="22 20_2" d="M67.416 54.7484V47.8096L69.0317 48.9779V55.9167L67.416 54.7484Z" fill="#996A1A"/>
<path id="23 22_2" d="M67.416 47.8096H77.8924L79.5081 48.9779H69.0317L67.416 47.8096Z" fill="#996A1A"/>
<path id="24 23" d="M77.8936 47.8095V43.4863L79.5093 44.6546V48.9777L77.8936 47.8095Z" fill="#996A1A"/>
<path id="20 21_2" d="M78.6224 54.748H67.416L69.0317 55.9163H80.2381L78.6224 54.748Z" fill="#996A1A"/>
<path id="31 30_2" d="M62.3789 59.1436H78.6227L80.2384 60.3118H63.9946L62.3789 59.1436Z" fill="#996A1A"/>
<path id="13 12_2" d="M83.0381 33.7139H99.2819L100.898 34.8821H84.6538L83.0381 33.7139Z" fill="#996A1A"/>
<path id="12 11_2" d="M83.0381 59.1441V33.7139L84.6538 34.8821V60.3124L83.0381 59.1441Z" fill="#996A1A"/>
<path id="16 15_2" d="M88.0762 38.1094V43.4861L89.6919 44.6543V39.2777L88.0762 38.1094Z" fill="#996A1A"/>
<path id="21 31" d="M78.623 59.1438V54.748L80.2387 55.9163V60.3121L78.623 59.1438Z" fill="#996A1A"/>
<path id="15 14_2" d="M99.2826 38.1094H88.0762L89.6919 39.2777H100.898L99.2826 38.1094Z" fill="#996A1A"/>
<path id="17 16_2" d="M88.0762 43.4863H98.5525L100.168 44.6546H89.6919L88.0762 43.4863Z" fill="#996A1A"/>
<path id="14 13" d="M99.2822 33.7139V38.1097L100.898 39.2779V34.8821L99.2822 33.7139Z" fill="#996A1A"/>
<path id="9 19" d="M88.0762 47.8096V54.7484L89.6919 55.9167V48.9779L88.0762 47.8096Z" fill="#996A1A"/>
<path id="19 18_2" d="M98.5525 47.8096H88.0762L89.6919 48.9779H100.168L98.5525 47.8096Z" fill="#996A1A"/>
<path id="18 17_2" d="M98.5508 43.4863V47.8095L100.166 48.9777V44.6546L98.5508 43.4863Z" fill="#996A1A"/>
<path id="8 9_2" d="M88.0762 54.748H99.2826L100.898 55.9163H89.6919L88.0762 54.748Z" fill="#996A1A"/>
<path id="11 10_2" d="M99.2819 59.1436H83.0381L84.6538 60.3118H100.898L99.2819 59.1436Z" fill="#996A1A"/>
<path id="6 5_2" d="M103.696 59.1441V32.4424L105.312 33.6107V60.3124L103.696 59.1441Z" fill="#996A1A"/>
<path id="10 8_2" d="M99.2822 54.748V59.1438L100.898 60.3121V55.9163L99.2822 54.748Z" fill="#996A1A"/>
<path id="7 6_2" d="M103.696 32.4424L121.875 49.4806L123.49 50.6489L105.312 33.6107L103.696 32.4424Z" fill="#996A1A"/>
<path id="4 3_2" d="M108.733 43.377V59.1437L110.349 60.312V44.5452L108.733 43.377Z" fill="#996A1A"/>
<path id="0 1_2" d="M121.875 33.7139H126.912L128.528 34.8821H123.491L121.875 33.7139Z" fill="#996A1A"/>
<path id="5 4_2" d="M108.734 59.1445H103.696L105.312 60.3128H110.349L108.734 59.1445Z" fill="#996A1A"/>
<path id="1 7_2" d="M121.875 49.4806V33.7139L123.491 34.8821V50.6489L121.875 49.4806Z" fill="#996A1A"/>
<path id="3 2_2" d="M126.912 60.4152L108.733 43.377L110.349 44.5452L128.528 61.5835L126.912 60.4152Z" fill="#996A1A"/>
<path id="2 0_2" d="M126.912 33.7139V60.4156L128.528 61.5839V34.8821L126.912 33.7139Z" fill="#996A1A"/>
</g>
<path id="Union_4" fill-rule="evenodd" clip-rule="evenodd" d="M121.874 33.7139H126.912V60.4156L108.733 43.3774V59.1441H103.696V32.4424L121.874 49.4806V33.7139ZM88.0756 54.7482H99.282V59.144H88.0756H86.3964H83.0382V33.7138H86.3964H88.0756H99.282V38.1096H88.0756V43.4862H98.5519V47.8094H88.0756V54.7482ZM78.6234 54.7482H67.417V47.8094H77.8933V43.4862H67.417V38.1096H78.6234V33.7138H67.417H65.7378H62.3796V59.144H65.7378H67.417H78.6234V54.7482ZM45.6935 49.9165H47.9706L53.9432 59.144H60.1122L53.1986 49.3059C53.5474 49.1876 53.8808 49.052 54.1987 48.8992C55.6102 48.2211 56.6931 47.2766 57.4475 46.0656C58.2019 44.8304 58.5791 43.4136 58.5791 41.8151C58.5791 40.1924 58.2019 38.7756 57.4475 37.5646C56.6931 36.3537 55.6102 35.4091 54.1987 34.731C52.7873 34.0528 51.0716 33.7138 49.0518 33.7138H45.6935H43.6493H40.4736V59.144H45.6935V49.9165ZM48.7233 38.1459H45.6935V45.775H48.7233C49.648 45.775 50.4389 45.6296 51.096 45.339C51.7773 45.0242 52.3006 44.5882 52.6656 44.0312C53.0306 43.4499 53.2131 42.7597 53.2131 41.9604C53.2131 41.1612 53.0306 40.483 52.6656 39.926C52.3006 39.3447 51.7773 38.9088 51.096 38.6182C50.4389 38.3033 49.648 38.1459 48.7233 38.1459ZM24.3477 45.557V49.6985H31.6848C31.4658 50.4735 31.1494 51.188 30.7357 51.8419C30.322 52.4958 29.811 53.0771 29.2026 53.5857C28.6185 54.0943 27.9128 54.4939 27.0854 54.7845C26.258 55.051 25.3211 55.1842 24.2747 55.1842C22.6929 55.1842 21.2693 54.8209 20.0038 54.0943C18.7627 53.3677 17.7772 52.3505 17.0471 51.0427C16.317 49.7106 15.952 48.1727 15.952 46.4289C15.952 44.6609 16.317 43.1351 17.0471 41.8515C17.8015 40.5678 18.8114 39.587 20.0768 38.9088C21.3423 38.2065 22.7416 37.8553 24.2747 37.8553C25.9052 37.8553 27.2801 38.2065 28.3995 38.9088C29.5433 39.587 30.4315 40.4831 31.0642 41.5972L35.5176 39.0178C34.7389 37.8311 33.802 36.8139 32.7069 35.9662C31.6361 35.0943 30.395 34.4161 28.9836 33.9318C27.5965 33.4474 26.0268 33.2052 24.2747 33.2052C22.3035 33.2052 20.4784 33.52 18.7992 34.1497C17.1201 34.7794 15.66 35.6755 14.4189 36.8381C13.1778 38.0006 12.2044 39.4053 11.4986 41.0522C10.8173 42.6749 10.4766 44.4671 10.4766 46.4289C10.4766 48.3907 10.8051 50.195 11.4621 51.8419C12.1435 53.4888 13.0926 54.9056 14.3094 56.0924C15.5505 57.2791 16.9984 58.1995 18.6532 58.8534C20.3324 59.5073 22.1575 59.8343 24.1287 59.8343C26.2215 59.8343 28.0832 59.4589 29.7136 58.7081C31.3441 57.9573 32.7069 56.928 33.802 55.6201C34.9214 54.2881 35.7366 52.7622 36.2477 51.0427C36.7831 49.3231 37.0142 47.4945 36.9412 45.557H24.3477Z" fill="url(#paint2_linear_11157_46766)"/>
<g id="Ex-Vector 80-35:231141">
<path id="Vector 80" d="M111.327 5.80978C111.526 5.95343 111.642 6.21012 111.541 6.4972L103.69 28.7839C103.561 29.1519 103.12 29.3033 102.79 29.0934C102.79 29.0934 101.757 28.4369 100.725 27.7805C99.6935 27.1245 98.662 26.4687 98.662 26.4687C98.4626 26.3419 98.2074 26.3419 98.008 26.4687L93.5605 29.2965C93.3611 29.4233 93.1058 29.4233 92.9064 29.2965C92.9064 29.2965 91.7939 28.5892 90.6818 27.882C89.5702 27.1753 88.4589 26.4687 88.4589 26.4687C88.2595 26.3419 88.0043 26.3419 87.8049 26.4687L83.6844 29.0886C83.4631 29.2293 83.1926 29.2076 82.9991 29.0676C82.9019 28.9973 82.8242 28.8971 82.7819 28.7727L75.2272 6.5219C75.0181 5.90604 75.7995 5.44064 76.246 5.91506L85.5163 15.7637C85.8117 16.0775 86.3326 15.9928 86.5121 15.6016L92.6809 2.16387C92.8506 1.79431 93.301 1.71466 93.5917 1.92492C93.6715 1.98268 93.7393 2.06234 93.786 2.16387L99.9603 15.6136C100.006 15.7132 100.074 15.793 100.155 15.8514C100.388 16.0203 100.73 16.01 100.95 15.7816L110.53 5.87793C110.77 5.62931 111.102 5.64681 111.327 5.80978Z" fill="#855A12"/>
<path id="9 10" d="M73.612 5.35349C73.4029 4.73764 74.1843 4.27224 74.6308 4.74666L76.0467 5.77047C76.1174 5.80222 76.1851 5.84969 76.2465 5.91494L76.0467 5.77047C75.6038 5.57137 75.0474 5.99061 75.2277 6.52177L73.612 5.35349Z" fill="#855A12"/>
<path id="8 9_3" d="M74.6299 4.74707L83.9001 14.5957L85.5158 15.764L76.2456 5.91535L74.6299 4.74707Z" fill="#855A12"/>
<path id="10 11" d="M81.167 27.6043L73.6123 5.35352L75.228 6.5218L82.7827 28.7726L81.167 27.6043Z" fill="#855A12"/>
<path id="22 6" d="M91.0654 0.995903C91.2351 0.626339 91.6855 0.546687 91.9762 0.756948L93.5917 1.92511C93.301 1.715 92.8508 1.79469 92.6811 2.16418L91.0654 0.995903Z" fill="#855A12"/>
<path id="5 22" d="M91.9766 0.756836C92.0564 0.814604 92.1242 0.894255 92.1708 0.995789L93.7865 2.16407C93.7399 2.06254 93.6721 1.98288 93.5923 1.92512L91.9766 0.756836Z" fill="#855A12"/>
<path id="6 7" d="M84.8965 14.4339L91.0653 0.996094L92.681 2.16438L86.5122 15.6021L84.8965 14.4339Z" fill="#855A12"/>
<path id="7 8" d="M84.0883 14.7316C84.3806 14.8665 84.7506 14.7508 84.8962 14.4336L86.5119 15.6019C86.3324 15.993 85.8115 16.0778 85.5161 15.764L84.0883 14.7316C84.0202 14.7001 83.9563 14.655 83.9004 14.5957L84.0883 14.7316Z" fill="#855A12"/>
<path id="4 5" d="M92.1719 0.996094L98.3462 14.4458L99.9619 15.6141L93.7876 2.16438L92.1719 0.996094Z" fill="#855A12"/>
<path id="11 25" d="M81.3833 27.8995C81.286 27.8291 81.2083 27.7289 81.166 27.6045L82.7817 28.7728C82.824 28.8972 82.9017 28.9974 82.999 29.0678L81.3833 27.8995Z" fill="#855A12"/>
<path id="25 12" d="M82.07 27.9204C81.8488 28.061 81.5784 28.0394 81.385 27.8996L83.0005 29.0677C83.1939 29.2076 83.4644 29.2293 83.6857 29.0886L82.07 27.9204Z" fill="#855A12"/>
<path id="12 13" d="M86.1898 25.3008L82.0693 27.9206L83.685 29.0889L87.8055 26.4691L86.1898 25.3008Z" fill="#855A12"/>
<path id="13 14" d="M86.8445 25.3011C86.6451 25.1744 86.3898 25.1744 86.1904 25.3011L87.8061 26.4694C88.0055 26.3426 88.2608 26.3426 88.4602 26.4694L86.8445 25.3011Z" fill="#855A12"/>
<path id="14 20" d="M89.0656 26.7141L86.8428 25.3008L88.4585 26.4691L90.6813 27.8824L89.0656 26.7141Z" fill="#855A12"/>
<path id="23 4" d="M98.3447 14.4453C98.3905 14.5449 98.4584 14.6248 98.5392 14.6831L100.155 15.8513C100.074 15.7929 100.006 15.7132 99.9604 15.6136L98.3447 14.4453Z" fill="#855A12"/>
<path id="3 23" d="M98.5391 14.6831C98.7728 14.852 99.1139 14.8416 99.3347 14.6133L100.95 15.7816C100.73 16.0099 100.388 16.0203 100.155 15.8514L98.5391 14.6831Z" fill="#855A12"/>
<path id="20 15" d="M91.2911 28.1283L89.0664 26.7139L90.6821 27.8821L92.9068 29.2966L91.2911 28.1283Z" fill="#855A12"/>
<path id="2 3" d="M99.335 14.6136L108.914 4.70996L110.53 5.87824L100.951 15.7819L99.335 14.6136Z" fill="#855A12"/>
<path id="15 16" d="M91.9461 28.1289C91.7466 28.2557 91.4914 28.2557 91.292 28.1289L92.9077 29.2972C93.1071 29.424 93.3624 29.424 93.5618 29.2972L91.9461 28.1289Z" fill="#855A12"/>
<path id="24 2" d="M108.915 4.70952C109.156 4.4609 109.487 4.4784 109.712 4.64137L111.328 5.80954C111.102 5.64667 110.771 5.62923 110.531 5.8778L108.915 4.70952Z" fill="#855A12"/>
<path id="1 24" d="M109.713 4.6416C109.912 4.78526 110.028 5.04195 109.927 5.32902L111.542 6.49731C111.643 6.21023 111.527 5.95354 111.329 5.80988L109.713 4.6416Z" fill="#855A12"/>
<path id="16 17" d="M96.3928 25.3008L91.9453 28.1286L93.561 29.2968L98.0085 26.4691L96.3928 25.3008Z" fill="#855A12"/>
<path id="17 18" d="M97.0466 25.3011C96.8472 25.1744 96.592 25.1744 96.3926 25.3011L98.0083 26.4694C98.2077 26.3426 98.4629 26.3426 98.6624 26.4694L97.0466 25.3011Z" fill="#855A12"/>
<path id="18 21" d="M99.11 26.6126L97.0469 25.3008L98.6626 26.4691L100.726 27.7809L99.11 26.6126Z" fill="#855A12"/>
<path id="0 1_3" d="M109.926 5.3291L102.075 27.6158L103.691 28.7841L111.541 6.49738L109.926 5.3291Z" fill="#855A12"/>
<path id="21 19" d="M101.176 27.9252L99.1113 26.6123L100.727 27.7806L102.792 29.0935L101.176 27.9252Z" fill="#855A12"/>
<path id="0 19" d="M101.174 27.9257C101.504 28.1356 101.945 27.9842 102.074 27.6162L103.69 28.7845C103.56 29.1524 103.12 29.3039 102.79 29.094L101.174 27.9257Z" fill="#855A12"/>
</g>
<path id="Vector 80_2" d="M109.925 5.32923L102.075 27.616C101.945 27.9839 101.505 28.1353 101.175 27.9254L97.0468 25.3008C96.8474 25.174 96.5921 25.174 96.3927 25.3008L91.9453 28.1285C91.7458 28.2553 91.4906 28.2553 91.2912 28.1285L86.8437 25.3008C86.6443 25.174 86.389 25.174 86.1896 25.3008L82.0692 27.9206C81.7366 28.132 81.293 27.9767 81.1667 27.6047L73.612 5.35393C73.4029 4.73807 74.1843 4.27267 74.6308 4.74709L83.9011 14.5957C84.1965 14.9096 84.7173 14.8248 84.8969 14.4337L91.0657 0.995903C91.282 0.524804 91.9545 0.524803 92.1707 0.995902L98.345 14.4456C98.5231 14.8335 99.038 14.9209 99.3352 14.6136L108.915 4.70996C109.367 4.24218 110.141 4.71648 109.925 5.32923Z" fill="url(#paint3_linear_11157_46766)"/>
</g>
</g>
<defs>
<linearGradient id="paint0_linear_11157_46766" x1="68.1916" y1="1.95312" x2="68.1916" y2="29.9264" gradientUnits="userSpaceOnUse">
<stop stop-color="#D0D0D0"/>
<stop offset="0.483955" stop-color="white"/>
<stop offset="1" stop-color="#B7B7B7"/>
</linearGradient>
<linearGradient id="paint1_linear_11157_46766" x1="68.1916" y1="-2.83033" x2="68.1916" y2="32.2551" gradientUnits="userSpaceOnUse">
<stop stop-color="#D0D0D0"/>
<stop offset="0.28436" stop-color="white"/>
<stop offset="0.646018" stop-color="white"/>
<stop offset="1" stop-color="#B7B7B7"/>
</linearGradient>
<linearGradient id="paint2_linear_11157_46766" x1="81.089" y1="25.6276" x2="81.089" y2="61.5625" gradientUnits="userSpaceOnUse">
<stop stop-color="#F4E38B"/>
<stop offset="0.529768" stop-color="#F4DD62"/>
<stop offset="1" stop-color="#B27F2A"/>
</linearGradient>
<linearGradient id="paint3_linear_11157_46766" x1="73.5666" y1="14.4331" x2="109.952" y2="14.4331" gradientUnits="userSpaceOnUse">
<stop stop-color="#B6852E"/>
<stop offset="0.118686" stop-color="#C49839"/>
<stop offset="0.210807" stop-color="#D9B74B"/>
<stop offset="0.33" stop-color="#F4DD62"/>
<stop offset="0.489963" stop-color="#F4E38B"/>
<stop offset="0.685372" stop-color="#F4DD62"/>
<stop offset="0.975694" stop-color="#B27F2A"/>
</linearGradient>
</defs>
</svg>
