<svg width="143" height="44" viewBox="0 0 143 44" fill="none" xmlns="http://www.w3.org/2000/svg">
<path d="M29.5514 28.8998H32.683L31.7663 33.5114C30.6365 34.3213 29.1252 34.7795 27.4281 34.7795C24.1132 34.7795 21.9453 32.8377 21.9453 29.9994C21.9453 26.2423 24.74 23.5996 28.818 23.5996C31.0627 23.5996 32.6657 24.3179 33.674 25.6924L31.0924 27.6911C30.4037 26.8045 29.6579 26.5172 28.6496 26.5172C26.7716 26.5172 25.5799 27.8595 25.5799 29.7691C25.5799 31.0223 26.4495 31.8594 27.9311 31.8594C28.2829 31.8594 28.6347 31.8148 28.9865 31.7083L29.5514 28.8998Z" fill="white"/>
<path d="M33.7013 29.9994C33.7013 26.2274 36.5108 23.5996 40.4377 23.5996C43.7676 23.5996 45.8586 25.5686 45.8586 28.3797C45.8586 32.1517 43.0491 34.7795 39.1222 34.7795C35.7923 34.7795 33.7013 32.8105 33.7013 29.9994ZM42.2241 28.5951C42.2241 27.3593 41.4461 26.5197 40.1305 26.5197C38.3591 26.5197 37.3359 28.0305 37.3359 29.7864C37.3359 31.0248 38.1138 31.8644 39.4294 31.8644C41.2008 31.8644 42.2241 30.3536 42.2241 28.5976V28.5951Z" fill="white"/>
<path d="M48.2074 23.8473H51.8123L50.239 31.7405H55.0653L54.5004 34.5367H46.0693L48.2074 23.8498V23.8473Z" fill="white"/>
<path d="M57.6393 23.8473H62.4655C65.8424 23.8473 67.9186 25.5711 67.9186 28.3821C67.9186 32.1541 65.1214 34.5367 61.2292 34.5367H55.5011L57.6393 23.8498V23.8473ZM61.3506 31.7257C63.2608 31.7257 64.284 30.3511 64.284 28.5951C64.284 27.3592 63.5061 26.6559 62.0542 26.6559H60.6792L59.6708 31.7257H61.3506Z" fill="white"/>
<path d="M73.2579 26.5642L73.0126 27.8174H77.5341L77.0163 30.413H72.4799L72.2049 31.8173H77.5663L77.0163 34.5343H68.1268L70.265 23.8473H78.9562L78.4062 26.5642H73.2579Z" fill="white"/>
<path d="M91.0913 23.8473L88.9532 34.5343H85.9901L82.9204 29.5561L81.9269 34.5343H78.4137L80.5518 23.8473H83.515L86.5847 28.8255L87.5782 23.8473H91.0913Z" fill="white"/>
<path d="M92.9199 33.7366L94.3106 31.0792C95.5019 31.7657 96.7243 32.0708 97.9156 32.0708C98.8469 32.0708 99.3359 31.8264 99.3359 31.4435C99.3359 30.3148 94.2498 30.9702 94.2498 27.6575C94.2498 25.229 96.2821 23.6411 99.6567 23.6411C101.245 23.6411 102.665 23.9618 103.659 24.5565L102.362 27.1842C101.507 26.6503 100.468 26.3903 99.4293 26.3903C98.3906 26.3903 97.8565 26.7421 97.8565 27.108C97.8565 28.2849 102.958 27.5361 102.958 30.8348C102.958 33.2166 100.881 34.8216 97.5512 34.8216C95.642 34.8216 93.9462 34.3624 92.923 33.7381L92.9199 33.7366Z" fill="white"/>
<path d="M107.087 26.683H103.955L104.52 23.8887H114.387L113.822 26.683H110.69L109.117 34.5772H105.512L107.085 26.683H107.087Z" fill="white"/>
<path d="M120.442 32.7139H116.363L115.293 34.5757H111.49L118.303 23.8872H121.848L124.383 34.5757H120.794L120.442 32.7139ZM119.937 30.1172L119.418 27.3836L117.846 30.1172H119.939H119.937Z" fill="white"/>
<path d="M133.462 31.4622L135.25 34.5772H131.508L129.996 31.8903H129.109L128.575 34.5772H124.97L127.108 23.8887H131.905C134.731 23.8887 136.351 25.187 136.351 27.4007C136.351 29.3092 135.282 30.7757 133.464 31.4622H133.462ZM131.355 26.6659H130.148L129.644 29.1707H131.126C132.118 29.1707 132.699 28.6523 132.699 27.7509C132.699 26.9881 132.18 26.6674 131.355 26.6674V26.6659Z" fill="white"/>
<path fill-rule="evenodd" clip-rule="evenodd" d="M20.7366 4.02099C20.6796 3.36466 20.6424 2.69348 20.6325 2H20.1593C20.1544 2.39627 20.1395 2.78512 20.1222 3.169C19.5176 13.4795 10.9627 21.6551 0.5 21.6551V22.1282C11.3591 22.1282 20.1618 30.9304 20.1618 41.7833H20.635C20.635 39.1159 21.1702 36.5723 22.1339 34.2541C21.0735 33.1693 20.4616 31.7056 20.4616 30.0041C20.4616 27.7676 21.3064 25.7442 22.84 24.3102C24.3513 22.896 26.4746 22.1183 28.8208 22.1183C30.6641 22.1183 32.1952 22.5418 33.4018 23.3764C35.5474 22.5715 37.8713 22.1307 40.2968 22.1307V21.6576C30.1191 21.6576 21.7499 13.9253 20.7391 4.02347L20.7366 4.02099Z" fill="#FFE300"/>
<path fill-rule="evenodd" clip-rule="evenodd" d="M20.7391 4.02193C20.6821 3.3653 20.6449 2.6938 20.635 2H20.1617C20.1568 2.39646 20.1419 2.78548 20.1246 3.16955C19.52 13.4848 10.9639 21.6642 0.5 21.6642V22.1375C11.3604 22.1375 20.1642 30.9438 20.1642 41.8017H20.6375C20.6375 39.1331 21.1727 36.5883 22.1366 34.269C21.076 33.1837 20.464 31.7193 20.464 30.017C20.464 27.7795 21.309 25.7551 22.8428 24.3205C24.3542 22.9056 26.4778 22.1276 28.8243 22.1276C30.6678 22.1276 32.1991 22.5513 33.4058 23.3863C35.5516 22.581 37.8759 22.14 40.3017 22.14V21.6667C30.1227 21.6667 21.7525 13.9308 20.7415 4.0244L20.7391 4.02193Z" fill="url(#paint0_linear_1361_1506)"/>
<defs>
<linearGradient id="paint0_linear_1361_1506" x1="18.1367" y1="24.0799" x2="28.6233" y2="13.5932" gradientUnits="userSpaceOnUse">
<stop stop-color="#FF7700" stop-opacity="0"/>
<stop offset="0.514423" stop-color="#FF0070" stop-opacity="0.4"/>
<stop offset="1" stop-color="#BA40EE"/>
</linearGradient>
</defs>
</svg>
