<svg xmlns="http://www.w3.org/2000/svg" width="112" height="27" viewBox="0 0 112 27" fill="none">
    <path d="M26.0539 5.36792C28.0606 5.49291 30.0989 6.20118 31.4808 7.64993C32.8193 9.01156 33.4144 10.8163 33.4381 12.6647C33.4302 13.5093 33.2107 14.3596 33.0506 15.1891C29.7272 15.2005 26.4038 15.1739 23.0824 15.2042C23.5727 16.1492 24.2548 16.689 25.3105 16.9996C26.8012 17.3556 28.3314 17.0488 29.6224 16.2742C30.7988 17.1094 31.9751 17.9446 33.0941 18.8498C31.5698 20.2891 29.5394 20.9443 27.4418 21.111C26.1646 21.1204 24.9448 21.2492 23.7467 20.8288C21.4376 20.1319 19.5772 18.4142 18.6776 16.2723C17.0664 12.8673 18.4147 8.28056 21.7974 6.33943C23.0963 5.65009 24.5613 5.25808 26.0539 5.36792ZM23.0528 11.2595C24.8717 11.3485 26.7044 11.3068 28.5272 11.2879C28.3057 10.2671 27.6513 9.59106 26.5758 9.38843C25.785 9.33351 25.0041 9.25207 24.3023 9.66681C23.6182 10.0191 23.3434 10.6061 23.0528 11.2595Z" fill="#44C811"/>
    <path d="M26.0539 5.36792C28.0606 5.49291 30.0989 6.20118 31.4808 7.64993C32.8193 9.01156 33.4144 10.8163 33.4381 12.6647C33.4302 13.5093 33.2107 14.3596 33.0506 15.1891C29.7272 15.2005 26.4038 15.1739 23.0824 15.2042C23.5727 16.1492 24.2548 16.689 25.3105 16.9996C26.8012 17.3556 28.3314 17.0488 29.6224 16.2742C30.7988 17.1094 31.9751 17.9446 33.0941 18.8498C31.5698 20.2891 29.5394 20.9443 27.4418 21.111C26.1646 21.1204 24.9448 21.2492 23.7467 20.8288C21.4376 20.1319 19.5772 18.4142 18.6776 16.2723C17.0664 12.8673 18.4147 8.28056 21.7974 6.33943C23.0963 5.65009 24.5613 5.25808 26.0539 5.36792ZM23.0528 11.2595C24.8717 11.3485 26.7044 11.3068 28.5272 11.2879C28.3057 10.2671 27.6513 9.59106 26.5758 9.38843C25.785 9.33351 25.0041 9.25207 24.3023 9.66681C23.6182 10.0191 23.3434 10.6061 23.0528 11.2595Z" fill="url(#paint0_linear_408_19273)"/>
    <path d="M40.7775 5.79936C43.0471 5.21797 45.5955 5.56264 47.5389 6.85799C48.9703 7.82761 50.1189 9.17598 50.6764 10.78C51.1608 11.992 51.1845 13.2495 51.0481 14.5259C50.7377 16.3799 49.7393 18.1052 48.2585 19.3343C46.8904 20.4118 45.0518 21.2015 43.2567 21.139C42.28 21.1542 41.337 21.1523 40.4117 20.8057C37.1397 19.8323 34.6685 16.7417 34.793 13.4219C34.5973 9.9335 37.2821 6.65346 40.7775 5.79936ZM41.9063 10.157C40.0756 10.6456 38.9033 12.7117 39.6229 14.4237C40.0796 15.8061 41.5485 16.7341 43.0392 16.7208C44.2768 16.6602 45.461 15.986 46.0344 14.9217C46.4693 14.24 46.4219 13.3499 46.3428 12.581C46.0561 11.2175 44.7374 10.0717 43.2586 10.0717C42.8118 10.0604 42.3433 10.0585 41.9063 10.157Z" fill="#44C811"/>
    <path d="M40.7775 5.79936C43.0471 5.21797 45.5955 5.56264 47.5389 6.85799C48.9703 7.82761 50.1189 9.17598 50.6764 10.78C51.1608 11.992 51.1845 13.2495 51.0481 14.5259C50.7377 16.3799 49.7393 18.1052 48.2585 19.3343C46.8904 20.4118 45.0518 21.2015 43.2567 21.139C42.28 21.1542 41.337 21.1523 40.4117 20.8057C37.1397 19.8323 34.6685 16.7417 34.793 13.4219C34.5973 9.9335 37.2821 6.65346 40.7775 5.79936ZM41.9063 10.157C40.0756 10.6456 38.9033 12.7117 39.6229 14.4237C40.0796 15.8061 41.5485 16.7341 43.0392 16.7208C44.2768 16.6602 45.461 15.986 46.0344 14.9217C46.4693 14.24 46.4219 13.3499 46.3428 12.581C46.0561 11.2175 44.7374 10.0717 43.2586 10.0717C42.8118 10.0604 42.3433 10.0585 41.9063 10.157Z" fill="url(#paint1_linear_408_19273)"/>
    <path d="M7.4451 4.96477C8.22207 4.95909 9.02474 4.94015 9.79183 5.07082C11.1085 5.36057 12.3541 5.97037 13.3643 6.83015C15.0092 8.26942 15.9087 10.3753 15.8949 12.5001C15.9048 15.1136 15.891 17.7289 15.8989 20.3423C14.3469 20.3423 12.793 20.3404 11.241 20.3442C11.243 17.9145 11.237 15.4829 11.2449 13.0531C11.2291 12.1062 11.1322 11.1177 10.4462 10.3791C9.26594 9.06671 6.94491 9.01936 5.65193 10.203C5.07662 10.7598 4.70296 11.5002 4.73459 12.2937C4.72866 14.9734 4.72866 17.655 4.73459 20.3347C3.15693 20.3499 1.57926 20.3366 0.00159292 20.3442C0.007524 17.7895 0.00356584 15.2367 0.00356584 12.6838C-0.0656301 10.5211 0.87544 8.31109 2.548 6.84719C3.87657 5.70334 5.64007 4.93825 7.4451 4.96477Z" fill="#44C811"/>
    <path d="M7.4451 4.96477C8.22207 4.95909 9.02474 4.94015 9.79183 5.07082C11.1085 5.36057 12.3541 5.97037 13.3643 6.83015C15.0092 8.26942 15.9087 10.3753 15.8949 12.5001C15.9048 15.1136 15.891 17.7289 15.8989 20.3423C14.3469 20.3423 12.793 20.3404 11.241 20.3442C11.243 17.9145 11.237 15.4829 11.2449 13.0531C11.2291 12.1062 11.1322 11.1177 10.4462 10.3791C9.26594 9.06671 6.94491 9.01936 5.65193 10.203C5.07662 10.7598 4.70296 11.5002 4.73459 12.2937C4.72866 14.9734 4.72866 17.655 4.73459 20.3347C3.15693 20.3499 1.57926 20.3366 0.00159292 20.3442C0.007524 17.7895 0.00356584 15.2367 0.00356584 12.6838C-0.0656301 10.5211 0.87544 8.31109 2.548 6.84719C3.87657 5.70334 5.64007 4.93825 7.4451 4.96477Z" fill="url(#paint2_linear_408_19273)"/>
    <path d="M61.2019 5.20841C63.3193 5.5152 65.3279 6.25567 67.1369 7.34839C66.528 8.36914 65.8993 9.37852 65.2469 10.3765C63.5011 9.25164 61.4747 8.53958 59.3454 8.81607C58.8235 8.91076 58.2304 9.07741 57.9338 9.53571C57.6828 9.83303 57.8824 10.2951 58.2106 10.4504C59.1062 10.9314 60.1817 11.153 61.1603 11.4257C62.222 11.687 63.2481 12.0507 64.2643 12.4427C65.3556 12.882 66.3836 13.5619 67.0222 14.5353C67.4928 15.2871 67.5244 16.109 67.4413 16.9612C67.2773 18.4554 66.3441 19.8379 64.9918 20.5973C63.8432 21.2848 62.5621 21.5309 61.2276 21.6218C58.0604 21.709 55.2807 20.7318 52.4595 19.4781C53.0051 18.2452 53.5192 17.0029 54.0866 15.7795C56.1011 16.7813 58.179 17.5294 60.4664 17.6582C61.0892 17.6771 61.8978 17.6013 62.3485 17.1355C62.649 16.8912 62.6253 16.5105 62.5482 16.1734C62.1884 15.7738 61.5281 15.592 61.018 15.4292C59.6677 15.058 58.2976 14.791 56.977 14.3194C55.595 13.8479 54.2862 13.1453 53.4678 11.9408C52.9399 11.1549 52.9142 10.1398 53.0012 9.23838C53.1929 7.76881 54.225 6.56057 55.599 5.92805C57.3803 5.04554 59.2505 5.03229 61.2019 5.20841Z" fill="white"/>
    <path d="M103.546 5.51335C104.323 5.50767 105.126 5.48873 105.893 5.6194C107.21 5.90915 108.455 6.51895 109.466 7.37873C111.111 8.81801 112.01 10.9239 111.996 13.0487C112.006 15.6622 111.992 18.2775 112 20.8909C110.448 20.8909 108.894 20.889 107.342 20.8928C107.344 18.4631 107.338 16.0314 107.346 13.6017C107.33 12.6548 107.234 11.6663 106.548 10.9277C105.367 9.61529 103.046 9.56795 101.753 10.7516C101.178 11.3083 100.804 12.0488 100.836 12.8423C100.83 15.522 100.83 18.2036 100.836 20.8833C99.2583 20.8985 97.6806 20.8852 96.1029 20.8928C96.1089 18.3381 96.1049 15.7852 96.1049 13.2324C96.0357 11.0697 96.9768 8.85967 98.6494 7.39577C99.9779 6.25193 101.741 5.48684 103.546 5.51335Z" fill="white"/>
    <path d="M88.586 5.77101C90.0608 5.77101 91.5377 5.76722 93.0125 5.77291C93.0086 10.8104 93.0086 15.8478 93.0125 20.8872C91.5377 20.8948 90.0608 20.891 88.586 20.8891C88.582 15.8497 88.582 10.8104 88.586 5.77101Z" fill="white"/>
    <path d="M78.2481 5.89568C81.698 5.89568 84.8494 8.20042 85.8636 11.3441C87.1051 14.8438 85.3792 18.8643 82.0103 20.6123C80.4584 21.4626 78.6336 21.7296 76.882 21.4342C76.0002 21.2656 75.332 20.8168 74.5965 20.3585C74.5708 22.2428 74.5945 24.1253 74.5807 26.0096C73.0109 26.019 71.4392 26.0153 69.8694 26.0134C69.8596 22.1311 69.8714 18.2488 69.8635 14.3666C69.8121 12.9084 70.0968 11.3611 70.8224 10.0658C72.2241 7.4732 75.1876 5.76501 78.2481 5.89568ZM77.7163 10.3764C75.9389 10.562 74.4977 12.0694 74.5846 13.8003C74.5807 15.6563 76.3165 17.1959 78.2461 17.088C80.1223 17.0236 81.6663 15.4025 81.5517 13.6053C81.5457 11.7077 79.6696 10.1643 77.7163 10.3764Z" fill="white"/>
    <path d="M42.3633 12.1029C42.8618 11.9589 43.5691 11.9387 43.9768 12.3278C44.5932 12.8355 44.6865 13.8801 44.1413 14.4763C43.5568 15.2303 42.2602 15.1836 41.7641 14.3449C41.2275 13.5845 41.5492 12.4907 42.3633 12.1029Z" fill="white"/>
    <path d="M89.7542 0.142597C90.5569 -0.0732948 91.6957 -0.103595 92.352 0.479691C93.3445 1.24099 93.4948 2.80716 92.617 3.70102C91.6759 4.83161 89.5882 4.76154 88.7894 3.50407C87.9255 2.36401 88.4435 0.72399 89.7542 0.142597Z" fill="#A0DC04"/>
    <defs>
        <linearGradient id="paint0_linear_408_19273" x1="-0.000244196" y1="17.9604" x2="50.9998" y2="12.9605" gradientUnits="userSpaceOnUse">
            <stop stop-color="#44C811"/>
            <stop offset="1" stop-color="#A4DD03"/>
        </linearGradient>
        <linearGradient id="paint1_linear_408_19273" x1="-0.000244196" y1="17.9604" x2="50.9998" y2="12.9605" gradientUnits="userSpaceOnUse">
            <stop stop-color="#44C811"/>
            <stop offset="1" stop-color="#A4DD03"/>
        </linearGradient>
        <linearGradient id="paint2_linear_408_19273" x1="-0.000244196" y1="17.9604" x2="50.9998" y2="12.9605" gradientUnits="userSpaceOnUse">
            <stop stop-color="#44C811"/>
            <stop offset="1" stop-color="#A4DD03"/>
        </linearGradient>
    </defs>
</svg>