<svg width="161" height="68" viewBox="0 0 161 68" fill="none" xmlns="http://www.w3.org/2000/svg">
<path d="M34.2977 11.3489C34.9176 10.4113 36.3749 11.1373 35.9881 12.1927C30.2149 27.8718 31.6764 37.6696 33.5008 41.7659C33.5358 41.844 33.5581 41.9315 33.5711 42.0237C33.7403 42.5606 33.7316 43 33.5154 43.3196C32.3178 45.0899 25.3104 42.5008 17.7469 37.5257L4.75859 56.7493H4.75468C4.13472 57.6871 2.67825 56.9611 3.06523 55.9056C8.65057 40.7201 7.43975 30.8235 5.70097 26.4818C5.61652 26.3049 5.54632 26.1366 5.49297 25.9759C5.48547 25.9533 5.47817 25.9307 5.47246 25.9075C5.30936 25.379 5.32118 24.9462 5.53496 24.6302C6.73656 22.8546 13.7833 25.4655 21.3738 30.471L34.2977 11.345V11.3489Z" fill="url(#paint0_linear_2008_692)"/>
<path d="M61.319 37.1141C62.3118 37.1141 63.2118 37.2562 64.0192 37.5398C64.8373 37.8126 65.5518 38.1888 66.1627 38.6687C66.7846 39.1488 67.3028 39.7163 67.7174 40.3709C68.1429 41.0146 68.4707 41.7128 68.6998 42.4656H65.6393C65.4647 41.9965 65.2572 41.5493 65.0172 41.1238C64.7881 40.6874 64.4991 40.3103 64.15 39.9939C63.8119 39.6668 63.3967 39.4108 62.9059 39.2254C62.4259 39.0291 61.8534 38.9305 61.1881 38.9305C60.5554 38.9305 60.021 39.013 59.5846 39.1766C59.1482 39.3402 58.7929 39.5524 58.5201 39.8143C58.2584 40.0652 58.0679 40.3495 57.9479 40.6658C57.8279 40.9821 57.7682 41.2931 57.7682 41.5984C57.7682 42.1329 57.9208 42.6125 58.2262 43.0379C58.5426 43.4634 58.9566 43.8623 59.4694 44.2332C59.982 44.6041 60.5659 44.9585 61.2203 45.2967C61.8749 45.624 62.541 45.9622 63.2174 46.3113C63.9047 46.6495 64.5756 47.0096 65.2301 47.3914C65.8847 47.7623 66.4683 48.1716 66.9811 48.6189C67.4938 49.0663 67.9031 49.5627 68.2086 50.1082C68.5249 50.6536 68.6832 51.2697 68.6832 51.9568C68.6832 52.7642 68.5136 53.5174 68.1754 54.2156C67.8481 54.9029 67.3573 55.5027 66.7028 56.0154C66.0482 56.5282 65.2353 56.9318 64.2643 57.2264C63.2933 57.5209 62.1753 57.6687 60.9098 57.6687C59.7315 57.6687 58.695 57.5323 57.8004 57.2596C56.9058 56.9759 56.1478 56.5884 55.526 56.0975C54.9041 55.6065 54.4077 55.0229 54.0367 54.3465C53.6767 53.6701 53.4256 52.9282 53.2838 52.1209H56.6383C56.7583 52.6118 56.9326 53.0704 57.1617 53.4959C57.3908 53.9214 57.6751 54.2975 58.0133 54.6248C58.3624 54.9412 58.7717 55.1923 59.2408 55.3777C59.7098 55.5522 60.255 55.6394 60.8766 55.6395C61.2911 55.6395 61.7006 55.5958 62.1041 55.5086C62.5077 55.4213 62.8679 55.2791 63.1842 55.0828C63.5005 54.8865 63.7574 54.6305 63.9537 54.3143C64.1501 53.987 64.2487 53.5938 64.2487 53.1355C64.2487 52.5464 64.0952 52.0225 63.7897 51.5643C63.4842 51.1062 63.0861 50.6919 62.5953 50.3211C62.1044 49.9392 61.5426 49.5839 60.9098 49.2566C60.2771 48.9294 59.6279 48.6024 58.9625 48.2752C58.2971 47.9479 57.648 47.6096 57.0153 47.2605C56.3826 46.9006 55.8206 46.4968 55.3297 46.0496C54.8388 45.6023 54.4399 45.1002 54.1344 44.5437C53.8291 43.9875 53.6765 43.3494 53.6764 42.6297C53.6764 41.8442 53.846 41.1184 54.1842 40.4529C54.5333 39.7766 55.0347 39.1928 55.6891 38.702C56.3437 38.2001 57.1462 37.8126 58.0953 37.5398C59.0444 37.2562 60.119 37.1141 61.319 37.1141ZM116.158 50.1541V37.5535H119.218V57.6658H117.107L104.85 43.7557V57.3553H101.773V37.5535H104.866L116.158 50.1541ZM79.6315 37.5535C80.7443 37.5535 81.7865 37.6729 82.7574 37.9129C83.7282 38.142 84.5679 38.4917 85.277 38.9607C85.9969 39.4189 86.5646 39.997 86.9791 40.6951C87.3936 41.3823 87.6011 42.1898 87.6012 43.117C87.6012 44.0552 87.3937 44.8738 86.9791 45.5721C86.5755 46.2703 86.041 46.8539 85.3756 47.323C84.7102 47.7812 83.952 48.1252 83.1012 48.3543C82.2502 48.5834 81.3767 48.698 80.4821 48.698H77.6188V57.3553H72.7418V37.5535H79.6315ZM96.6842 57.3553H91.8239V37.5535H96.6842V57.3553ZM77.6188 46.9139H79.2057C79.7512 46.9139 80.2316 46.8163 80.6461 46.6199C81.0607 46.4126 81.4046 46.1398 81.6774 45.8016C81.9501 45.4524 82.1519 45.0536 82.2828 44.6062C82.4246 44.1591 82.4957 43.6898 82.4957 43.199C82.4957 42.5992 82.4028 42.0702 82.2174 41.6121C82.0429 41.143 81.7974 40.7498 81.4811 40.4334C81.1757 40.1171 80.8154 39.8773 80.401 39.7137C79.9864 39.55 79.5383 39.4676 79.0582 39.4676H77.6188V46.9139ZM86.7174 10.3016C88.3101 10.3016 89.794 10.5527 91.1686 11.0545C92.554 11.5563 93.7536 12.2604 94.7682 13.1658C95.7828 14.0604 96.5796 15.1348 97.1578 16.3895C97.7469 17.6331 98.0416 18.9966 98.0416 20.4803C98.0416 22.0513 97.747 23.4867 97.1578 24.785C96.5796 26.0722 95.7827 27.179 94.7682 28.1062C93.7536 29.0226 92.554 29.7323 91.1686 30.2342C89.794 30.736 88.3101 30.9871 86.7174 30.9871C85.6592 30.9871 84.6387 30.8668 83.6569 30.6268C82.6859 30.3976 81.7801 30.0651 80.9401 29.6287C80.1 29.1923 79.3364 28.6627 78.649 28.0408C77.9727 27.419 77.389 26.7206 76.8981 25.9461C76.4181 25.1606 76.0466 24.3154 75.7848 23.41C75.523 22.4935 75.3922 21.5224 75.3922 20.4969C75.3922 19.4932 75.523 18.5495 75.7848 17.6658C76.0466 16.7712 76.418 15.9469 76.8981 15.1941C77.3889 14.4306 77.9728 13.7491 78.649 13.1492C79.3363 12.5492 80.1001 12.0366 80.9401 11.6111C81.7801 11.1856 82.6859 10.8635 83.6569 10.6453C84.6278 10.4162 85.6482 10.3016 86.7174 10.3016ZM68.5035 23.3416V10.741H71.5631V30.8533H69.4528L57.1949 16.9432V30.5428H54.1178V10.741H57.2115L68.5035 23.3416ZM109.3 10.741C110.588 10.741 111.711 10.8775 112.672 11.1502C113.632 11.412 114.434 11.7825 115.078 12.2625C115.721 12.7425 116.202 13.3158 116.518 13.9812C116.845 14.6357 117.008 15.3504 117.008 16.1248C117.008 16.6811 116.899 17.2156 116.681 17.7283C116.463 18.2302 116.152 18.6944 115.749 19.1199C115.356 19.5344 114.875 19.9107 114.308 20.2488C113.752 20.576 113.136 20.8433 112.46 21.0506L119.512 30.5428H114.243L107.583 21.574H106.715V30.5428H101.871V10.741H109.3ZM138.873 12.41H132.015V30.5428H127.172V12.41H120.315V10.741H138.873V12.41ZM147.202 19.4139H155.172V10.741H160V30.5428H155.172V21.116H147.202V30.5428H142.358V10.741H147.202V19.4139ZM86.7174 11.9871C85.7466 11.9871 84.8898 12.1995 84.1481 12.6248C83.4062 13.0394 82.7837 13.624 82.2819 14.3768C81.7801 15.1295 81.4038 16.0298 81.153 17.077C80.9021 18.1133 80.777 19.2533 80.777 20.4969C80.777 21.7733 80.902 22.9519 81.153 24.032C81.4039 25.1011 81.78 26.0288 82.2819 26.8143C82.7837 27.5888 83.4063 28.199 84.1481 28.6463C84.8899 29.0827 85.7465 29.3016 86.7174 29.3016C87.6773 29.3015 88.5227 29.0826 89.2535 28.6463C89.9952 28.1991 90.617 27.5886 91.1188 26.8143C91.6206 26.0288 91.9977 25.1011 92.2487 24.032C92.5105 22.9519 92.6412 21.7733 92.6412 20.4969C92.6412 19.2533 92.5104 18.1133 92.2487 17.077C91.9977 16.0296 91.6206 15.1295 91.1188 14.3768C90.6169 13.624 89.9954 13.0394 89.2535 12.6248C88.5227 12.1995 87.6772 11.9872 86.7174 11.9871ZM106.715 19.8562H107.779C108.368 19.8562 108.914 19.7738 109.416 19.6102C109.928 19.4465 110.37 19.2124 110.741 18.907C111.112 18.5907 111.401 18.2087 111.608 17.7615C111.826 17.3033 111.935 16.7898 111.935 16.2225C111.935 15.7098 111.854 15.2349 111.69 14.7986C111.526 14.3624 111.303 13.986 111.019 13.6697C110.736 13.3534 110.392 13.1079 109.988 12.9334C109.595 12.748 109.164 12.6551 108.695 12.6551H106.715V19.8562Z" fill="white"/>
<defs>
<linearGradient id="paint0_linear_2008_692" x1="34.4863" y1="12.0019" x2="5.17862" y2="56.5131" gradientUnits="userSpaceOnUse">
<stop stop-color="#DEB01A"/>
<stop offset="0.514423" stop-color="#AE3DBD"/>
<stop offset="1" stop-color="#7B61FF"/>
</linearGradient>
</defs>
</svg>
