<svg width="216" height="66" viewBox="0 0 216 66" fill="none" xmlns="http://www.w3.org/2000/svg">
<g clip-path="url(#clip0_114_5)">
<path fill-rule="evenodd" clip-rule="evenodd" d="M18.475 0L18.1457 1.64946C18.0365 1.97872 17.8165 2.30957 17.3764 2.41879L15.7269 2.74804L17.3764 3.07729C17.7056 3.1865 18.0365 3.40654 18.1457 3.84661L18.475 5.49607L18.8042 3.84661C18.9134 3.51736 19.1335 3.1865 19.5735 3.07729L21.223 2.74804L19.5735 2.41879C19.2443 2.30957 18.9134 2.08954 18.8042 1.64946L18.475 0ZM8.57818 10.5569C8.24893 11.8771 7.25797 12.9757 5.93936 13.1957L0 14.5159L5.93775 15.7253C7.25797 16.0546 8.35654 17.0455 8.57657 18.3641L9.78597 24.3019L10.9954 18.3641C11.3246 17.0439 12.3156 15.9454 13.6342 15.7253L19.5719 14.5159L13.6342 13.3065C12.314 12.9773 11.2154 11.9863 10.9954 10.6677L9.78597 4.72996L8.57818 10.5569ZM23.425 21.4446C23.3158 21.9939 22.8757 22.5448 22.2156 22.654L19.5768 23.2033L22.2156 23.7526C22.7649 23.8618 23.3158 24.3019 23.425 24.962L23.9743 27.6008L24.5235 24.962C24.6328 24.4127 25.0728 23.8618 25.7329 23.7526L28.3718 23.2033L25.7329 22.654C25.1836 22.5448 24.6328 22.1048 24.5235 21.4446L23.9743 18.8058L23.425 21.4446ZM19.7952 32.2216C14.956 32.2216 11.5479 34.0911 10.6677 39.0395L9.89839 43.3278C9.78918 43.657 9.78918 43.9879 9.78918 44.3171C9.78918 46.7359 11.4386 48.4962 13.639 49.9256L17.0488 52.1244C18.1489 52.7845 18.6982 53.5538 18.6982 54.7632C18.6982 55.0924 18.6982 55.4233 18.589 55.7525L18.1489 58.3914C17.8197 60.3717 16.4995 61.361 14.85 61.361C13.4206 61.361 12.5404 60.7009 12.5404 59.1623C12.5404 58.9423 12.5404 58.7222 12.6496 58.393L13.5298 53.4446H8.25054L7.26118 59.1639C7.15196 59.7132 7.15196 60.2641 7.15196 60.7042C7.15196 64.6632 10.1216 65.9834 14.0807 65.9834H14.1899C19.5784 65.9834 22.4372 64.2231 23.3174 59.0547L24.1975 54.3263C24.3067 53.8863 24.3067 53.4462 24.3067 53.0061C24.3067 50.5873 22.7665 49.2671 20.3477 47.7269L16.9379 45.5281C15.8378 44.868 15.3977 44.0987 15.3977 42.9985C15.3977 42.6693 15.3977 42.3384 15.5069 42.0091L15.947 39.6996C16.2762 37.61 17.5964 36.8407 19.1367 36.8407C20.4569 36.8407 21.4463 37.39 21.4463 38.9303C21.4463 39.1503 21.4463 39.3703 21.337 39.6996L20.4569 44.3187H25.7361L26.6163 38.9303C26.7255 38.381 26.7255 37.9409 26.7255 37.5008C26.7239 33.7618 23.425 32.2216 19.7952 32.2216ZM200.591 32.9925L200.261 34.7528H206.639L201.14 65.985H203.011L208.51 34.7528H214.888L215.217 32.9925H200.591ZM185.635 32.9925L179.915 65.985H192.453L192.782 64.2247H182.114L184.533 50.1489H193.66L193.99 48.3886H184.751L187.061 34.862H197.618L197.947 32.9925H185.635ZM164.519 32.9925L158.691 65.985H166.389C171.888 65.985 174.198 63.1262 174.856 59.4964L175.845 54.1079C175.845 53.7787 175.955 53.4478 175.955 53.1185C175.955 51.249 175.075 49.2687 172.876 48.9395C175.955 48.6102 177.164 46.1898 177.495 43.771L178.155 39.592C178.264 39.1519 178.264 38.7118 178.264 38.2718C178.264 35.3021 176.286 33.1033 172.216 33.1033H164.518L164.519 32.9925ZM166 34.5311H171.45C174.639 34.5311 175.849 35.7405 175.849 38.1609C175.849 38.7102 175.739 39.3703 175.629 40.0304L174.969 43.8803C174.528 46.6299 172.439 47.8393 169.031 47.8393H163.77L166 34.5311ZM163.421 49.4871H169.14C172.11 49.4871 173.539 50.4765 173.648 52.4568C173.648 52.6769 173.648 53.0061 173.539 53.337L172.659 58.2854C172.11 61.8043 170.569 63.6738 166.721 63.6738H161.002L163.421 49.4871ZM144.835 32.9925L139.006 65.985H153.742L154.622 61.1458H145.384L147.144 51.5783H154.733L155.613 46.7391H148.025L149.565 37.7209H158.583L159.463 32.9925H144.835ZM124.27 32.9925L118.551 65.985H123.94L126.249 52.7877H129.108L130.868 65.985H136.257L134.058 52.1292C136.477 51.1398 138.017 49.1595 138.566 45.8606L139.556 39.9228C139.665 39.3735 139.665 38.9335 139.665 38.3826C139.665 34.5328 136.586 32.8833 132.516 32.8833H124.269L124.27 32.9925ZM128.999 37.7209H131.748C133.289 37.7209 134.278 38.1609 134.278 39.8104C134.278 40.0304 134.278 40.3597 134.169 40.6905L133.399 44.9788C132.959 47.2884 131.75 47.9485 129.99 47.9485H127.24L128.999 37.7209ZM114.043 32.9925L108.434 65.985H113.823L119.431 32.9925H114.043ZM103.815 32.9925L101.396 46.7391H95.2385L97.6573 32.9925H92.2688L86.5495 65.985H91.938L94.4676 51.6891H100.625L98.0958 65.985H103.484L109.204 32.9925H103.815ZM71.7027 32.9925L65.9834 65.985H71.3719L73.5706 53.2278H76.5403C81.9288 53.2278 85.0077 51.2474 85.8878 46.299L86.988 40.0304C87.0972 39.4811 87.0972 39.0411 87.0972 38.4902C87.0972 34.6404 84.0183 32.9909 79.9485 32.9909C79.9501 32.9925 71.7027 32.9925 71.7027 32.9925ZM76.4311 37.7209H79.1807C80.721 37.7209 81.7103 38.1609 81.7103 39.8104C81.7103 40.0304 81.7103 40.3597 81.6011 40.6905L80.8318 45.0896C80.3917 47.3992 79.1823 47.9485 77.4221 47.9485H74.6724L76.4311 37.7209ZM51.2474 32.9925L45.5281 65.985H50.9166L53.1153 53.2278H56.085C61.4735 53.2278 64.5524 51.2474 65.4325 46.299L66.5327 40.0304C66.6419 39.4811 66.6419 39.0411 66.6419 38.4902C66.6419 34.6404 63.563 32.9909 59.4932 32.9909C59.4948 32.9925 51.2474 32.9925 51.2474 32.9925ZM55.9758 37.7209H58.7254C60.2657 37.7209 61.2551 38.1609 61.2551 39.8104C61.2551 40.0304 61.255 40.3597 61.1458 40.6905L60.3765 45.0896C59.9364 47.3992 58.727 47.9485 56.9668 47.9485H54.2171L55.9758 37.7209ZM35.3021 32.9925L23.5342 65.985H28.8134L31.2322 58.6162H37.17L37.0608 65.985H42.34L41.8999 32.9925H35.3021ZM37.7209 39.2611L37.3916 54.2171H32.9925L37.7209 39.2611Z" fill="url(#paint0_linear_114_5)"/>
<path fill-rule="evenodd" clip-rule="evenodd" d="M18.475 0L18.1457 1.64946C18.0365 1.97872 17.8165 2.30957 17.3764 2.41879L15.7269 2.74804L17.3764 3.07729C17.7056 3.1865 18.0365 3.40654 18.1457 3.84661L18.475 5.49607L18.8042 3.84661C18.9134 3.51736 19.1335 3.1865 19.5735 3.07729L21.223 2.74804L19.5735 2.41879C19.2443 2.30957 18.9134 2.08954 18.8042 1.64946L18.475 0ZM8.57818 10.5569C8.24893 11.8771 7.25797 12.9757 5.93936 13.1957L0 14.5159L5.93775 15.7253C7.25797 16.0546 8.35654 17.0455 8.57657 18.3641L9.78597 24.3019L10.9954 18.3641C11.3246 17.0439 12.3156 15.9454 13.6342 15.7253L19.5719 14.5159L13.6342 13.3065C12.314 12.9773 11.2154 11.9863 10.9954 10.6677L9.78597 4.72996L8.57818 10.5569ZM23.425 21.4446C23.3158 21.9939 22.8757 22.5448 22.2156 22.654L19.5768 23.2033L22.2156 23.7526C22.7649 23.8618 23.3158 24.3019 23.425 24.962L23.9743 27.6008L24.5235 24.962C24.6328 24.4127 25.0728 23.8618 25.7329 23.7526L28.3718 23.2033L25.7329 22.654C25.1836 22.5448 24.6328 22.1048 24.5235 21.4446L23.9743 18.8058L23.425 21.4446ZM19.7952 32.2216C14.956 32.2216 11.5479 34.0911 10.6677 39.0395L9.89839 43.3278C9.78918 43.657 9.78918 43.9879 9.78918 44.3171C9.78918 46.7359 11.4386 48.4962 13.639 49.9256L17.0488 52.1244C18.1489 52.7845 18.6982 53.5538 18.6982 54.7632C18.6982 55.0924 18.6982 55.4233 18.589 55.7525L18.1489 58.3914C17.8197 60.3717 16.4995 61.361 14.85 61.361C13.4206 61.361 12.5404 60.7009 12.5404 59.1623C12.5404 58.9423 12.5404 58.7222 12.6496 58.393L13.5298 53.4446H8.25054L7.26118 59.1639C7.15196 59.7132 7.15196 60.2641 7.15196 60.7042C7.15196 64.6632 10.1216 65.9834 14.0807 65.9834H14.1899C19.5784 65.9834 22.4372 64.2231 23.3174 59.0547L24.1975 54.3263C24.3067 53.8863 24.3067 53.4462 24.3067 53.0061C24.3067 50.5873 22.7665 49.2671 20.3477 47.7269L16.9379 45.5281C15.8378 44.868 15.3977 44.0987 15.3977 42.9985C15.3977 42.6693 15.3977 42.3384 15.5069 42.0091L15.947 39.6996C16.2762 37.61 17.5964 36.8407 19.1367 36.8407C20.4569 36.8407 21.4463 37.39 21.4463 38.9303C21.4463 39.1503 21.4463 39.3703 21.337 39.6996L20.4569 44.3187H25.7361L26.6163 38.9303C26.7255 38.381 26.7255 37.9409 26.7255 37.5008C26.7239 33.7618 23.425 32.2216 19.7952 32.2216ZM200.591 32.9925L200.261 34.7528H206.639L201.14 65.985H203.011L208.51 34.7528H214.888L215.217 32.9925H200.591ZM185.635 32.9925L179.915 65.985H192.453L192.782 64.2247H182.114L184.533 50.1489H193.66L193.99 48.3886H184.751L187.061 34.862H197.618L197.947 32.9925H185.635ZM164.519 32.9925L158.691 65.985H166.389C171.888 65.985 174.198 63.1262 174.856 59.4964L175.845 54.1079C175.845 53.7787 175.955 53.4478 175.955 53.1185C175.955 51.249 175.075 49.2687 172.876 48.9395C175.955 48.6102 177.164 46.1898 177.495 43.771L178.155 39.592C178.264 39.1519 178.264 38.7118 178.264 38.2718C178.264 35.3021 176.286 33.1033 172.216 33.1033H164.518L164.519 32.9925ZM166 34.5311H171.45C174.639 34.5311 175.849 35.7405 175.849 38.1609C175.849 38.7102 175.739 39.3703 175.629 40.0304L174.969 43.8803C174.528 46.6299 172.439 47.8393 169.031 47.8393H163.77L166 34.5311ZM163.421 49.4871H169.14C172.11 49.4871 173.539 50.4765 173.648 52.4568C173.648 52.6769 173.648 53.0061 173.539 53.337L172.659 58.2854C172.11 61.8043 170.569 63.6738 166.721 63.6738H161.002L163.421 49.4871ZM144.835 32.9925L139.006 65.985H153.742L154.622 61.1458H145.384L147.144 51.5783H154.733L155.613 46.7391H148.025L149.565 37.7209H158.583L159.463 32.9925H144.835ZM124.27 32.9925L118.551 65.985H123.94L126.249 52.7877H129.108L130.868 65.985H136.257L134.058 52.1292C136.477 51.1398 138.017 49.1595 138.566 45.8606L139.556 39.9228C139.665 39.3735 139.665 38.9335 139.665 38.3826C139.665 34.5328 136.586 32.8833 132.516 32.8833H124.269L124.27 32.9925ZM128.999 37.7209H131.748C133.289 37.7209 134.278 38.1609 134.278 39.8104C134.278 40.0304 134.278 40.3597 134.169 40.6905L133.399 44.9788C132.959 47.2884 131.75 47.9485 129.99 47.9485H127.24L128.999 37.7209ZM114.043 32.9925L108.434 65.985H113.823L119.431 32.9925H114.043ZM103.815 32.9925L101.396 46.7391H95.2385L97.6573 32.9925H92.2688L86.5495 65.985H91.938L94.4676 51.6891H100.625L98.0958 65.985H103.484L109.204 32.9925H103.815ZM71.7027 32.9925L65.9834 65.985H71.3719L73.5706 53.2278H76.5403C81.9288 53.2278 85.0077 51.2474 85.8878 46.299L86.988 40.0304C87.0972 39.4811 87.0972 39.0411 87.0972 38.4902C87.0972 34.6404 84.0183 32.9909 79.9485 32.9909C79.9501 32.9925 71.7027 32.9925 71.7027 32.9925ZM76.4311 37.7209H79.1807C80.721 37.7209 81.7103 38.1609 81.7103 39.8104C81.7103 40.0304 81.7103 40.3597 81.6011 40.6905L80.8318 45.0896C80.3917 47.3992 79.1823 47.9485 77.4221 47.9485H74.6724L76.4311 37.7209ZM51.2474 32.9925L45.5281 65.985H50.9166L53.1153 53.2278H56.085C61.4735 53.2278 64.5524 51.2474 65.4325 46.299L66.5327 40.0304C66.6419 39.4811 66.6419 39.0411 66.6419 38.4902C66.6419 34.6404 63.563 32.9909 59.4932 32.9909C59.4948 32.9925 51.2474 32.9925 51.2474 32.9925ZM55.9758 37.7209H58.7254C60.2657 37.7209 61.2551 38.1609 61.2551 39.8104C61.2551 40.0304 61.255 40.3597 61.1458 40.6905L60.3765 45.0896C59.9364 47.3992 58.727 47.9485 56.9668 47.9485H54.2171L55.9758 37.7209ZM35.3021 32.9925L23.5342 65.985H28.8134L31.2322 58.6162H37.17L37.0608 65.985H42.34L41.8999 32.9925H35.3021ZM37.7209 39.2611L37.3916 54.2171H32.9925L37.7209 39.2611Z" fill="url(#paint1_linear_114_5)"/>
</g>
<defs>
<linearGradient id="paint0_linear_114_5" x1="0" y1="32.9925" x2="214.582" y2="32.9925" gradientUnits="userSpaceOnUse">
<stop stop-color="#D5A77C"/>
<stop offset="0.450399" stop-color="#EFC090"/>
<stop offset="0.999261" stop-color="#7D5332"/>
</linearGradient>
<linearGradient id="paint1_linear_114_5" x1="-8.5" y1="45" x2="237.5" y2="45" gradientUnits="userSpaceOnUse">
<stop stop-color="#EBA837"/>
<stop offset="1" stop-color="#EBA837" stop-opacity="0"/>
</linearGradient>
<clipPath id="clip0_114_5">
<rect width="216" height="66" fill="white"/>
</clipPath>
</defs>
</svg>
