<svg width="185" height="84" fill="none" xmlns="http://www.w3.org/2000/svg"><path d="M65 12.642h.104L91.68 10.97l-.208 6.373v.209c.104.732.727 1.254 1.35 1.254.415 0 .83-.105 1.038-.418.207-.209.311-.418.415-.731l2.18-7.21v-.104l3.841-1.045c.623-.209 1.142-.73 1.142-1.462s-.519-1.254-1.246-1.463l-3.322-.627a55.49 55.49 0 0 1-.415-2.403c-.104-.731-.727-1.254-1.453-1.358-.52 0-1.039.209-1.454.731l-.104.105.104.209-1.142 2.507a.79.79 0 0 1-.519.21L65 9.611a1.462 1.462 0 0 0-1.246 1.463c-.104.94.52 1.462 1.246 1.567zm-23.254 59.2-30.936 1.92-.415-5.852v-.209c-.104-.626-.727-1.149-1.35-1.149-.727 0-1.35.523-1.453 1.15-.623 2.194-1.35 5.641-1.558 6.164-.103.313-.311.418-.311.418l-4.672 1.358c-.622.209-1.142.836-1.038 1.567.104.731.623 1.254 1.35 1.358l4.36.418.311 3.657v.209c.104.627.727 1.149 1.35 1.149.727 0 1.246-.418 1.453-1.045l1.454-3.656c.104-.105.104-.21.104-.21l31.247-4.216c.727-.105 1.35-.732 1.35-1.463.103-.94-.52-1.567-1.246-1.567z" fill="#A855F7"/><path d="m84.62 54.224.312-1.567c0-.105 1.66-9.403-2.492-12.015l-.104-.105c.52-.104 1.039-.313 1.35-.627.415-.417.727-.835 1.038-1.567 0 0 .727-3.657.83-3.97.104-.418-65.713-10.239-65.92-9.298-.312.94-.415 3.03-.312 4.074.208 1.985 1.558 3.448 1.765 3.657-.104.104-3.53 3.866-4.152 6.06-.208 1.044 0 1.985.623 2.716.726.836 2.076 2.299 2.076 2.299-2.284.522-5.502 18.701-5.71 20.477-.519 1.985-.311 3.343.312 4.284.311.522 1.141 1.358 2.595 1.358.415 0 .83 0 1.246-.105.726 0 1.35-.104 1.972-.104.311 0 3.53-.209 4.153-.418.207.105.415.105.726.105.208 0 1.142-.105 1.35-.105.727-.104 1.453-.104 2.076-.104 0 0 1.869-.314 2.492-.732.519.314 1.038.418 1.764.418.727 0 1.454-.104 2.596-.209.519 0 1.142 0 1.868-.313.208.104.52.104.727.104.104 0 1.246-.104 1.557-.104.83 0 1.869-.105 2.907-.732.104 0 .104-.104.207-.104.52.418 1.246.627 1.973.627.519 0 .934 0 1.453-.21.104 0 1.454-.103 1.973-.208h1.142c.623 0 1.245-.105 1.868-.105 3.738-.104 6.23-.208 8.202-1.358.415.314 1.141.627 2.076.732.519 0 2.18-.21 2.595-.21h.415l.208-.104h.83c1.35 0 2.7-.104 3.738-.418.311.105.623.105 1.038.21.311 0 .727 0 1.142-.105h.415c.727 0 2.076 0 3.218-.627.415.209.83.313 1.246.313.519 0 1.35-.104 1.35-.104h.519c1.141 0 3.84-.105 4.671-3.866 0 0 .636-2.669.74-2.982l1.336-4.958z" fill="#A855F7"/><path fill-rule="evenodd" clip-rule="evenodd" d="M85.866 12.85c1.142 0 1.765.523 2.076.941.727.94.52 2.09.52 2.403-1.039 6.582-1.246 13.896-3.323 20.269-.207.627-.519 1.149-1.038 1.567-.311.313-.83.522-1.35.627 4.257 2.403 2.596 11.91 2.596 12.015-.415 2.09-1.038 3.552-1.66 4.492.622 1.567 0 3.135-.312 4.075-.935 2.403-1.973 4.283-4.88 4.388-.207 0-.519 0-.83.104-.415 0-.83.105-1.142.105-.415 0-.934-.105-1.246-.314-1.35.732-3.322.732-4.775.732-.415 0-.727-.105-1.038-.21-.83.314-1.765.314-2.596.314-.726 0-1.557 0-2.283.21-.52 0-.935 0-1.454.104-.519.104-1.038.104-1.557.104-.934 0-1.557-.313-2.076-.731-1.973 1.15-4.464 1.254-8.201 1.358-1.038 0-1.973.104-3.01.104-.416.21-.831.21-1.247.21-.311 0-.519 0-.83.104-.52.104-1.038.209-1.557.209-.727 0-1.454-.209-1.973-.627-.934.731-1.972.836-3.114.836-.208 0-.415 0-.727.104-.311 0-.623.105-.934.105-.312 0-.52 0-.727-.105-.726.21-1.453.314-1.868.314-1.142.104-1.87.209-2.596.209-.623 0-1.245-.21-1.765-.418-.622.522-1.35.731-2.283.731-.52 0-1.039.105-1.558.105-.623.104-1.35.104-1.972.104-.208 0-.52 0-.727-.104-.83.313-1.66.313-2.491.313h-.208l-.207.105c-.52 0-1.142.104-1.765.104-.935.105-1.869.209-2.803.209-1.454 0-2.284-.836-2.595-1.358-.623-.836-.727-1.985-.416-3.135.83-6.06 1.869-12.119 2.803-18.283.104-1.15.727-2.821 3.01-3.134l.416-.21c-.934-.522-1.765-1.149-2.491-2.089-.623-.731-.831-1.672-.623-2.716.311-1.463 1.35-2.717 2.18-3.97.519-.732 1.142-1.568 1.868-2.195a4.53 4.53 0 0 1-.623-.731c-.622-.94-1.038-1.88-1.141-2.925-.208-1.88.31-3.866 1.453-5.642 1.038-1.672 2.491-3.03 4.256-3.761 1.557-.732 3.322-1.045 5.087-1.15 1.66-.104 3.322.105 4.672.314.726.104 1.557.104 2.18.418.103-.21.311-.418.519-.627 1.038-.94 2.491-.94 3.737-1.045 1.869-.209 3.737-.418 5.71-.418 1.245-.104 2.491-.104 3.633.105 1.557.313 3.01 1.149 3.841 2.507.104-.836.415-1.776 1.142-2.298a3.33 3.33 0 0 1 2.076-.732c1.973-.104 4.049-.313 6.021-.418h.52c.622 0 1.245.21 1.66.523.52-.523 1.246-.94 2.077-.94.934 0 1.868-.105 2.699-.105.83 0 1.765-.104 2.595-.209h.52c.622 0 1.245.209 1.764.522.415.314.727.627.934 1.045.208-.418.416-.731.727-1.045.519-.522 1.142-.835 1.972-.94 2.492-.209 4.672-.627 6.748-.522z" fill="#11162C"/><path d="M85.762 14.94a.79.79 0 0 1 .52.21c.103.104.103.417.103.835-.311 1.88-.519 3.761-.83 5.746-.623 4.806-1.35 9.508-2.492 14.21-.104.313-.207.522-.311.626-.104.105-.416.209-.727.313-1.35.21-2.803.314-4.153.314-.622 0-1.349 0-1.972.104h-.623c-.415 0-.519-.418-.623-.731v-.104c-.207-1.045-.415-1.986-.623-2.926-.207-.94-.415-1.985-.622-2.925 0-.105-.104-.314-.208-.418 0-.105-.104-.105-.104-.21-.207 1.15-.311 2.195-.519 3.344-.207 1.045-.311 2.194-.519 3.239-.104.418-.208.731-.311.836-.208.104-.416.209-.83.209-.624-.105-1.039-.105-1.558 0-1.35.209-2.7.418-3.945.313-.415 0-.623-.209-.727-.627v-.835c.208-1.881.416-3.97.623-5.956.415-4.597.83-9.403 2.18-13.582.104-.418.415-.731.935-.731.726 0 1.35-.105 2.076-.105 1.246-.104 2.491-.209 3.737-.209.311 0 .52.105.623.21.208.104.415.417.519.73.415 1.777.934 3.448 1.35 5.12.207.94.519 1.776.726 2.717 0 .313.208.522.416.835.103-1.776.31-3.447.415-5.224.104-1.149.207-2.194.311-3.343.104-.418.104-.836.415-1.149.208-.313.623-.313 1.039-.313h.207c.52 0 1.038-.105 1.661-.21 1.35-.208 2.595-.417 3.841-.313zM64.17 16.507c.52 0 .727 0 .935.105.103.104.103.418.103.94-.519 3.134-.934 6.164-1.35 9.194-.103.836-.207 1.776-.31 2.717-.312 2.611-.623 5.223-1.35 7.73-.104.314-.312.628-.52.732-.207.21-.518.21-.83.314-.623 0-1.245.104-1.868.209-1.35.104-2.7.313-3.945.209-.312 0-.623-.105-.727-.21-.208-.208-.208-.626-.104-1.253.312-2.09.623-4.18.935-6.373.519-3.553 1.142-7.105 1.557-10.657.104-.731.104-1.358.207-1.985.104-.418.208-.731.416-.94.207-.105.519-.21.934-.314 1.038-.104 1.972-.104 3.01-.209.831-.104 1.87-.104 2.907-.209zm-22.527 1.358c2.907-.417 6.021-.835 8.824-.313 1.038.209 1.869.731 2.388 1.358.519.732.83 1.672.934 2.717.104 2.716-.208 5.85-1.765 8.149-.519.836-1.245 1.567-2.076 2.194-.83.627-1.661 1.045-2.595 1.463-.935.313-1.973.522-3.01.522 0 .314-.105.627-.105.94-.207 1.15-.311 2.194-.519 3.344-.104.522-.311.836-.415.94-.208.209-.519.313-1.038.313-.623 0-1.35.105-1.973.21-1.245.104-2.491.313-3.737.208-.207 0-.311 0-.415-.104-.104-.105-.104-.21-.104-.523.312-6.686 1.557-13.582 2.803-20.164.104-.313.208-.627.415-.836.208-.209.52-.313.83-.313.52 0 1.039 0 1.558-.104zm3.426 9.926c.519.104.934.104 1.246-.105.622-.313 1.038-1.044 1.142-1.776.103-.731-.208-1.358-.727-1.671-.312-.105-.623-.105-1.038.104l-.623 3.448zM28.25 19.015c1.142-.21 2.388-.314 3.634-.21 1.038 0 4.152.523 4.775.628.208.104.312.209.312.313v.523c-.104.313-1.973 4.283-2.18 4.597-.208.313-.312.522-.52.626-.104.105-.415.105-.726 0-.52-.104-.935-.209-1.454-.313-.104 0-1.142-.209-1.557-.209-.311 0-.623.105-.934.313-.312.21-.52.418-.623.732-.104.522 1.765 1.358 2.18 1.567 1.35.731 2.595 1.358 3.218 2.925.623 1.776.104 3.97-.727 5.538-.934 1.776-2.387 3.447-4.36 4.179a8.81 8.81 0 0 1-3.218.627c-1.453 0-2.803-.21-3.84-.523a6.917 6.917 0 0 1-2.908-1.985c-.207-.209-.207-.522-.207-.94.104-.418.207-.731.415-1.045.104-.209 1.765-2.82 2.7-3.761.31-.314.518-.418.622-.418.104 0 .311.104.623.313.104.105 2.076 1.568 3.01 1.881.312.105.52.105.727 0 .415-.209.52-.627.104-1.15-.52-.835-1.453-1.462-2.284-1.88-1.038-.627-2.076-1.358-2.803-2.403-.83-1.254-1.038-2.716-.623-4.179.415-1.463 1.35-2.82 2.492-3.866a10.67 10.67 0 0 1 4.152-1.88z" fill="#D86363"/><path fill-rule="evenodd" clip-rule="evenodd" d="M78.91 40.642c.727 0 1.454.104 2.18.417 2.388 1.463 1.973 12.747-1.141 13.165-.083.028-.373.13-.753.264 1.663.717 1.667 2.802 1.168 3.706-.208.418-.311.731-.311.94-.312 1.463-.83 1.672-2.077 1.672h-.207c-.094 0-.187.02-.29.044-.126.029-.266.06-.437.06-.311.105-.623.105-.83.105-.312 0-.52-.105-.52-.314.032-.19.082-.435.14-.713.206-1.012.501-2.451.293-3.193-.208-.742-.817-.913-1.17-.95l-.197.05s-.104 1.776-.83 4.493c-.208.731-1.35.731-2.388.731h-.727c-.311.105-.519.105-.726.105-.52 0-.727-.314-.52-1.15.277-1.253.462-2.507.646-3.76.093-.628.185-1.254.289-1.881l.107-.724c.277-1.869.563-3.8.931-5.65.208-.522.311-1.567.415-2.611l.017-.157c.202-1.942.42-4.033 1.229-4.44h.623c.727.104 1.66 0 2.491-.105.416 0 .857-.026 1.298-.052.441-.026.882-.052 1.298-.052zM75.9 52.448c.52 0 1.246-.418 1.35-1.045.311-1.045 1.453-7.314-.208-7.314-.104 0-.311 0-.415.105-.104.94-.52 3.865-.83 5.85l-.065.379c-.078.457-.143.836-.143 1.084-.312.627 0 .94.311.94zm-5.294-11.389c.519 0 .726.314.519 1.359-.104.313-.104.731.103 1.149-.103.731-.207 1.463-.726 1.463h-.208c-.207.104-.623.104-1.038.104-.073 0-.146 0-.22-.002-.664-.01-1.337-.019-1.337.733 0 .314-.104.836-.208 1.359a47.14 47.14 0 0 1-.05.221c-.2.89-.42 1.868.154 1.868h.104c.104 0 .207-.026.311-.052.104-.026.208-.052.312-.052.415-.105.727-.105 1.038-.105.623 0 .934.314.415 1.672-.104 1.88-.415 2.194-2.284 2.09h-.311c-.727 0-.83.626-.934 1.462-.052.21-.078.444-.104.68a5.31 5.31 0 0 1-.104.678c-.104.732-.208 1.358-.311 1.985h.207c.394 0 .757-.03 1.09-.058.281-.024.541-.046.779-.046h.726c.83 0 .727.522.208 2.82a.688.688 0 0 1-.065.282.376.376 0 0 0-.039.137c.312.836-1.765.94-3.322.94-.727 0-1.246 0-1.453.105-.623 0-1.246 0-1.661.104a3.556 3.556 0 0 1-.934.105c-.727 0-.935-.418-.416-2.403.052-.47.13-.915.208-1.359.078-.444.156-.888.208-1.358.228-1.666.488-3.365.744-5.042.21-1.373.418-2.731.605-4.047.052-.47.13-.94.208-1.41.078-.471.155-.941.207-1.411l.312-1.88c0-1.464.207-1.568 1.557-1.777h.311c.623 0 1.35 0 2.077-.104.363 0 .7-.027 1.038-.053.337-.026.674-.052 1.038-.052h.415c.312-.105.623-.105.83-.105zm-9.337 9.677-.006.04c-.035.174-.07.36-.104.546-.07.371-.139.742-.208 1.021-.93 9.885-1.964 9.925-9.972 10.235l-.098.004c-.311 0-.623.026-.934.052-.311.026-.623.052-.934.052-.312-.522-.104-1.462.104-2.298.103-.418.207-.94.207-1.254.208-1.462.415-2.82.623-4.178.052-.367.104-.758.156-1.15.052-.392.103-.784.155-1.15.312-1.984.623-3.97.935-6.06 0-.445.076-.815.162-1.24l.045-.222c0-.157.026-.34.052-.522.026-.183.052-.366.052-.523.104-.94.208-1.776 1.454-1.776h.207c1.973-.209 3.426-.313 4.672-.313 4.868.208 4.465 2.602 3.432 8.736zm-7.066 8.503c.52 0 1.35-.627 1.454-1.254 0-.224.03-.418.057-.598.024-.156.047-.301.047-.447.051-.209.077-.392.103-.575.026-.182.052-.365.104-.574.104-1.045.311-2.194.52-3.239.207-1.254.414-2.507.518-3.761 0-.052.026-.13.052-.21a.81.81 0 0 0 .052-.208c.312-1.15.623-2.925-.623-2.925-.208 0-.415 0-.623.104-.103.836-.233 1.672-.363 2.508-.13.835-.26 1.671-.363 2.507-.416 2.507-.83 5.118-1.246 7.73v.001c-.208.627 0 .94.311.94zm-4.048-16.612c.623 0 .934.209.415 1.462-.208 1.254-.312 2.508-.415 3.866l-.139.976c-.37 2.62-.75 5.303-1.21 7.905-.312 1.567-.624 3.239-.831 4.91.103 1.15-.623 1.254-1.558 1.254-.311 0-.726 0-1.038.104-.207.105-.415.105-.623.105-.934 0-1.038-1.045-1.038-2.194-.05-.248-.075-.497-.1-.733a5.47 5.47 0 0 0-.107-.73c0-.215-.05-.676-.114-1.282l-.094-.912c-.063-.44-.116-.9-.165-1.327-.114-.99-.209-1.807-.354-1.807-.073 0-.095.052-.138.156-.018.044-.04.096-.07.157-.311 1.672-.623 3.343-.83 5.015-.052.313-.104.653-.156.993-.052.34-.104.679-.156.992 0 1.776-.934 1.88-2.076 1.88-.415 0-.83 0-1.35.105h-.103c-.83 0-.416-1.88 0-3.552.207-.836.311-1.672.311-2.09.135-1.427.358-2.81.583-4.206.121-.75.243-1.504.352-2.271.311-1.88.622-3.761.83-5.538 0-2.82.83-2.82 2.595-2.82.196 0 .416-.024.647-.048.259-.028.533-.057.807-.057.311 1.358.519 2.925.726 4.493.104.574.182 1.149.26 1.724.078.574.156 1.149.26 1.723 0 .627.103.94.207.94.164 0 .329-1.243.493-2.487.043-.328.087-.655.13-.96.04-.28.08-.528.113-.74.055-.345.095-.594.095-.723.207-.627.311-1.358.415-2.09l.311-1.566c-.104-.523.52-.523 1.038-.523.312 0 .623 0 .83-.104H50.156zm-13.269 2.831-.02.303c-.024.245-.054.513-.087.808-.108.963-.248 2.214-.328 3.893 0 2.926-.103 5.956-.207 8.985v.418c0 .94 0 1.986-.104 2.926.42.928-.381.97-1.087 1.007-.168.01-.33.018-.47.038-.25.028-.486.056-.705.082-.597.07-1.068.127-1.371.127-.935 0-.935-.523-.727-2.09 0-.137.02-.294.042-.47.029-.228.062-.49.062-.784.104-.209 0-.313-.208-.313-.144 0-.311.022-.49.047-.207.027-.43.057-.652.057-.586 0-.7.953-.776 1.595-.018.153-.034.29-.054.39l-.051.237c-.181.855-.348 1.644-1.299 1.644-.57 0-1.142.052-1.713.105-.57.052-1.142.104-1.713.104-.415 0-.311-.418-.207-.836.26-.888.493-1.802.726-2.716.234-.914.467-1.829.727-2.717.727-2.716 1.453-5.433 2.284-8.149.14-.284.234-.712.344-1.22.053-.24.108-.497.175-.765l.112-.517c.383-1.776.812-3.767 1.757-3.767h.103c1.558 0 2.803-.104 3.634-.209.623-.104 1.142-.104 1.453-.104.973 0 .943.459.85 1.891zm-5.833 9.81c-.519 1.359-.519 1.672.104 1.672.2.067.442.048.727.026.16-.012.332-.026.519-.026.197-1.88.3-3.762.399-5.554l.016-.297c0-.209 0-.627.104-1.044.207-.836.311-1.776-.104-1.776v.104c-.623 2.299-1.246 4.597-1.765 6.896zm-7.89-10.865c.52 0 .83.209.623.836-.048.486-.119.973-.191 1.47-.083.57-.168 1.155-.224 1.768l-.311 1.881c-.104 1.15-.312 2.403-.52 3.657a90.128 90.128 0 0 1-.33 2.203c-.14.891-.283 1.8-.396 2.707-.52 1.672-.415 2.09.311 2.09.094 0 .208-.021.334-.045.154-.028.325-.06.497-.06.144 0 .311-.022.49-.046a4.89 4.89 0 0 1 .652-.058c.161.324.072.838-.025 1.394-.027.16-.056.323-.08.486-.103.418-.207.94-.207 1.359-.207.626-.934.626-1.66.626h-.208c-.416 0-.83 0-1.142.105-.156 0-.312.026-.467.052a2.845 2.845 0 0 1-.468.052c-.622.105-1.35.105-1.972.105-.311.104-.727.104-.934.104-.52-.104-.727-.313-.416-1.253.182-1.645.443-3.209.714-4.833l.117-.705c.415-2.507.83-5.015 1.142-7.627.11-.556.192-1.142.275-1.742.073-.526.147-1.064.244-1.6.052-.367.104-.706.156-1.046.052-.34.103-.679.155-1.044-.103-.523.312-.627.727-.627.208 0 .415 0 .52-.105.103.105.31.105.414.105.312 0 .727 0 1.142-.105.312-.104.727-.104 1.038-.104z" fill="#fff"/><path d="M95.417 0c-.52 0-1.038.209-1.454.731l-.103.105V.94l-1.142 2.508a.79.79 0 0 1-.52.209l-27.094 3.97a1.462 1.462 0 0 0-1.246 1.463c0 .73.623 1.358 1.35 1.358h.207l26.576-1.672-.208 6.373v.209c.104.732.727 1.254 1.35 1.254.415 0 .83-.104 1.038-.418.208-.209.311-.418.415-.731l2.18-7.21V8.15l3.841-1.045c.623-.208 1.142-.73 1.142-1.462s-.519-1.254-1.245-1.463l-3.219-.522a55.499 55.499 0 0 1-.415-2.403C96.766.627 96.143 0 95.417 0z" fill="#11162C"/><path d="m100.4 5.642-3.53-.731c-.415-.105-.727-.314-.83-.732-.104-.418-.52-2.716-.52-2.716 0-.105-.103-.105-.103-.105-.104 0-.208.105-.312.21 0 0-.934 1.984-1.142 2.611-.207.523-1.038.94-1.66 1.045L65.414 9.09c-.104 0-.104.104 0 .104l26.887-1.672h.208c.415 0 .934.21.934.836l-.311 6.896c0 .104.104.104.104.104.104 0 .104 0 .104-.104l2.18-7.21c.103-.522.519-.94 1.038-1.044l3.841-1.045c.104-.104.104-.209 0-.313z" fill="#FFC935"/><path d="M9.253 64.463c-.727 0-1.35.522-1.454 1.149-.519 2.194-1.246 5.537-1.453 6.164-.104.314-.312.418-.312.418l-4.671 1.358c-.623.21-1.142.836-1.038 1.567.104.732.623 1.254 1.35 1.359l4.36.418.31 3.656v.209c.105.627.728 1.15 1.35 1.15.727 0 1.246-.418 1.454-1.045l1.453-3.657c.104-.105.104-.209.104-.209l31.247-4.217c.727-.105 1.35-.731 1.35-1.463 0-.731-.623-1.358-1.35-1.462L10.761 71.9l-.055-6.08v-.209c-.208-.627-.727-1.045-1.453-1.15z" fill="#11162C"/><path d="m10.706 75.537 31.247-4.217c.104 0 .104-.208 0-.208L10.498 73.33h-.103c-.52 0-.935-.418-1.039-.94v-6.466c0-.104-.103-.104-.103-.104-.104 0-.104 0-.104.105 0 0-1.246 5.432-1.454 6.268-.207.836-.83 1.15-1.245 1.358l-4.672 1.359c-.104 0-.104.209 0 .209l4.672.522c.519 0 .726.418.83.836l.312 3.97c0 .104.103.104.103.104.104 0 .104 0 .104-.104l1.454-3.866c.519-.522.934-1.044 1.453-1.044z" fill="#FFC935"/><path fill-rule="evenodd" clip-rule="evenodd" d="M158.52 26.038a27.743 27.743 0 0 1 3.739 7.367c2.786 8.25 1.481 17.049-3.395 24.79-4.857 7.47-12.699 13.237-22.083 16.032-3.583.992-7.137 1.577-10.796 1.744-6.834.26-13.354-1.011-19.028-3.778-6.711 1-18.261 2.607-26.19 1.44-8.346-1.2-8.261-2.018-8.261-2.018L94.353 61.59a27.723 27.723 0 0 1-3.447-6.95c-2.796-8.113-1.615-17.057 3.395-24.79 4.857-7.47 12.699-13.237 22.084-16.031 3.582-.993 7.136-1.577 10.795-1.744 6.904-.263 13.488 1.037 19.203 3.863 1.257-.238 2.527-.462 3.821-.68 14.806-2.43 25.084.56 26.262.903l.1.029 3.308.861-21.355 8.986z" fill="#A855F7"/><path d="M161.633 31.406c-2.215-6.711-6.937-12.357-13.544-16.212-6.213-3.692-13.648-5.412-21.5-5.108-3.657.17-7.209.756-10.791 1.752-9.382 2.802-17.223 8.579-22.083 16.056-5.013 7.74-6.2 16.691-3.41 24.809 2.215 6.711 6.938 12.357 13.544 16.212 6.213 3.692 13.649 5.412 21.5 5.108 3.657-.17 7.209-.757 10.791-1.752 9.382-2.802 17.223-8.579 22.083-16.056 4.879-7.75 6.19-16.555 3.41-24.809z" fill="#11162C"/><path d="M136.381 69.355c18.241-6.247 28.508-23.487 22.777-38.517-5.73-15.03-25.012-22.259-43.247-16.154-18.24 6.247-28.507 23.487-22.777 38.518 5.586 15.167 25.012 22.258 43.247 16.153z" fill="url(#a)"/><path d="M175.988 14.22c-.414-.107-10.929-3.454-26.369-.914-9.396 1.587-17.552 3.496-28.352 8.7-10.8 5.204-18.793 14.144-17.886 20.04.882 5.492 8.31 4.987 13.713 4.62l2.566-.175 4.457-.304c3.782-.257 8.095-.686 10.061.4-.077.952-2.873 3.986-7.602 6.475-4.332 2.326-13.983 6.368-22.096 6.785-5.664.52-7.638-.7-7.638-.7l-.717-.628-24.269 11.13s-.085.819 8.263 2.011c8.212 1.202 20.309-.569 26.894-1.559l.802-.19.54-.036c6.441-1.116 17.358-4.432 24.984-8.336 6.316-3.138 19.339-11.878 19.176-18.909-.1-1.618-.732-3.065-1.887-4.205-2.438-2.136-7.105-3.037-14.001-2.703-2.296.156-4.457.303-6.61.585-4.719.456-8.763.867-11.792.125-.279-.117-.414-.107-.549-.098.204-1.097 3.54-4.168 10-7.18 7.777-3.644 13.645-5.262 19.605-5.397 5.275-.224 7.25.996 7.25.996l.573.503 24.192-10.178-3.308-.858z" fill="#11162C"/><path d="M171.475 15.739c-4.254-.794-11.893-1.493-21.299-.04-9.27 1.443-17.013 3.46-27.687 8.521-10.278 4.899-17.224 13.228-16.56 17.382.445 2.814 5.459 2.744 10.997 2.367l2.702-.184 4.322-.294c4.323-.294 8.907-.742 11.438.711.844.485 1.434 1.257 1.358 2.21.064 3.247-5.797 7.168-8.948 8.872-4.602 2.345-14.516 6.542-23.17 6.995-4.719.457-7.335-.178-8.593-.77l-16.644 7.229c5.224 1.134 14.975.877 26.778-1.28l.802-.19c6.045-.954 17.225-4.424 24.724-8.185 8.555-4.24 17.966-12.195 17.826-16.655-.058-.945-.378-1.735-1.087-2.23-1.291-1.13-4.354-2.412-12.053-1.888-2.296.156-4.458.303-6.475.576-4.99.475-9.169.895-12.604.18-2.06-.4-2.54-1.587-2.717-2.253-.663-4.154 10.147-9.224 11.464-9.855 8.04-3.798 14.178-5.435 20.543-5.597 4.601-.178 7.091.6 8.213 1.201l16.67-6.823z" fill="#FFC935"/><path d="M94.67 47.25s-3.608-13.236 15.544-26.247c9.136-5.439 17.381-4.66 17.381-4.66s-8.603 2.525-18.606 10.232C97.378 35.945 94.67 47.25 94.67 47.25z" fill="#F17D93"/><path d="M107.603 40.874c-1.82-2.716 5.296-11.818 14.655-16.062-6.453 4.975-12.433 10.865-12.604 14.275-.11 2.319 6.727 2.887 6.727 2.887s-7.545.98-8.778-1.1zM104.521 63.455s20.962-2.804 31.746-13.491c-.622 2.751-2.672 6.422-14.05 10.529-11.513 4.117-17.696 2.962-17.696 2.962z" fill="#FFE8B0"/><path opacity=".6" fill-rule="evenodd" clip-rule="evenodd" d="M93.267 50.372c.221.864.493 1.723.819 2.575a23.882 23.882 0 0 0 1.922 4.012c14.235.798 24.11-3.726 30.42-9.047-22.795 6.554-30.602 4.212-33.16 2.46z" fill="#F17D93"/><path fill-rule="evenodd" clip-rule="evenodd" d="M156.374 28.296c-11.462-4.56-23.321 3.685-23.321 3.685 16.846-3.21 23.718 2.414 26.216 5.729a23.3 23.3 0 0 0-1.451-6.31 24.412 24.412 0 0 0-1.444-3.104z" fill="#E26A81"/><defs><linearGradient id="a" x1="94.375" y1="23.695" x2="161.567" y2="20.563" gradientUnits="userSpaceOnUse"><stop stop-color="#D86363"/><stop offset="1" stop-color="#9D174D"/></linearGradient></defs></svg>