<svg width="40" height="34" viewBox="0 0 40 34" fill="none" xmlns="http://www.w3.org/2000/svg"><g clip-path="url(#a)"><g clip-path="url(#b)"><path d="M11 0h2.8l.4.1h.1l.8.3-.3.7-.6 1.2-.6 1.4-.2.3.5-.1 1.5-.3.8-.1h.3q1-.3 1.8 0 0-.9.7-1.6Q20.3.3 22.3.3q.8 0 1.3.3.6.4.8 1v.1q.3 1 0 1.9l.8-.2h.8l1-.1a3 3 0 0 1 2.2.4q1 .6 1.2 1.8v.1q.3.7 0 1.6l-.2 1.4-.5 1.8-.3 1.4 1-.2 5.4-.5h.1a1 1 0 0 1 .8.7l-.2.4-.1.3-1.3 1.9-1.4 1.8h.6l.5-.1.2.4.2.3-.1.3-.2.6-.4 1.2-.3 1.2-.3 1q.4.6.6 1.3 0 .8-.2 1.5l-.6 1-.4 1q0 0 .3.2l.4.4-.4.5q-1 1.4-2.6 2.5l-1.6 1-.3.7q-.9 1.4-2.4 1.6l-2.6.4q-1 .2-2.6.2l-.6.2h-.8l-.8-.1-2.5-1-.8-.4.4 1-2-1q-1.7-1.4-2.7-2.9l-1-1.8-.6.4-.5-1-7.2 2.6-.6.2-.5.2-1.1.5.1-1.2.4-2.3.5-4.2.3-2-.4.2-1.1.4.2-1.2.5-3.3v-.6l.1-.4.4-.1 1-.3-1.2-1-.3-.3-.3-.4.2-.4 1-1.7.8-1.6.2-.6.2-.4h.3q-.4-.6-.5-1.2v-2a7 7 0 0 1 2.2-3.2l1.8-1.2A11 11 0 0 1 11 0m12.2 25.2v.3q.2.5 0 1.1v.1l-.1.1-.2.1q.3.6.1 1-.2.6-.4.7l-.2.2v.3q.1.6-.1 1l-.5.5-.1.1v.2l1.4-.4v-.3l.5-.5.2-.3q-.3-.6 0-1l.2-.4-.4-.5.3-.4.3-.4-.5-.4.2-.4v-.5l-.3-.3zm-5 1v.2l-.1.3-.2.4-.3.3-.3.1h-.1l-.2.6-.1.6h-.5v.3l-.5.2h-.3v.2l.3.2.6.1v-.6l.5-.1.3-.1a2 2 0 0 1 .8-1v-.3l-.2-.3.3-.3.3-.2-.2-.4v-.2m-5.4 3.3-.2-.3zm14.4-.7 1.1-.3zm.9-4.4h-.3l-.2.3.2.2.6.4-.3.5-.2.4.4.2.6.3-.3.6-.2.5.6-.2.1-.6.3-1.2H29v-.6l-.2-.8zm-19-8.8-.6.1h-.1l-2.1.6-3 1-.5.1v.5l.2-.1 1.4-.6-.5 1.4v.1L3.6 21l-.3 2.4-.3 2.3-.2 1.2.4-.1 1.5-.6.4-3.1v-.5l.6-1.5-.6.3.2-1.3.3-2.2v-.4l.4-.1q.7-.4 1.5-.5.6 0 1 .2h.1l.2-.6zm23 11h.2zm-18.5-.3-.3-.1zm-4.1-8.5L9 18v.2q0 .4-.3.8l-.2.2-1 .9h-.2l-1 .6-.6.3.7 1.4.4.6.6 1.4.3.6 1.6-.6-1-1.4-.6-1-.3-.4L7 21l.6-.3q2-1.2 2.5-3v-.1zm17.7 5.8.1.1h.1q-.2 0-.2 0m-12-6.9-1.1.1H14q-1.5.6-2.2 1.6a6 6 0 0 0-1 2.3v.1q-.3 1.4.2 2 .3.5.9.6l.2-.2v.3h.4q1.6-.4 2.7-1.6l-.4.2-1 .4q-.9.1-1.6-.5-.4-.7-.3-1.2h-.1l.3-1.3c.1-.5.4-1.5 1-2l.8-.4a1 1 0 0 1 1.3.8q0 .7-.2 1.4l.9-.4.1-.7v-.9q-.3-.4-.7-.6m6.2-1.4q-1.9.1-3 1.6l-.4.7a6 6 0 0 0-.5 2.4h.9l-.9.5.1.3q.5 1 1.8.9h.1a4 4 0 0 0 2.3-1.3l-.4.2q-.6.2-1.3.3t-1.2-.6v-.1q-.2-.6-.2-1h-.3l.4-1.3.2-.5q0-.5.5-1a2 2 0 0 1 1-.8h.1q.8-.2 1.3.7 0 .8-.2 1.4l.7-.2.2-.1v-1.6q-.3-.6-1.2-.5m3.8-2.6-.3 1.9-.2 1.2-.6 3.5v1.3l1.2-.2q-.2-.6-.1-1.3l.4-2.7.7-3.2.1-.8zm7 1-4.1.7-.1.5 1.7-.4 2.2-.4-1.6 1.6-.9 1-.8 1-1 1-.6.8.1.6 4.6-.6.2-.7-1.5.3h-.6l-1.9.5 1.2-1.5 1.4-1.9.7-1zm-5.2-.4.4-1.9zm-16.4 5.2v.2zm2.6-12.2-.2.8-.3 1.1-.7 3.1-.6 2L11 15l-.1.5.4-.1 1-.3v-.3l.3-1.4.3-1.2.2-1.3h.1l.3-1.3.3-1.4-.3.2.5-2.1V6zm-9.6 7.9h-.1m8-11.8a11 11 0 0 0-3.5.8 6 6 0 0 0-2.8 2.5Q5 6.2 5 6.8V7q0 .3.3.7l.8.6.9.5.9.7q.4.2.6 1-.2.9-.8 1.3-.7.3-1.3.3-1.2 0-2.2-.7l-.4.9-.5.9.4.2q.5.4 1.2.5a4.6 4.6 0 0 0 4.4-1.2v-.1q.7-.7 1-1.5.7-1.5-.4-2.6-.3-.4-.7-.6L8 7l-.6-.4q-.8-.6-.4-1.6l.6-.7h.1q.9-.7 2-.9l1-.1-.3 1-.1.7.3-.7.5-1.2.3-.7zm22 10.5-.8.1zM20.6 6.1l-.6.1-.7 3.3L19 11l-.4 1.5v.2l1.3-.2.3-1.7.4-1.6.5-2.5.1-.7zm2.6-.2-.2 1-.2 1.2-.6 2.4-.4 1.8 1.2-.2.2-.7.3-1.5.4-1.5-.3.2.7-2.5v-.4zm-5.6 0q-.4-.5-1.3 0l-.8.6q.7 0 1 .8t0 1.4q0 .8-.4 1.2a4 4 0 0 1-2 2H14l.2.1h.4l.6-.3 1.3-1q1-1 1.4-2.3.4-1 0-2zm-.4 5.1-.3.3.2-.2zm-2.6-3.1-.2.3-.3 1.5-.3 1.3.3-1.3.3-1.5zm12.8-2.3q-.5 0-.9.3l-.7.5q.3 0 .4.2.4.3.4.5l.1.5-.1.7-.5 2v.3l1-.3h.2l.1-.8.4-1.4.2-1V5.8q-.3-.3-.6-.2M4.9 9.7l-.3-.2zm-.1-1.4v-.1m14-2v-.1M15 6V6zl.2-.1zm14-1.6H29m-13.2 0h.2zm6.3-2q-.3 0-.6.2-.8.3-1 1 0 .1 0 .2l.2.1q.4 0 .8-.3a1 1 0 0 0 .7-1.1zM5 3.4l.1-.1z" fill="url(#c)"/><path d="M20 31.6c1.4.2 2.6-.3 3.8-.6-.4-.7 1-1 .6-1.8-.3-.9 1-1 0-1.7l.7-1-.5-.4v-1q-.5-.4-.5-1l-1.9.7q.5.8.3 1.6l-.4.4.2.4c.4.9-.8 1-.6 2s-1 .9-.7 1.8z" fill="#fff"/><path d="m28 27-.8 1.8 1.1-.3-.7 1v.3c-.2.6 3.4-2.7 2.7-2.6h-.5l.5-1.7q-.3-.3-.8-.4l-.1-1.4H28L28 23c-.7-.4-1.8 0-2.1.5l1.2.7-.5.6 1 .6-.5 1z" fill="#fff"/><path d="M14.4 29.1c.5.9 1.8 1.7 2.8 1v-.5l.7-.2c0-1 1-1.1 1-1.4l-.2-.5.5-.4q.1-.2-.1-.7l.4-.8q-.1-.2-.1-.4l.3-.4-1.5-.4-.2 1.2q-.4.1-.5.4t-.2.7l-.7.3-.3 1h-.5q-.2.1-.1.5l-.6.2-.2.3z" fill="#fff"/><path d="m12.3 25.8.5.7.2-.4.6.2v-.6l1 .1-.1-.7h.7v-.5q0-.2.5-.2l-.2-.6h.4l-1.3-1.4-.1.6-.4-.2-.2.7-.7-.2-.1.5q-.1.1-.5-.2l-1 .9.2 1.2.3.9z" fill="#fff"/><path d="m11 .7 3.1.1-.5 1.2-.7 1.4-.6 1.2-.2.5 2-.5 1.4-.3v.4l1.2-.6q1.3-.3 2.3.6l.3.3.2-.1q-1-1.3 0-2.6Q20.6 1 22.3 1q1.1 0 1.5 1 .2 1.4-.9 2.5l2.4-.4h.8v.3c.8-.5 2-.6 2.7-.1q.9.5 1 1.4V7l-.3 1.5-.4 1.7-.6 2.3v.1l2-.3 5.4-.5h.1l-.2.3-1.3 1.9-2.2 3.1h.2l1.6-.2h.3l-.1.6-.4 1.2-.4 1.2-.4 1.3q.5.6.7 1.4-.1 1-.7 2l-1 2c.3-.1.7-.4 1 0Q32 28 30.5 29l-1.7 1-2 1.2c.6 0 .8-.1 1.5-.3-.6 1.3-2.8 1.4-4.4 1.6-1.2.1-2.3.5-3.5 0l.2.5q-.5 0-1.2-.2l-2.4-.9-1.5-.7q-.5-.6-1.2-1 0 .5.4 1.2-1.4-1-2.5-2.6a6 6 0 0 1-1.1-2.6l-.5 1.2q-.5-.7-.5-1.4v-.2l-.8.3L2 28.7l-.6.3-.4.2.3-2.3.5-4.2.4-2.4v-.7h-.1l-1.3.5.5-3.3v-.6l1.8-.5.6-.2q-1.2-.7-2.3-1.7l-.3-.3 1-1.7.8-1.6.3-.6 1.6.1L4 9q-.6-.8-.7-1.4-.1-.9 0-1.6a6 6 0 0 1 2-3l1.6-1.1q2-1 4.2-1.2m11.3 24q.4 1 .2 1.7l-.4.4.2.4c.4.9-.8 1-.6 2s-1 .9-.7 1.8l-1 .6c1.4.2 2.6-.3 3.8-.6-.4-.7 1-1 .7-1.8s.8-1 0-1.7l.6-1-.5-.4q.1-.6 0-1-.5-.4-.5-1zm-4.3 1-.5.2q0 .4-.2.8l-.7.3-.3 1h-.5q-.2.1-.1.5l-.6.2-.2.4h-.5c.5.9 1.8 1.7 2.7 1l.1-.5.7-.2c0-1 1-1.1 1-1.4l-.2-.5.5-.4q.1-.2-.1-.7l.4-.8q-.1-.2-.1-.4l.3-.4-1.6-.4zM28 23c-.7-.4-1.8 0-2.1.5l1.2.7-.5.6 1 .6-.5 1 1 .5-.8 1.8 1.1-.3-.7 1v.3c-.1.6 3.4-2.7 2.7-2.6h-.5l.5-1.7q-.3-.3-.8-.4l-.1-1.4H28zM9.9 15H8.2l-2.1.6-3 1-1 .3v1l-.3 1 1.5-.5v.2l-.4 2.2-.3 2.4-.3 2.3-.4 2.5 1.6-.7 1.9-.7.4-3.5v-.4l.3.6.7 1.4.6 1.2 3-1.1-1.5-2.2-.6-1-.3-.4q2-1.1 2.8-3.3l.1-1.3-.8.3-.8.3.2-.6zm5.7 9.1q-1.3 1-2.8 1.1h-1v.5l.3.9.2-.8.5.7.2-.4.6.2v-.6l1 .1-.1-.7h.7v-.5q0-.2.5-.2zm1-7c-.4-1.2-1.7-1.3-2.9-.9q-1.6.6-2.5 1.8t-1 2.7q-.4 1.4.2 2.6.8 1 2 .8 2.5-.2 3.8-2.4.5-.7.4-1.5l-.6.5-1.5.8c-.5.2-1.4.5-1.7 0q-.2-.3-.2-.7l1-.3 2.9-1 .2-1.2zm5.7 5.4q-1.2.8-2.8 1-1.4.3-2.6-.7l-.2.4c1.6.7 4.1 1.2 5.4.6l2.3-1 1-.6-2.7.5-.1-.5zm1-6.9q-.5-1.2-2-1-2.1.1-3.4 2l-.5.7c-.5 1-.9 2.7-.4 3.7q.7 1.5 2.5 1.4 1.4-.3 2.4-1.2 1.2-1 1.3-2.4l-.2.1c-.7.5-3 2-3.5 1l-.1-.7.5-.2 2.7-.8.6-.3q.4-1.2 0-2.3m3.6-4-2.3.6v.3l-.4 2-.2 1.1-.6 3.6c0 .7-.2 1.6.3 2.2h.2l2.3-.5q-.4-.8-.3-1.8l.4-2.6.7-3.2.4-1.9zm6.6 1.3-6 .8-.4 1.7v.4l.7-.2 2-.4-.9 1-.8 1-1 1.1-.9 1 .4 1.6 1.6-.3h.4l3.6-.4.6-2 .1-.3-1 .2-1.6.3-.6.1 1.4-1.9.7-.9 1.6-2.3.3-.5zM7.6 17.5l.5.1q.4.6 0 1.1l-1.2.9-1 .5.4-2.2q.6-.4 1.3-.4m6.5.3q.3 0 .4.2 0 .6-.2 1l-.3.2-1.2.5q.1-1 .8-1.7zm6.6-1.5q.3-.1.5.2 0 .5-.2 1l-.3.2-1.2.4.1-.5q.3-1 1.1-1.3M18.3 5.4q-1-.8-2.2-.2l-1.4 1.2.3-1.2-3 .7h-.4l-.2 1.4 1-.4-.4 1.2-.7 3-.5 2.1-.4 1.6-.5 1.5v.3l1.6-.5 1.4-.5.1-.6.3-1.5.3-1.2.5.4q.8 0 1.5-.4l1.4-1a6 6 0 0 0 1.7-2.7q.4-1 0-2.3 0-.5-.4-.9M12 1.6a12 12 0 0 0-4.3 1 7 7 0 0 0-3.1 2.7A3 3 0 0 0 4.3 7q0 .6.4 1.2t1 .8l1 .6.8.5.3.5c0 .5-.8.9-1.4.9A4 4 0 0 1 4 10.3l-.4.8-.4.9-.8 1.4 1 .6q.5.5 1.4.6 1.8.2 3.5-.4l1.5-1q.8-.7 1.2-1.8.8-1.8-.6-3.4l-.8-.7-1.2-.8-.5-.3a1 1 0 0 1-.2-.7q.2-.4.5-.6.7-.6 1.7-.7l-.2.8-.3.9h1.3l.6-1.2.6-1.2.3-.7.6-1.2zm8.5 3.8-1.2.2v.5q-.2 1.6-.7 3.2l-.4 1.5-.4 1.5-.4 1.3.6-.1 2.4-.3.4-2.2.4-1.6.5-2.6.2-1.2.2-.5zm8 0c-.5-.8-1.6-.6-2.4-.1l-1.1 1 .2-1 .2-.4-2.7.4-.3 1.5-.3 1.1-.5 2.5-.6 2.4v.3l.9-.1 1.7-.2.3-1.2.3-1.6.4-1.5c0-.6 1-1.5 1.3-1.3.2 0 .1.6 0 1l-.5 2-.4 1.4.7-.2 1.5-.4h.6l.3-1.3.4-1.4.2-1q.2-1.1-.2-1.9M15.3 7.3q.5-.1.7.2.2 1-.4 2.1-.6 1-1.7 1.6V11l.3-1.3.3-1.5q.3-.6.8-.9m7-5.5-1 .1q-1 .4-1.4 1.3 0 .5 0 .8.2.6 1 .6l1-.4q1-.6 1.1-1.7 0-.6-.8-.7" fill="#0f1537"/><path d="M5.8 22.7v.4l-.4 3.5-2 .7L2 28l.4-2.5.3-2.3.3-2.4.3-2.2v-.2l-1.4.6.2-1.1.1-1 1-.3 3-1 2-.5q1-.3 1.8-.1l-.4 1.6-.2.6.8-.3.8-.3-.1 1.3q-.7 2.2-2.8 3.3l.3.5.6 1 1.5 2.1-3 1.1-.6-1.2-.7-1.4zm2.2-4q.5-.6.1-1l-.5-.2q-.8 0-1.3.4L6 20l1-.5z" fill="#272e4b"/><path d="m16 20.7.6-.5q0 .8-.4 1.5a5 5 0 0 1-3.8 2.4q-1.2.1-2-.8-.6-1.2-.3-2.6t1.1-2.7q1-1.2 2.5-1.8c1.2-.4 2.5-.3 3 .9v1.2l-.2 1.1q-1.5.6-2.8 1l-1 .4.1.8c.3.4 1.2.1 1.7-.1zm-2-1.5q.1 0 .3-.2.3-.4.2-1 0-.3-.4-.2l-.5.2q-.7.7-.9 1.7z" fill="#272e4b"/><path d="M19.5 19.8c.5 1 2.8-.4 3.5-.9l.2-.1q0 1.5-1.3 2.4-1 1-2.4 1.2-1.8.1-2.5-1.4c-.5-1-.1-2.6.4-3.7l.5-.8q1.1-1.7 3.5-2 1.3 0 1.8 1.1t0 2.3l-.6.3-2.7.8-.5.2zm1.2-2.1.3-.2q.3-.5.2-1-.1-.3-.5-.2-.8.4-1 1.3l-.2.5z" fill="#272e4b"/><path d="m26.6 20.9-.4-1.6.8-1 1-1.1 1-1 .8-1-2 .4-.8.2.1-.4.4-1.7 6-.8h.2l-.3.5-1.6 2.3-.7 1-1.4 1.8.6-.1L32 18l.9-.2-.1.3-.6 2q-2.8.2-5.6.7" fill="#272e4b"/><path d="M23.7 21.4q-.6-1-.3-2.2l.6-3.6.2-1.2.4-2v-.2l2.3-.6.5-.2-.4 1.9-.7 3.2-.4 2.6q-.2 1 .3 1.8l-2.3.5z" fill="#272e4b"/><path d="M4.8 14.6q-.8-.2-1.5-.6l-.9-.6.8-1.4.4-.9.4-.8a4 4 0 0 0 2.4 1c.6 0 1.4-.3 1.4-.8q0-.3-.4-.5l-.8-.5-.9-.6-1-.8a2 2 0 0 1-.4-1.2q0-.8.3-1.6a7 7 0 0 1 3.2-2.8q.9-.4 1.9-.6 1.1-.3 2.4-.3h.7l-.6 1.2-.3.7-.6 1.2-.6 1.3-1.3-.1.3-1 .2-.7q-1 .1-1.7.7-.3.2-.5.6-.1.4.2.7l.5.3 1.2.8.8.7q1.4 1.5.6 3.4a5 5 0 0 1-1.2 1.8 5 5 0 0 1-5 1.4" fill="#272e4b"/><path d="m9.8 16.6.1-.3.5-1.5.4-1.6.5-2L12 8l.3-1.2-1 .4.3-1.3.5-.1 2.9-.7-.3 1.2.3-.3 1-.9q1.3-.7 2.2.2.5.5.5.9.4 1.2 0 2.3a6 6 0 0 1-1.7 2.7l-1.4 1q-.7.4-1.5.4-.3 0-.5-.4l-.3 1.2L13 15v.6l-1.5.5zm4-5.4q1.2-.6 1.8-1.6t.4-2a.5.5 0 0 0-.7-.3l-.8.9-.3 1.5-.3 1.3z" fill="#272e4b"/><path d="m24.7 8.5-.4 1.5-.3 1.6-.3 1.2-1.7.2-1 .1v-.3l.6-2.4.6-2.5.2-1 .3-1.6 2.8-.4-.2.4-.2 1 1-1q1.5-1 2.5.1.4.8.2 1.8l-.2 1-.4 1.5L28 11l-.6.1-1.5.4-.7.2.4-1.5.5-2q.2-.6 0-1c-.4-.1-1.2.8-1.3 1.4" fill="#272e4b"/><path d="m17.5 13.6.4-1.3.4-1.5.4-1.5q.5-1.5.7-3.2v-.5l1.2-.2 1.6-.3-.2.5-.2 1.2-.5 2.6-.4 1.6-.4 2.2-2.4.3z" fill="#272e4b"/><path d="M20.8 4.6a1 1 0 0 1-1-.6l.1-.8a3 3 0 0 1 2.3-1.4q.8 0 .8.7 0 1-1 1.7a2 2 0 0 1-1.2.4" fill="#272e4b"/><path d="M7.7 14.4q.8-.3 1.7-.1L9 15.9l-.2.6.8-.3.9-.3q0 .6-.2 1.3-.7 2.2-2.8 3.3l.3.5.6 1 1.5 2-3 1.2-.6-1.2-.6-1.4-.4-.6v.4l-.4 3.5-1.9.7-1.6.7.4-2.5.3-2.3.3-2.4.3-2.2v-.2l-1.4.6.2-1.1.2-1 .9-.3 3-1zm5.6 1c1.1-.3 2.4-.2 2.8 1q.3.6.1 1.2l-.2 1.1q-1.5.6-2.8 1l-1 .4.1.7c.4.5 1.2.2 1.8 0l1.4-.8.6-.5q0 .8-.4 1.5a5 5 0 0 1-3.8 2.4q-1.2.1-2-.8-.6-1.3-.3-2.6.3-1.5 1.1-2.7 1-1.3 2.6-1.8m7.6-1.6q1.3 0 1.8 1 .4 1.3 0 2.4l-.6.2-2.7 1H19l.1.7c.5 1 2.8-.4 3.5-1h.2q0 1.4-1.2 2.4T19 21.7q-1.8.1-2.5-1.4c-.5-1-.1-2.6.4-3.7l.5-.8q1.2-1.7 3.5-2m5.6-1.2-.7 3.2-.4 2.6q0 1 .3 1.8l-2.3.5h-.1q-.7-1-.3-2.2l.5-3.6.2-1.2.4-2v-.2l2.3-.6.5-.2zm6.4.1L31.3 15l-.7 1-1.4 1.8.6-.1 1.7-.3 1-.2-.2.3-.6 2-5.6.7-.4-1.6.9-1 1-1.2.8-1 1-.9-2.1.4-.7.2v-.4L27 13l6-.8h.3zm-25.8 4-1.3.5-.3 2.1 1-.5 1-.8q.7-.6.1-1zm7 .6q-.2-.3-.5-.2l-.5.2q-.7.7-.8 1.7l1.2-.5.3-.2q.3-.4.2-1m6.6-1.5q-.1-.3-.5-.3-.8.5-1 1.4l-.2.5 1.2-.4.3-.2q.3-.5.2-1" fill="#fff"/><path d="M15.6 4.5q1.2-.7 2.2.2.3.4.5.9.2 1.2 0 2.3a6 6 0 0 1-1.7 2.7l-1.5 1q-.7.4-1.5.4l-.5-.4-.2 1.2-.3 1.5-.1.6-1.5.5-1.7.5.2-.3.4-1.5.4-1.6.5-2 .7-3.1.3-1.2-.9.4.2-1.3.5-.1 3-.7-.4 1.2.3-.3zm-3.3-2.4-.3.7-.6 1.2-.5 1.3-1.4-.1.3-1 .2-.7q-1.4 0-2.3.7l-.5.5q-.1.5.2.8l.6.3 1 .8 1 .7q1.3 1.5.5 3.4a5 5 0 0 1-1.2 1.8 5 5 0 0 1-5 1.4l-1.5-.6-.9-.6.8-1.4.4-.9.4-.8a4 4 0 0 0 2.4 1c.6 0 1.4-.3 1.4-.8q0-.3-.3-.5L6 8.7l-.9-.5-1-.8a2 2 0 0 1-.4-1.2q0-.8.4-1.6a7 7 0 0 1 3.1-2.8q.9-.5 1.9-.6l2.4-.3h1.3zM21.6 5l-.3 1.2-.5 2.6-.4 1.6-.4 2.2-2.3.3H17l.3-1.2.4-1.5.4-1.5q.5-1.5.7-3.2v-.5l1.2-.2 1.6-.3zm4.1-.3c.8-.5 1.9-.7 2.4.1q.6.8.2 1.8l-.2 1-.3 1.5-.3 1.2-.7.1-1.5.4-.7.2.4-1.5.5-2q.2-.6 0-1c-.3-.1-1.2.8-1.3 1.3l-.4 1.6-.3 1.6-.3 1.2-1.7.2-1 .1.1-.3.6-2.4.5-2.5.3-1 .3-1.7 2.7-.3-.1.4-.3 1zM15.5 6.8a1 1 0 0 0-.7-.2l-.8.9-.3 1.5-.3 1.3v.1Q14.6 10 15 9q.6-1 .4-2M21.8 1q.6.1.7.8 0 1-1 1.7a2 2 0 0 1-1.2.4 1 1 0 0 1-1-.6l.1-.8A3 3 0 0 1 21.8 1" fill="#fff"/></g></g><defs><linearGradient id="c" x1="5.79577" y1="-2.10168" x2="21.1735" y2="36.462" gradientUnits="userSpaceOnUse"><stop stop-color="#fec619"/><stop offset="0.538462" stop-color="#fa9604"/><stop offset="1" stop-color="#e0052b"/></linearGradient><clipPath id="a"><path fill="#fff" d="M0 0h60.3v33.6H0z"/></clipPath><clipPath id="b"><path fill="#fff" d="M0 0h37v36H0z"/></clipPath></defs></svg>