<svg xmlns="http://www.w3.org/2000/svg" width="235" height="66" fill="none" viewBox="0 0 235 66"><g clip-path="url(#a)"><path fill="url(#b)" d="M92.71 8.891c5.093 0 9.62 1.123 12.787 3.756 3.372 2.803 4.664 6.868 3.956 11.321-.509 3.2-2.03 6.186-4.478 8.456q.254.27.495.562c1.914 2.33 2.815 5.406 2.233 9.072-.644 4.052-2.625 7.957-6.486 10.787-3.797 2.784-9.06 4.271-15.84 4.272h-20.56l2.623-16.591 5.196-.008 2.362-14.958h-5.185L72.45 8.891z"/><path fill="url(#c)" d="M42.095 12.123 51.56.008h25.983L51.769 32.999l15.284 32.982H41.07l-5.61-12.106L25.988 66H.005l25.781-33.001L10.498.008h25.984z"/><path fill="#fff" fill-rule="evenodd" d="M101.659 0c14.986 0 23.164 5.235 21.301 17.491h-.001c-.975 6.404-5.238 11.852-12.651 14.146 5.643 1.814 11.549 6.339 10.033 15.005-2.149 12.29-9.807 19.307-30.043 19.307h-23.28l-15.29-32.953L77.474 0zM75.562 12.54l-1.483 9.372h13.749c2.487 0 3.493 1.126 3.181 3.084-.235 1.483-1.31 3.025-3.68 3.025l-9.027-.022-1.481 9.381 8.494-.046c2.725 0 3.35 1.66 3.076 3.381-.331 2.076-1.91 3.44-4.456 3.44l-13.383.016-1.47 9.297h16.295c12.558 0 17.7-5.517 18.727-11.983.818-5.146-2.348-7.78-5.672-8.991l.055-.35c4.275-1.527 6.761-4.935 7.367-8.75 1.065-6.701-3.843-10.854-13.144-10.854z" clip-rule="evenodd"/><path fill="#fff" d="M232.264 17.126h-12.519L212.034 66h-25.711l7.733-48.874h-12.58L184.184 0h50.792zM174.74 17.118h-19.328l-1.361 8.589h19.281l-2.143 13.484h-19.274l-1.383 8.723h29.062l2.828 18.059-34.752.01-.003.017h-25.984l.001-.008h-.007l.624-3.892 7.948-50.165L132.077 0h45.386z"/></g><defs><linearGradient id="b" x1="87.228" x2="87.228" y1="8.891" y2="57.117" gradientUnits="userSpaceOnUse"><stop stop-color="#fe8301"/><stop offset="1" stop-color="#ff4206"/></linearGradient><linearGradient id="c" x1="38.774" x2="38.774" y1=".008" y2="66" gradientUnits="userSpaceOnUse"><stop stop-color="#fe8301"/><stop offset="1" stop-color="#ff4206"/></linearGradient><clipPath id="a"><path fill="#fff" d="M0 0h235v66H0z"/></clipPath></defs></svg>
